<svg width="50" height="50" viewBox="0 0 50 50" fill="none" xmlns="http://www.w3.org/2000/svg">
<g clip-path="url(#clip0_0_245)">
<path d="M25 50C38.8071 50 50 38.8071 50 25C50 11.1929 38.8071 0 25 0C11.1929 0 0 11.1929 0 25C0 38.8071 11.1929 50 25 50Z" fill="#FF492C"/>
<path d="M35.8194 19.1496H31.5494C31.6644 18.4796 32.0794 18.1046 32.9194 17.6796L33.7044 17.2796C35.1094 16.5596 35.8594 15.7446 35.8594 14.4146C35.8594 13.5796 35.5344 12.9196 34.8894 12.4446C34.2444 11.9696 33.4844 11.7346 32.5944 11.7346C31.9059 11.7265 31.2299 11.9194 30.6494 12.2896C30.0644 12.6496 29.6294 13.1146 29.3594 13.6946L30.5944 14.9346C31.0744 13.9646 31.7694 13.4896 32.6844 13.4896C33.4594 13.4896 33.9344 13.8896 33.9344 14.4446C33.9344 14.9096 33.7044 15.2946 32.8144 15.7446L32.3094 15.9896C31.2144 16.5446 30.4544 17.1796 30.0144 17.8996C29.5744 18.6196 29.3594 19.5246 29.3594 20.6196V20.9196H35.8194V19.1496Z" fill="white"/>
<path d="M35.2495 22.96H28.1795L24.6445 29.08H31.7145L35.2495 35.205L38.7845 29.08L35.2495 22.96Z" fill="white"/>
<path d="M25.2538 33.1648C20.7538 33.1648 17.0887 29.4998 17.0887 24.9998C17.0887 20.4998 20.7538 16.8348 25.2538 16.8348L28.0487 10.9898C27.1283 10.8068 26.1922 10.7147 25.2538 10.7148C17.3638 10.7148 10.9688 17.1098 10.9688 24.9998C10.9688 32.8898 17.3638 39.2848 25.2538 39.2848C28.2774 39.2905 31.2238 38.3306 33.6637 36.5448L30.5738 31.1848C29.0954 32.4618 27.2072 33.1646 25.2538 33.1648Z" fill="white"/>
</g>
<defs>
<clipPath id="clip0_0_245">
<rect width="50" height="50" fill="white"/>
</clipPath>
</defs>
</svg>
