<svg width="157" height="23" viewBox="0 0 157 23" fill="none" xmlns="http://www.w3.org/2000/svg">
<g clip-path="url(#clip0_1_382)">
<path d="M9.61263 8.08833C9.61263 8.08833 8.31432 7.96129 8.31432 9.09924V14.1538H16.8881V15.6707C16.8881 15.6707 16.9137 16.4286 16.1086 16.4286H8.31432V23H17.6675C17.6675 23 23.3306 22.1402 23.383 16.4286V8.08833H9.61263ZM23.1224 0H6.23546C0.129163 1.41505 0 6.34362 0 6.34362V23H6.49601V7.83533C6.49601 6.54624 7.79433 6.31952 7.79433 6.31952H23.1235V0H23.1224ZM45.4164 18.2335C44.971 18.526 44.6414 18.7406 44.4087 18.8775C43.5759 19.3846 42.7819 19.7756 42.0459 20.0878C40.9803 20.5171 40.0305 20.7318 39.1787 20.7318C36.2536 20.7318 33.8318 19.8534 31.8743 18.0769C29.9169 16.3004 28.9504 14.076 28.9504 11.3828C28.9504 8.78709 29.8222 6.54186 31.5848 4.62848C33.3475 2.71619 35.4787 1.77867 37.9973 1.77867C39.044 1.77867 40.1664 1.9539 41.3289 2.32629C42.8398 2.79395 44.0602 3.4971 45.0289 4.41381L43.3431 6.24833C42.6272 5.566 41.6974 5.05781 40.6118 4.74567C39.7989 4.51129 38.9082 4.39519 37.9194 4.39519C36.1568 4.39519 34.6647 5.09614 33.4833 6.48271C32.3019 7.8879 31.7018 9.54719 31.7018 11.4989C31.7018 13.432 32.3787 15.0124 33.735 16.2818C35.0912 17.5501 36.8148 18.1941 38.9071 18.1941C39.7789 18.1941 40.6708 17.9203 41.5805 17.3946C42.3366 16.8283 42.724 16.5545 42.743 16.5348V12.5339H37.0865L37.8994 10.0357H45.4164V18.2335ZM62.5027 13.3531C62.5027 15.2851 61.8057 16.9641 60.4105 18.3693C59.0153 19.7745 57.2916 20.4974 55.2384 20.4974C53.3399 20.4974 51.6742 19.7942 50.24 18.4088C48.8058 17.0233 48.1088 15.3443 48.1088 13.3729C48.1088 11.4211 48.788 9.74214 50.1431 8.29752C51.4982 6.8529 53.1651 6.15086 55.1215 6.15086C57.2916 6.15086 59.0543 6.83429 60.4294 8.21976C61.8057 9.5669 62.5027 11.2842 62.5027 13.3531ZM59.8482 13.3926C59.8482 12.0849 59.4028 10.9721 58.512 10.074C57.6212 9.15619 56.5167 8.70714 55.1994 8.70714C53.9601 8.70714 52.9135 9.1759 52.0416 10.1134C51.1698 11.0499 50.7433 12.1232 50.7433 13.3334C50.7433 14.6028 51.1887 15.6761 52.0605 16.5742C52.9324 17.4723 54.018 17.94 55.3341 17.94C56.5556 17.94 57.6012 17.491 58.4931 16.5929C59.4028 15.6948 59.8493 14.6214 59.8493 13.3926H59.8482ZM79.3563 13.3531C79.3563 15.2851 78.6592 16.9641 77.264 18.3693C75.8689 19.7745 74.1452 20.4974 72.092 20.4974C70.1935 20.4974 68.5277 19.7942 67.0936 18.4088C65.6605 17.0233 64.9624 15.3443 64.9624 13.3729C64.9624 11.4211 65.6416 9.74214 66.9967 8.29752C68.3529 6.8529 70.0187 6.15086 71.975 6.15086C74.1452 6.15086 75.9078 6.83429 77.283 8.21976C78.6592 9.5669 79.3563 11.2842 79.3563 13.3531ZM76.7017 13.3926C76.7017 12.0849 76.2563 10.9721 75.3656 10.074C74.4748 9.15619 73.3702 8.70714 72.053 8.70714C70.8137 8.70714 69.767 9.1759 68.8952 10.1134C68.0233 11.0499 67.5969 12.1232 67.5969 13.3334C67.5969 14.6028 68.0422 15.6761 68.9152 16.5742C69.7859 17.4723 70.8716 17.94 72.1888 17.94C73.4092 17.94 74.4547 17.491 75.3466 16.5929C76.2563 15.6948 76.7029 14.6214 76.7029 13.3926H76.7017ZM94.9516 20.1064L92.5109 20.4777V18.1547L91.9875 18.7395C91.5265 19.1643 91.0042 19.5197 90.4376 19.7942C89.6058 20.1716 88.7001 20.3649 87.7842 20.3605C85.8857 20.3605 84.2578 19.677 82.9405 18.2905C81.6233 16.9039 80.9652 15.2654 80.9652 13.3531C80.9652 11.3817 81.6233 9.6841 82.9216 8.27781C84.2199 6.87152 85.8077 6.16948 87.7062 6.16948C88.7919 6.16948 89.7405 6.34471 90.5344 6.69629C91.0967 6.95038 91.5811 7.28224 91.9875 7.69295C92.1234 7.86819 92.2592 8.06314 92.3951 8.23838V2.14886L94.9895 1.77757L94.9516 20.1064ZM92.6656 13.5284C92.6656 12.1626 92.2002 11.0104 91.2515 10.074C90.3028 9.11676 89.2361 8.6491 88.0169 8.6491C86.6607 8.6491 85.5761 9.09814 84.7433 9.99624C83.9672 10.8538 83.5607 11.9085 83.5607 13.1385C83.5607 14.524 83.9672 15.675 84.7811 16.5731C85.594 17.4712 86.6217 17.9203 87.881 17.9203C89.1203 17.9203 90.206 17.5107 91.1747 16.6717C92.1623 15.812 92.6667 14.7583 92.6667 13.5284H92.6656ZM108.647 4.68762H101.383V9.54719H107.019V12.0454H101.383V20.0878L98.5548 20.4974V2.16857H108.085L108.647 4.68762ZM114.479 3.26162L112.735 5.428L111.069 3.26162L112.832 1.11495L114.479 3.26162ZM113.955 20.1064L111.36 20.458V6.89233L113.955 6.50243V20.1075V20.1064ZM125.676 6.36552L124.455 9.13648C124.295 9.11243 124.133 9.09962 123.971 9.09814C123.719 9.09814 123.468 9.11786 123.215 9.15619C122.962 9.19452 122.692 9.29309 122.402 9.43C121.86 9.66438 121.394 10.1715 120.988 10.9327C120.538 11.7966 120.305 12.7538 120.309 13.7244V20.0878L117.714 20.4974V6.89233L120.116 6.463V9.29309C120.426 8.80462 120.755 8.31724 121.065 7.81014C121.51 7.30195 122.034 6.93176 122.615 6.716C122.924 6.5999 123.487 6.50133 124.338 6.42357C125.152 6.36552 125.618 6.32609 125.676 6.36552ZM145.008 20.1064L142.412 20.4777V11.167C142.412 10.3073 142.219 9.683 141.831 9.29309C141.444 8.90209 140.862 8.70714 140.106 8.70714C139.197 8.70714 138.499 9.07843 138.034 9.8199C137.724 10.327 137.55 10.8735 137.55 11.42V20.0867L134.954 20.5554V11.2251C134.954 10.4059 134.761 9.78048 134.392 9.35224C134.005 8.92181 133.501 8.70714 132.842 8.70714H132.59C131.68 8.70714 131.02 9.07843 130.614 9.83962C130.304 10.4059 130.15 11.1276 130.15 12.006V20.0867L127.457 20.5554V6.89233L129.878 6.48271V8.21976C130.15 7.80905 130.42 7.47719 130.673 7.2439C131.37 6.5999 132.184 6.28667 133.094 6.28667C134.12 6.28667 134.875 6.44329 135.399 6.77514C135.844 7.04895 136.27 7.59438 136.697 8.37529C137.588 6.98981 138.847 6.28667 140.514 6.28667C142.102 6.28667 143.284 6.77514 144.058 7.77071C144.698 8.58995 145.008 9.80019 145.008 11.3817V20.1064ZM156.866 15.9883C156.866 17.2369 156.421 18.2719 155.53 19.0725C154.639 19.8917 153.515 20.2827 152.159 20.2827C151.132 20.2827 150.221 20.0483 149.388 19.5796C148.555 19.1119 147.936 18.584 147.529 17.9597L149.35 16.3596C149.485 16.5545 149.602 16.71 149.718 16.8272C150.397 17.5107 151.21 17.8622 152.159 17.8622C152.818 17.8622 153.341 17.687 153.709 17.3551C154.096 17.0233 154.271 16.5545 154.271 15.9489C154.271 15.2665 153.825 14.7978 152.935 14.5437C151.171 14.0169 150.221 13.7244 150.086 13.6653C149.272 13.2557 148.691 12.8263 148.323 12.3379C147.916 11.7716 147.704 11.0301 147.704 10.074C147.704 8.9021 148.149 7.92733 149.021 7.14643C149.893 6.36552 150.938 5.99424 152.139 5.99424C153.051 5.99424 153.902 6.18919 154.677 6.5999C155.452 7.00952 156.013 7.43886 156.343 7.94705L154.793 9.60524C154.56 9.37603 154.308 9.16715 154.038 8.98095C153.418 8.55162 152.818 8.33695 152.257 8.33695C151.713 8.33695 151.268 8.45414 150.919 8.68743C150.512 8.98095 150.299 9.41029 150.299 9.97652C150.299 10.523 150.493 10.9327 150.9 11.1868C151.249 11.4014 151.985 11.6358 153.147 11.8888C154.309 12.1626 155.201 12.6314 155.84 13.2951C156.557 13.9971 156.866 14.8755 156.866 15.9883Z" fill="#3E7EF0"/>
</g>
<defs>
<clipPath id="clip0_1_382">
<rect width="157" height="23" fill="white"/>
</clipPath>
</defs>
</svg>
