<svg width="117" height="39" viewBox="0 0 117 39" fill="none" xmlns="http://www.w3.org/2000/svg">
<g clip-path="url(#clip0_1_424)">
<path d="M14.4096 0.00585938H15.4501C19.0621 0.0860509 22.6153 1.56959 25.1674 4.19586C24.2251 5.17821 23.2632 6.12046 22.3405 7.10281C20.9075 5.77965 19.1799 4.7572 17.2954 4.39634C14.5078 3.79491 11.5043 4.3362 9.16819 5.96008C6.61618 7.66415 4.88866 10.551 4.51567 13.6384C4.10342 16.6857 4.94755 19.8933 6.89101 22.259C8.75594 24.5645 11.6024 26.0079 14.547 26.1082C17.2954 26.2686 20.1615 25.4065 22.1638 23.4418C23.7343 22.0585 24.4606 19.9535 24.6962 17.9086C21.4375 17.9086 18.1788 17.9287 14.92 17.9086V13.7787H28.642C29.3487 18.2093 28.3279 23.2012 25.0299 26.3688C22.8313 28.6142 19.7885 29.9373 16.6868 30.198C13.6833 30.4987 10.5816 29.9173 7.91181 28.4337C4.71198 26.6896 2.15997 23.7425 0.903591 20.2743C-0.274261 17.0866 -0.293892 13.478 0.805437 10.2704C1.80661 7.34338 3.73044 4.7572 6.20393 2.9529C8.57926 1.16864 11.465 0.18629 14.4096 0.00585938Z" fill="#3C84FC"/>
<path d="M93.1288 1.04587H97.3298V29.6742C95.9361 29.6742 94.5226 29.6943 93.1288 29.6542C93.1485 20.1314 93.1288 10.5887 93.1288 1.04587V1.04587Z" fill="#3EB03F"/>
<path d="M37.9876 10.9698C40.5789 10.4686 43.3861 11.03 45.5259 12.6138C47.4693 14.0171 48.8239 16.2224 49.2361 18.6281C49.7661 21.4148 49.0987 24.462 47.3319 26.6673C45.4277 29.1332 42.3064 30.4564 39.2636 30.2559C36.4761 30.0955 33.767 28.6721 32.118 26.3465C30.2531 23.7804 29.8016 20.252 30.8224 17.2448C31.8432 14.0171 34.7289 11.5512 37.9876 10.9698V10.9698ZM38.5766 14.7789C37.5165 15.0596 36.5349 15.6811 35.8282 16.5632C33.924 18.8887 34.0418 22.6778 36.1423 24.843C37.3398 26.0859 39.1458 26.6673 40.8145 26.3265C42.3653 26.0458 43.7198 24.9833 44.4658 23.5799C45.7615 21.1942 45.3885 17.9064 43.4057 16.0419C42.1297 14.8391 40.2648 14.3379 38.5766 14.7789Z" fill="#F73B25"/>
<path d="M58.794 10.9694C61.7582 10.388 64.9973 11.23 67.2156 13.3551C70.8277 16.663 71.2203 22.8577 68.1383 26.6668C66.2733 29.0726 63.2502 30.3957 60.2663 30.2554C57.4198 30.1752 54.6126 28.7318 52.9243 26.3461C51.0201 23.7198 50.6079 20.1112 51.6876 17.0439C52.7673 13.9164 55.5941 11.5307 58.794 10.9694V10.9694ZM59.3829 14.7785C58.3228 15.0591 57.3413 15.6806 56.6346 16.5427C54.75 18.8281 54.8285 22.557 56.8505 24.7422C58.048 26.0454 59.9129 26.6869 61.6404 26.326C63.1716 26.0253 64.5458 24.9828 65.2918 23.5795C66.5678 21.1737 66.1948 17.8859 64.1925 16.0214C62.9164 14.8185 61.0515 14.3374 59.3829 14.7785Z" fill="#FBBC2E"/>
<path d="M76.4411 12.1328C78.6986 10.6893 81.7022 10.2883 84.1364 11.5313C84.902 11.8721 85.5302 12.4535 86.1387 13.0349C86.1584 12.4936 86.1387 11.9323 86.1584 11.3709C87.4736 11.391 88.7889 11.3709 90.1238 11.391V29.0732C90.1042 31.7396 89.4367 34.5663 87.5522 36.511C85.4909 38.6561 82.3303 39.3177 79.4839 38.8766C76.4411 38.4155 73.7909 36.1501 72.6131 33.2833C73.7909 32.7019 75.0277 32.2408 76.2448 31.6995C76.9318 33.3434 78.3256 34.7468 80.0728 35.0675C81.8199 35.3883 83.8419 34.9472 84.9805 33.4637C86.1976 31.9401 86.1976 29.8551 86.1387 27.9906C85.2357 28.8928 84.1953 29.6947 82.9389 29.9954C80.2102 30.7773 77.2067 29.815 75.1062 27.9305C72.986 26.046 71.7297 23.139 71.8475 20.2521C71.9063 16.9843 73.7124 13.8368 76.4411 12.1328V12.1328ZM80.5047 14.6989C79.3072 14.8994 78.1882 15.581 77.4226 16.5232C75.5773 18.7686 75.5773 22.3572 77.4423 24.5624C78.5023 25.8655 80.2102 26.5873 81.8592 26.4068C83.41 26.2465 84.8431 25.2441 85.6087 23.8608C86.9043 21.5152 86.6884 18.3275 84.9412 16.2827C83.8615 15.0196 82.134 14.3982 80.5047 14.6989V14.6989Z" fill="#3C84FC"/>
<path d="M102.375 13.1548C104.731 10.9095 108.362 10.1477 111.386 11.3305C114.252 12.4331 116.077 15.2198 117 18.0866C112.74 19.8909 108.5 21.6752 104.24 23.4795C104.829 24.6222 105.732 25.6647 106.949 26.0857C108.657 26.7072 110.698 26.4867 112.132 25.3239C112.701 24.8828 113.152 24.3014 113.584 23.7401C114.664 24.4819 115.744 25.2036 116.823 25.9454C115.292 28.291 112.72 29.9349 109.952 30.1955C106.89 30.5764 103.631 29.3736 101.649 26.9277C98.3899 23.0785 98.704 16.6231 102.375 13.1548V13.1548ZM104.475 16.8637C103.808 17.846 103.533 19.0489 103.553 20.2317C106.399 19.0289 109.246 17.826 112.092 16.6031C111.621 15.4804 110.483 14.7988 109.324 14.6183C107.459 14.2775 105.516 15.3 104.475 16.8637V16.8637Z" fill="#F73B25"/>
</g>
<defs>
<clipPath id="clip0_1_424">
<rect width="117" height="39" fill="white"/>
</clipPath>
</defs>
</svg>
