<svg width="183" height="46" viewBox="0 0 183 46" fill="none" xmlns="http://www.w3.org/2000/svg">
<path d="M19.4219 10.5913C19.5341 10.6481 19.6464 10.7049 19.7306 10.7901L24.5863 15.7024C24.7828 15.9012 24.895 16.1567 24.895 16.4407V39.1C24.895 39.2987 24.7547 39.4407 24.5582 39.4407C24.474 39.4407 24.3898 39.4123 24.3337 39.3555L19.7587 34.7271C19.5622 34.5283 19.4499 34.2728 19.4499 33.9888V10.5913H19.4219Z" fill="url(#paint0_linear_1_405)"/>
<path d="M32.7848 10.8185C32.869 10.7333 32.9813 10.6481 33.0935 10.5913V33.9888C33.0935 34.2728 32.9813 34.5283 32.7848 34.7271L28.2098 39.3555C28.0694 39.4975 27.873 39.4975 27.7326 39.3555C27.6765 39.2987 27.6484 39.2135 27.6484 39.1283V16.4691C27.6484 16.2135 27.7607 15.9296 27.9572 15.7592L32.7848 10.8185Z" fill="url(#paint1_linear_1_405)"/>
<path d="M41.595 28.8212L41.2582 28.4805V23.6533H36.6271C36.5429 23.6533 36.4587 23.6817 36.3745 23.7669L33.0625 27.1175L43.672 37.8792C43.8685 38.078 44.1211 38.1632 44.4018 38.1632H49.9872C50.1837 38.1632 50.324 38.0212 50.324 37.8225C50.324 37.7373 50.2959 37.6521 50.2398 37.5953L41.595 28.8212Z" fill="url(#paint2_linear_1_405)"/>
<path d="M33.485 10.5063C33.2044 10.5063 32.9517 10.6199 32.7553 10.8187L27.8996 15.731C27.8154 15.8162 27.7593 15.9298 27.7031 16.015H41.2597V28.452L41.5965 28.7928L46.4241 23.9372C46.6206 23.7384 46.7329 23.4829 46.7329 23.1989V16.4693C46.7329 16.1854 46.6206 15.9298 46.4241 15.731L41.5685 10.8187C41.372 10.6199 41.1194 10.5063 40.8387 10.5063H33.485Z" fill="url(#paint3_linear_1_405)"/>
<path d="M19.7037 10.8187C19.5073 10.6199 19.2547 10.5063 18.974 10.5063H6.23134C6.03487 10.5063 5.89453 10.6483 5.89453 10.8471C5.89453 10.9323 5.9226 11.0175 6.0068 11.1026L10.5818 15.731C10.7783 15.9298 11.0309 16.0434 11.3116 16.0434H24.2226C24.5875 16.0434 24.8962 16.3557 24.8962 16.7249V16.4693C24.8962 16.1854 24.7839 15.9298 24.5875 15.731L19.7037 10.8187Z" fill="url(#paint4_linear_1_405)"/>
<path d="M32.7567 10.8187C32.9532 10.6199 33.2058 10.5063 33.4865 10.5063H40.8402C41.1208 10.5063 41.3734 10.6199 41.5699 10.8187L46.4256 15.731C46.6221 15.9298 46.7343 16.1854 46.7343 16.4693V16.7249C46.7343 16.3557 46.4256 16.0434 46.0607 16.0434H28.3221C27.9572 16.0434 27.6484 16.3557 27.6484 16.7249V16.4693C27.6484 16.1854 27.7607 15.9298 27.9572 15.731L32.7567 10.8187Z" fill="url(#paint5_linear_1_405)"/>
<path d="M46.7342 22.9434C46.7342 23.3125 46.4255 23.6248 46.0606 23.6248H36.9106C36.8264 23.6248 36.7422 23.71 36.7422 23.7952C36.7422 23.852 36.7703 23.8804 36.7983 23.9088L41.6259 28.7927L46.4536 23.9372C46.65 23.7384 46.7623 23.4829 46.7623 23.1989V22.9434H46.7342Z" fill="url(#paint6_linear_1_405)"/>
<path d="M174.301 29.0196C174.301 26.6912 172.981 25.811 169.754 24.9875C167.817 24.5048 167.312 24.1073 167.312 23.4258C167.312 22.7443 167.929 22.29 169.192 22.29C170.596 22.3468 171.943 22.7159 173.178 23.3974L173.571 20.8987C172.196 20.3024 170.708 20.0184 169.192 20.0184C166.273 20.0184 164.561 21.5233 164.561 23.6246C164.561 25.8962 165.824 26.748 168.856 27.5147C170.961 28.0258 171.55 28.3666 171.55 29.2752C171.55 30.0987 170.736 30.6098 169.305 30.6098C167.677 30.553 166.077 30.0703 164.674 29.1616L164.281 31.6888C165.796 32.4554 167.48 32.853 169.164 32.8814C172.532 32.8814 174.301 31.4332 174.301 29.0196ZM162.821 32.6258V20.1888H159.846V28.6221C158.864 29.5875 157.825 30.2122 156.787 30.2122C155.58 30.2122 155.074 29.474 155.074 28.3666V20.1604H152.099V29.1332C152.099 31.4332 153.362 32.8246 155.776 32.8246C157.46 32.8246 158.835 31.9443 160.042 30.8369L160.463 32.569L162.821 32.6258ZM150.303 32.6258V20.1888H147.356V32.6258H150.303ZM148.843 14.7369C149.798 14.7369 150.556 15.5036 150.556 16.469C150.556 17.4345 149.798 18.2011 148.843 18.2011C147.889 18.2011 147.131 17.4345 147.131 16.469C147.131 15.5036 147.889 14.7369 148.843 14.7369ZM142.641 28.4801C141.77 29.5591 140.816 30.2406 139.609 30.2406C138.122 30.2406 137.027 29.0764 137.027 26.6344C137.027 23.9085 138.318 22.574 140.058 22.574C140.956 22.5456 141.855 22.7443 142.641 23.1135V28.4801ZM145.588 32.6258V14.1406L142.641 14.6517V20.6431C141.686 20.3308 140.676 20.1604 139.637 20.1604C136.662 20.1604 134.024 22.2048 134.024 26.8048C134.024 30.9505 136.185 32.8814 138.879 32.8814C140.676 32.8814 141.911 31.9727 142.837 30.9221L143.09 32.6258H145.588ZM129.842 29.2184C129 30.0703 127.877 30.553 126.698 30.6098C125.688 30.6098 125.042 30.0419 125.042 29.1616C125.042 27.969 125.968 26.9184 129.87 26.4641V29.2184H129.842ZM132.789 32.6258V24.1641C132.789 21.2394 131.217 20.0468 127.961 20.0468C126.249 20.0468 124.537 20.3875 122.965 21.0406L123.33 23.4258C124.677 22.8295 126.137 22.4888 127.624 22.432C129.028 22.432 129.87 22.9431 129.87 24.2777V24.6752C124.649 25.1863 122.123 26.4641 122.123 29.4456C122.123 31.5752 123.583 32.853 125.772 32.853C127.4 32.853 128.944 32.1715 130.066 31.0073L130.347 32.5974H132.789V32.6258ZM121.618 32.1715L116.903 25.669C119.036 24.9875 120.439 23.4826 120.439 21.0406C120.439 17.8604 118.166 16.0431 114.405 16.0431H109.212V32.6258H112.272V26.2085H113.759L118.362 32.7678L121.618 32.1715ZM117.38 21.211C117.38 22.9431 116.089 23.8801 114.012 23.8801H112.272V18.5987H114.18C116.285 18.627 117.38 19.5641 117.38 21.211ZM107.668 32.6258L107.304 30.1554C106.967 30.2122 106.602 30.2406 106.237 30.2406C105.03 30.2406 104.553 29.7011 104.553 28.6789V22.6024H107.668L107.163 20.1888H104.553V15.8727L101.634 16.3838V20.1888H99.6412V22.6024H101.634V29.1616C101.634 31.9443 103.262 32.7962 105.704 32.7962C106.377 32.8246 107.023 32.7678 107.668 32.6258ZM99.0237 29.0196C99.0237 26.6912 97.7045 25.811 94.4767 24.9875C92.5401 24.5048 92.0349 24.1073 92.0349 23.4258C92.0349 22.7443 92.6524 22.29 93.9154 22.29C95.3188 22.3468 96.666 22.7159 97.901 23.3974L98.322 20.8987C96.9467 20.3024 95.4591 20.0184 93.9435 20.0184C91.0244 20.0184 89.3123 21.5233 89.3123 23.6246C89.3123 25.8962 90.5754 26.748 93.6067 27.5147C95.7117 28.0258 96.3011 28.3666 96.3011 29.2752C96.3011 30.0987 95.4872 30.6098 94.0557 30.6098C92.4278 30.553 90.856 30.0703 89.4807 29.1616L89.0597 31.6888C90.5754 32.4554 92.2594 32.853 93.9715 32.8814C97.2554 32.8814 99.0237 31.4332 99.0237 29.0196ZM87.7125 32.6258V20.1888H84.7373V28.6221C83.755 29.5875 82.7165 30.2122 81.678 30.2122C80.4711 30.2122 79.9659 29.474 79.9659 28.3666V20.1604H76.9907V29.1332C76.9907 31.4332 78.2537 32.8246 80.6675 32.8246C82.3516 32.8246 83.7269 31.9443 84.9338 30.8369L85.3548 32.569L87.7125 32.6258ZM75.5873 22.9431L74.9137 20.0184C73.0332 20.3591 71.9105 21.353 71.0404 22.7727L70.4791 20.1888H68.2617V32.6258H71.1527V25.527C72.135 24.0221 73.791 23.0567 75.5873 22.9431Z" fill="url(#paint7_linear_1_405)"/>
<path d="M70.1142 18.7973L69.4406 16.043H54.9297V18.7973H60.4028V32.6257H63.4622V18.7973H70.1142Z" fill="url(#paint8_linear_1_405)"/>
<defs>
<linearGradient id="paint0_linear_1_405" x1="22.1449" y1="39.5383" x2="22.1449" y2="10.5201" gradientUnits="userSpaceOnUse">
<stop offset="0.71" stop-color="#116BF2"/>
<stop offset="1" stop-color="#1E50E5"/>
</linearGradient>
<linearGradient id="paint1_linear_1_405" x1="30.3424" y1="39.5438" x2="30.3424" y2="10.528" gradientUnits="userSpaceOnUse">
<stop offset="0.71" stop-color="#116BF2"/>
<stop offset="1" stop-color="#1E50E5"/>
</linearGradient>
<linearGradient id="paint2_linear_1_405" x1="36.0622" y1="24.2424" x2="49.534" y2="37.5588" gradientUnits="userSpaceOnUse">
<stop offset="0.41" stop-color="#116BF2"/>
<stop offset="1" stop-color="#185DEC"/>
</linearGradient>
<linearGradient id="paint3_linear_1_405" x1="37.2148" y1="28.7225" x2="37.2148" y2="10.3167" gradientUnits="userSpaceOnUse">
<stop offset="0.58" stop-color="#116BF2"/>
<stop offset="1" stop-color="#1E50E5"/>
</linearGradient>
<linearGradient id="paint4_linear_1_405" x1="18.8943" y1="10.1673" x2="13.3674" y2="15.6305" gradientUnits="userSpaceOnUse">
<stop offset="0.03" stop-color="#59C5FF"/>
<stop offset="0.99" stop-color="#21B1FF"/>
</linearGradient>
<linearGradient id="paint5_linear_1_405" x1="32.2401" y1="11.3922" x2="37.767" y2="16.8554" gradientUnits="userSpaceOnUse">
<stop offset="0.04" stop-color="#59C5FF"/>
<stop offset="0.99" stop-color="#21B1FF"/>
</linearGradient>
<linearGradient id="paint6_linear_1_405" x1="44.4151" y1="26.1275" x2="40.2699" y2="22.0301" gradientUnits="userSpaceOnUse">
<stop offset="0.04" stop-color="#57C4FF"/>
<stop offset="0.99" stop-color="#21B1FF"/>
</linearGradient>
<linearGradient id="paint7_linear_1_405" x1="68.2447" y1="23.5043" x2="174.3" y2="23.5043" gradientUnits="userSpaceOnUse">
<stop offset="0.71" stop-color="#116BF2"/>
<stop offset="1" stop-color="#1E50E5"/>
</linearGradient>
<linearGradient id="paint8_linear_1_405" x1="54.9277" y1="24.3246" x2="70.1194" y2="24.3246" gradientUnits="userSpaceOnUse">
<stop offset="0.71" stop-color="#116BF2"/>
<stop offset="1" stop-color="#1E50E5"/>
</linearGradient>
</defs>
</svg>
