<svg width="22" height="25" viewBox="0 0 22 25" fill="none" xmlns="http://www.w3.org/2000/svg">
<path d="M9.23795 1.00005C8.19125 1.00005 7.16806 1.31038 6.29776 1.8919C5.42746 2.47341 4.74917 3.29996 4.34862 4.26699C3.94806 5.23401 3.84322 6.29813 4.04742 7.32472C4.25162 8.35131 4.75571 9.2943 5.49584 10.0344C6.23597 10.7746 7.17895 11.2786 8.20555 11.4828C9.23214 11.687 10.2962 11.5822 11.2632 11.1816C12.2302 10.7811 13.0568 10.1027 13.6383 9.23244C14.2198 8.36214 14.5302 7.33895 14.5302 6.29225C14.5331 5.59645 14.3982 4.90697 14.1332 4.26358C13.8683 3.6202 13.4786 3.03566 12.9866 2.54366C12.4946 2.05165 11.91 1.66191 11.2666 1.39697C10.6232 1.13204 9.93375 0.997154 9.23795 1.00005V1.00005Z" stroke="#C4ECB0" stroke-miterlimit="10" stroke-linecap="round" stroke-linejoin="round"/>
<path d="M9.39206 22.2862H1.78773C1.67779 22.2869 1.56893 22.2645 1.46825 22.2204C1.36757 22.1762 1.27735 22.1113 1.20341 22.03C1.12948 21.9486 1.07352 21.8526 1.03917 21.7482C1.00482 21.6438 0.992869 21.5332 1.00408 21.4238C1.20731 19.3711 2.16651 17.4673 3.69524 16.0825C5.22398 14.6976 7.21303 13.9307 9.27577 13.9307C10.4973 13.9307 11.693 14.1996 12.7825 14.7066" stroke="#C4ECB0" stroke-miterlimit="10" stroke-linecap="round" stroke-linejoin="round"/>
<path d="M20.6373 17.0459V24.0004" stroke="#6369D1" stroke-linecap="round" stroke-linejoin="round"/>
<path d="M18.4971 24.0004L15.2874 17.0459L12.0776 24.0004" stroke="#6369D1" stroke-linecap="round" stroke-linejoin="round"/>
<path d="M13.1482 21.8604H17.4279" stroke="#6369D1" stroke-linecap="round" stroke-linejoin="round"/>
</svg>
