<svg width="33" height="33" viewBox="0 0 33 33" fill="none" xmlns="http://www.w3.org/2000/svg">
<rect x="1" width="32" height="32" rx="10" transform="rotate(0.261123 1 0)" fill="#F0F4F8"/>
<path d="M17.8043 23.7463C17.095 24.6382 16.5752 25.2177 16.5047 25.2957C16.2713 25.554 15.8651 25.5526 15.6337 25.2917C15.3873 25.014 9.60035 18.4387 9.62068 13.9778C9.63706 10.3833 12.5662 7.47227 16.1503 7.48861C19.7344 7.50494 22.6369 10.4426 22.6205 14.0371C22.6143 15.4138 22.053 16.9869 21.2727 18.5121M16.1057 17.2872C14.3024 17.279 12.8421 15.801 12.8504 13.9925C12.8586 12.184 14.3324 10.7194 16.1356 10.7277C17.9388 10.7359 19.3991 12.2139 19.3908 14.0224C19.3826 15.8309 17.9089 17.2955 16.1057 17.2872Z" stroke="#11292C"/>
<circle cx="20.8336" cy="22.01" r="3.49999" transform="rotate(0.261123 20.8336 22.01)" stroke="#11292C"/>
<path d="M19.5133 22.0036L20.449 22.9412L22.3175 21.0831" stroke="#11292C" stroke-miterlimit="10" stroke-linecap="round" stroke-linejoin="round"/>
</svg>
