<svg width="33" height="33" viewBox="0 0 33 33" fill="none" xmlns="http://www.w3.org/2000/svg">
<rect x="1" width="32" height="32" rx="10" transform="rotate(0.261123 1 0)" fill="#F0F4F8"/>
<path d="M22.4339 15.651V14.8019C22.4339 11.5976 19.8363 9 16.632 9V9C13.4277 9 10.8301 11.5976 10.8301 14.8019V20.6038" stroke="#11292C" stroke-linecap="round"/>
<path d="M22.4336 15.5087L22.4336 20.7712C22.4336 21.9288 21.4952 22.8672 20.3376 22.8672L18.4713 22.8672" stroke="#11292C"/>
<path d="M8 17.7736C8 16.2105 9.26712 14.9434 10.8302 14.9434V14.9434V20.6038V20.6038C9.26712 20.6038 8 19.3366 8 17.7736V17.7736Z" stroke="#11292C" stroke-linejoin="round"/>
<path d="M22.4335 20.6035V20.6035C23.9966 20.6035 25.2637 19.3364 25.2637 17.7733L25.2637 17.4903C25.2637 15.9272 23.9966 14.6601 22.4335 14.6601V14.6601" stroke="#11292C"/>
<circle cx="17.3391" cy="22.8684" r="1.13208" stroke="#11292C"/>
</svg>
