<svg width="27" height="27" viewBox="0 0 27 27" fill="none" xmlns="http://www.w3.org/2000/svg">
<path d="M13.3412 25.6825C20.1571 25.6825 25.6825 20.1571 25.6825 13.3412C25.6825 6.52536 20.1571 1 13.3412 1C6.52536 1 1 6.52536 1 13.3412C1 20.1571 6.52536 25.6825 13.3412 25.6825Z" stroke="#C4ECB0" stroke-miterlimit="10"/>
<path d="M13.3403 19.8143C16.9153 19.8143 19.8134 16.9162 19.8134 13.3413C19.8134 9.76626 16.9153 6.86816 13.3403 6.86816C9.76529 6.86816 6.86719 9.76626 6.86719 13.3413C6.86719 16.9162 9.76529 19.8143 13.3403 19.8143Z" stroke="white" stroke-miterlimit="10"/>
<path d="M13.3418 13.3428L23.3696 23.3706" stroke="#6369D1" stroke-miterlimit="10" stroke-linecap="round"/>
<path d="M23.3797 25.6851L23.5463 23.5459L25.6855 23.8469" stroke="#6369D1" stroke-miterlimit="10" stroke-linecap="round"/>
</svg>
