<svg width="500" height="500" viewBox="0 0 500 500" fill="none" xmlns="http://www.w3.org/2000/svg">
<rect width="500" height="500" rx="20" fill="white"/>
<path d="M386.619 45H390.54V69.2553H386.619V45Z" fill="#17313B"/>
<path d="M404.178 61.5698C404.178 65.3277 401.109 65.6693 400.086 65.6693C397.7 65.6693 397.359 63.4487 397.359 62.253V52.8584H393.438V62.0822C393.438 64.3028 394.12 66.3525 395.484 67.5482C396.677 68.7439 398.211 69.2563 400.086 69.2563C401.45 69.2563 403.155 68.9147 404.178 67.8898V69.2563H408.099V52.8584H404.178V61.5698Z" fill="#17313B"/>
<path d="M415.77 46.8789H411.849V52.8573H408.951V56.6152H411.849V69.2553H415.77V56.6152H418.668V52.8573H415.77V46.8789Z" fill="#17313B"/>
<path d="M430.941 64.3016C430.089 64.9849 428.895 65.4973 427.702 65.4973C424.974 65.4973 423.099 63.4476 423.099 60.7146C423.099 57.9816 424.974 56.1027 427.702 56.1027C428.895 56.1027 430.089 56.4443 430.941 57.2984L431.452 57.8108L434.18 55.2486L433.498 54.7362C431.964 53.3697 429.918 52.5156 427.702 52.5156C422.929 52.5156 419.349 56.1027 419.349 60.8854C419.349 65.6681 422.929 69.2552 427.702 69.2552C429.918 69.2552 431.964 68.4011 433.498 67.0346L434.18 66.5222L431.452 63.7892L430.941 64.3016Z" fill="#17313B"/>
<path d="M447.989 54.2238C446.795 53.0282 445.602 52.5157 443.727 52.5157C442.363 52.5157 440.999 52.8573 439.976 53.8822V45H436.056V69.2553H439.976V60.2023C439.976 56.4444 442.534 56.1028 443.556 56.1028C445.943 56.1028 445.772 58.3233 445.772 59.519V69.0845H449.693V59.6898C449.693 57.4693 449.182 55.4195 447.989 54.2238Z" fill="#17313B"/>
<path d="M427.532 63.6183C429.039 63.6183 430.26 62.3947 430.26 60.8853C430.26 59.3759 429.039 58.1523 427.532 58.1523C426.026 58.1523 424.805 59.3759 424.805 60.8853C424.805 62.3947 426.026 63.6183 427.532 63.6183Z" fill="#EF4335"/>
<path d="M381.164 63.2766C379.8 64.6431 377.755 65.4971 375.539 65.4971C371.277 65.4971 368.208 62.0809 368.208 57.469C368.208 52.857 371.277 49.4408 375.709 49.4408C377.755 49.4408 379.8 50.2949 381.335 51.8322L381.846 52.3446L384.403 49.7824L383.892 49.27C381.676 47.0494 378.778 45.8538 375.709 45.8538C369.231 45.6829 364.458 50.8073 364.458 57.469C364.458 64.1306 369.231 69.255 375.539 69.255C378.607 69.255 381.676 68.0593 383.721 65.8387L384.233 65.3263L381.676 62.7641L381.164 63.2766Z" fill="#17313B"/>
<circle cx="64.6426" cy="157.68" r="13" fill="#4184C8"/>
<path d="M65.2761 152.498V162.68H64.0431V153.79H63.9835L61.4977 155.441V154.188L64.0431 152.498H65.2761Z" fill="white"/>
<circle cx="64.6426" cy="195.68" r="13" fill="#4E92A8"/>
<circle cx="64.6426" cy="271.68" r="13" fill="#65A77F"/>
<circle cx="286.643" cy="195.68" r="13" fill="#7DC7AE"/>
<circle cx="64.6426" cy="347.68" r="13" fill="#57B1DD"/>
<circle cx="286.643" cy="271.68" r="13" fill="#193CAD"/>
<circle cx="64.6426" cy="233.68" r="13" fill="#5A9E91"/>
<circle cx="64.6426" cy="309.68" r="13" fill="#78B762"/>
<circle cx="286.643" cy="233.68" r="13" fill="#92D182"/>
<circle cx="64.6426" cy="385.68" r="13" fill="#65B9CA"/>
<circle cx="286.643" cy="309.68" r="13" fill="#2D6457"/>
<circle cx="286.643" cy="385.68" r="13" fill="#34733F"/>
<circle cx="64.6426" cy="423.68" r="13" fill="#71C1BC"/>
<circle cx="286.643" cy="347.68" r="13" fill="#24537A"/>
<circle cx="286.643" cy="423.68" r="13" fill="#428D37"/>
<path d="M61.6957 200.68H68.119V199.586H63.386V199.506L65.6729 197.06C67.4229 195.186 67.94 194.311 67.94 193.183C67.94 191.612 66.6673 190.359 64.8775 190.359C63.0927 190.359 61.7354 191.572 61.7354 193.362H62.9087C62.9087 192.203 63.6594 191.433 64.8377 191.433C65.9414 191.433 66.7866 192.109 66.7866 193.183C66.7866 194.122 66.2347 194.818 65.0565 196.106L61.6957 199.785V200.68Z" fill="white"/>
<path d="M60.457 274.592H65.2496V276.68H66.4229V274.592H67.815V273.498H66.4229V266.498H64.9315L60.457 273.577V274.592ZM65.2496 273.498H61.7894V273.418L65.1701 268.069H65.2496V273.498Z" fill="white"/>
<path d="M286.937 190.359C284.869 190.334 283.537 191.89 283.537 193.759C283.537 195.728 284.988 197.14 286.738 197.14C287.792 197.14 288.687 196.623 289.244 195.788H289.324C289.324 198.293 288.349 199.725 286.778 199.725C285.704 199.725 285.048 199.049 284.829 198.114H283.616C283.855 199.725 285.068 200.819 286.778 200.819C289.065 200.819 290.477 198.791 290.477 195.171C290.477 191.433 288.608 190.379 286.937 190.359ZM286.937 191.452C288.21 191.452 289.145 192.546 289.145 193.739C289.145 194.952 288.15 196.046 286.897 196.046C285.645 196.046 284.73 195.032 284.73 193.759C284.73 192.487 285.684 191.452 286.937 191.452Z" fill="white"/>
<path d="M65.0763 352.819C67.1346 352.844 68.4769 351.293 68.4769 349.398C68.4769 347.43 67.0202 346.018 65.2752 346.018C64.2262 346.018 63.3263 346.53 62.7695 347.37H62.69C62.695 344.889 63.6594 343.452 65.2354 343.452C66.3093 343.452 66.9556 344.129 67.1843 345.043H68.3974C68.1488 343.462 66.9457 342.359 65.2354 342.359C62.9435 342.359 61.5366 344.387 61.5366 347.987C61.5366 351.75 63.4059 352.799 65.0763 352.819ZM65.0763 351.725C63.7987 351.725 62.864 350.636 62.869 349.418C62.8739 348.2 63.8533 347.112 65.1161 347.112C66.364 347.112 67.2837 348.136 67.2837 349.398C67.2837 350.691 66.3242 351.725 65.0763 351.725Z" fill="white"/>
<path d="M284.275 266.498H283.042L280.497 268.188V269.441L282.983 267.791H283.042V276.68H284.275V266.498Z" fill="white"/>
<path d="M290.783 266.498H289.55L287.005 268.188V269.441L289.49 267.791H289.55V276.68H290.783V266.498Z" fill="white"/>
<path d="M65.136 238.819C67.1097 238.819 68.5763 237.581 68.5763 235.916C68.5763 234.623 67.8107 233.683 66.5281 233.469V233.39C67.5572 233.077 68.1985 232.232 68.1985 231.083C68.1985 229.641 67.06 228.359 65.1758 228.359C63.4158 228.359 61.9542 229.442 61.8945 231.043H63.0877C63.1325 230.029 64.0969 229.433 65.1559 229.433C66.2795 229.433 67.0053 230.114 67.0053 231.143C67.0053 232.217 66.1651 232.913 64.957 232.913H64.1417V234.006H64.957C66.5032 234.006 67.3633 234.792 67.3633 235.916C67.3633 236.994 66.4237 237.725 65.1161 237.725C63.9379 237.725 63.0032 237.119 62.9286 236.134H61.6758C61.7504 237.735 63.1623 238.819 65.136 238.819Z" fill="white"/>
<path d="M64.8775 314.819C66.8164 314.819 68.2383 313.387 68.2383 311.438C68.2383 309.465 66.8661 308.018 64.9968 308.018C64.3107 308.018 63.6445 308.261 63.2269 308.594H63.1673L63.5252 305.592H67.7809V304.498H62.4911L61.8746 309.509L63.0281 309.648C63.4506 309.345 64.1715 309.126 64.7979 309.131C66.0955 309.141 67.0451 310.126 67.0451 311.458C67.0451 312.766 66.1303 313.725 64.8775 313.725C63.8335 313.725 63.0032 313.054 62.9087 312.134H61.7156C61.7901 313.685 63.1275 314.819 64.8775 314.819Z" fill="white"/>
<path d="M283.275 228.498H282.042L279.497 230.188V231.441L281.983 229.791H282.042V238.68H283.275V228.498Z" fill="white"/>
<path d="M289.525 238.819C291.772 238.819 293.064 236.915 293.064 233.589C293.064 230.288 291.752 228.359 289.525 228.359C287.297 228.359 285.985 230.288 285.985 233.589C285.985 236.915 287.277 238.819 289.525 238.819ZM289.525 237.725C288.043 237.725 287.178 236.239 287.178 233.589C287.178 230.944 288.053 229.433 289.525 229.433C290.996 229.433 291.871 230.944 291.871 233.589C291.871 236.239 291.006 237.725 289.525 237.725Z" fill="white"/>
<path d="M62.0138 390.68H63.3065L67.8406 381.651V380.498H61.3178V381.592H66.5678V381.671L62.0138 390.68Z" fill="white"/>
<path d="M284.275 304.498H283.042L280.497 306.188V307.441L282.983 305.791H283.042V314.68H284.275V304.498Z" fill="white"/>
<path d="M287.203 314.68H293.627V313.586H288.894V313.506L291.181 311.06C292.931 309.186 293.448 308.311 293.448 307.183C293.448 305.612 292.175 304.359 290.385 304.359C288.6 304.359 287.243 305.572 287.243 307.362H288.417C288.417 306.203 289.167 305.433 290.346 305.433C291.449 305.433 292.294 306.109 292.294 307.183C292.294 308.122 291.743 308.818 290.564 310.106L287.203 313.785V314.68Z" fill="white"/>
<path d="M283.275 380.498H282.042L279.497 382.188V383.441L281.983 381.79H282.042V390.68H283.275V380.498Z" fill="white"/>
<path d="M285.965 388.592H290.757V390.68H291.931V388.592H293.323V387.498H291.931V380.498H290.439L285.965 387.577V388.592ZM290.757 387.498H287.297V387.418L290.678 382.069H290.757V387.498Z" fill="white"/>
<path d="M64.957 428.819C66.9904 428.819 68.4073 427.631 68.4173 425.975C68.4073 424.688 67.5472 423.594 66.4485 423.39V423.33C67.4031 423.082 68.0295 422.147 68.0394 421.063C68.0295 419.512 66.7269 418.359 64.957 418.359C63.1673 418.359 61.8647 419.512 61.8746 421.063C61.8647 422.147 62.4911 423.082 63.4656 423.33V423.39C62.3469 423.594 61.4869 424.688 61.4968 425.975C61.4869 427.631 62.9038 428.819 64.957 428.819ZM64.957 427.725C63.56 427.725 62.6999 427.009 62.7099 425.915C62.6999 424.767 63.6495 423.947 64.957 423.947C66.2447 423.947 67.1942 424.767 67.2042 425.915C67.1942 427.009 66.3342 427.725 64.957 427.725ZM64.957 422.893C63.8434 422.893 63.0579 422.197 63.0678 421.143C63.0579 420.109 63.8136 419.433 64.957 419.433C66.0806 419.433 66.8363 420.109 66.8462 421.143C66.8363 422.197 66.0508 422.893 64.957 422.893Z" fill="white"/>
<path d="M283.275 342.498H282.042L279.497 344.188V345.441L281.983 343.79H282.042V352.68H283.275V342.498Z" fill="white"/>
<path d="M289.644 352.819C291.618 352.819 293.084 351.581 293.084 349.915C293.084 348.623 292.319 347.683 291.036 347.469V347.39C292.065 347.077 292.706 346.232 292.706 345.083C292.706 343.641 291.568 342.359 289.684 342.359C287.924 342.359 286.462 343.442 286.402 345.043H287.596C287.64 344.029 288.605 343.433 289.664 343.433C290.787 343.433 291.513 344.114 291.513 345.143C291.513 346.217 290.673 346.913 289.465 346.913H288.65V348.006H289.465C291.011 348.006 291.871 348.792 291.871 349.915C291.871 350.994 290.931 351.725 289.624 351.725C288.446 351.725 287.511 351.119 287.436 350.134H286.184C286.258 351.735 287.67 352.819 289.644 352.819Z" fill="white"/>
<path d="M283.275 418.498H282.042L279.497 420.188V421.441L281.983 419.79H282.042V428.68H283.275V418.498Z" fill="white"/>
<path d="M289.385 428.819C291.324 428.819 292.746 427.387 292.746 425.438C292.746 423.464 291.374 422.018 289.505 422.018C288.819 422.018 288.152 422.261 287.735 422.594H287.675L288.033 419.592H292.289V418.498H286.999L286.382 423.509L287.536 423.648C287.958 423.345 288.679 423.126 289.306 423.131C290.603 423.141 291.553 424.126 291.553 425.458C291.553 426.766 290.638 427.725 289.385 427.725C288.341 427.725 287.511 427.054 287.417 426.134H286.223C286.298 427.685 287.635 428.819 289.385 428.819Z" fill="white"/>
<rect opacity="0.05" x="94.6426" y="188.68" width="132" height="15" rx="2" fill="#032E9B"/>
<rect opacity="0.05" x="94.6426" y="264.68" width="132" height="15" rx="2" fill="#032E9B"/>
<rect opacity="0.05" x="316.643" y="188.68" width="132" height="15" rx="2" fill="#032E9B"/>
<rect opacity="0.05" x="94.6426" y="378.68" width="132" height="15" rx="2" fill="#032E9B"/>
<rect opacity="0.05" x="316.643" y="302.68" width="132" height="15" rx="2" fill="#032E9B"/>
<rect opacity="0.05" x="316.643" y="378.68" width="132" height="15" rx="2" fill="#032E9B"/>
<rect opacity="0.05" x="94.6426" y="226.68" width="132" height="15" rx="2" fill="#032E9B"/>
<rect opacity="0.05" x="94.6426" y="340.68" width="132" height="15" rx="2" fill="#032E9B"/>
<rect opacity="0.05" x="316.643" y="264.68" width="132" height="15" rx="2" fill="#032E9B"/>
<rect opacity="0.05" x="94.6426" y="301.68" width="132" height="15" rx="2" fill="#032E9B"/>
<rect opacity="0.05" x="316.643" y="225.68" width="132" height="15" rx="2" fill="#032E9B"/>
<rect opacity="0.05" x="94.6426" y="415.68" width="132" height="15" rx="2" fill="#032E9B"/>
<rect opacity="0.05" x="316.643" y="339.68" width="132" height="15" rx="2" fill="#032E9B"/>
<rect opacity="0.05" x="316.643" y="415.68" width="132" height="15" rx="2" fill="#032E9B"/>
<path d="M103.806 155.535C103.543 153.352 101.89 152.096 99.7017 152.096C97.2042 152.096 95.2976 153.86 95.2976 156.953C95.2976 160.037 97.1719 161.809 99.7017 161.809C102.125 161.809 103.589 160.198 103.806 158.458L101.784 158.448C101.594 159.459 100.8 160.041 99.734 160.041C98.2983 160.041 97.3242 158.975 97.3242 156.953C97.3242 154.986 98.2844 153.864 99.7479 153.864C100.842 153.864 101.631 154.497 101.784 155.535H103.806Z" fill="black"/>
<path d="M107.238 152.225H105.239V161.68H107.238V152.225Z" fill="black"/>
<path d="M108.883 161.68H115.272V160.032H110.882V157.774H114.926V156.126H110.882V153.874H115.253V152.225H108.883V161.68Z" fill="black"/>
<path d="M124.751 152.225H122.761V158.171H122.678L118.597 152.225H116.843V161.68H118.842V155.729H118.911L123.024 161.68H124.751V152.225Z" fill="black"/>
<path d="M134.744 155.535C134.481 153.352 132.828 152.096 130.64 152.096C128.143 152.096 126.236 153.86 126.236 156.953C126.236 160.037 128.11 161.809 130.64 161.809C133.064 161.809 134.527 160.198 134.744 158.458L132.722 158.448C132.533 159.459 131.739 160.041 130.672 160.041C129.237 160.041 128.263 158.975 128.263 156.953C128.263 154.986 129.223 153.864 130.686 153.864C131.78 153.864 132.57 154.497 132.722 155.535H134.744Z" fill="black"/>
<path d="M136.178 161.68H142.567V160.032H138.177V157.774H142.221V156.126H138.177V153.874H142.548V152.225H136.178V161.68Z" fill="black"/>
<path d="M146.786 153.874H149.681V161.68H151.657V153.874H154.551V152.225H146.786V153.874Z" fill="black"/>
<path d="M155.83 161.68H162.219V160.032H157.829V157.774H161.873V156.126H157.829V153.874H162.201V152.225H155.83V161.68Z" fill="black"/>
<path d="M172.132 155.535C171.869 153.352 170.216 152.096 168.028 152.096C165.53 152.096 163.624 153.86 163.624 156.953C163.624 160.037 165.498 161.809 168.028 161.809C170.452 161.809 171.915 160.198 172.132 158.458L170.11 158.448C169.921 159.459 169.127 160.041 168.06 160.041C166.624 160.041 165.65 158.975 165.65 156.953C165.65 154.986 166.611 153.864 168.074 153.864C169.168 153.864 169.958 154.497 170.11 155.535H172.132Z" fill="black"/>
<path d="M173.565 161.68H175.564V157.774H179.622V161.68H181.616V152.225H179.622V156.126H175.564V152.225H173.565V161.68Z" fill="black"/>
<path d="M191.173 152.225H189.183V158.171H189.1L185.019 152.225H183.265V161.68H185.263V155.729H185.333L189.446 161.68H191.173V152.225Z" fill="black"/>
<path d="M201.512 156.953C201.512 153.86 199.592 152.096 197.085 152.096C194.565 152.096 192.658 153.86 192.658 156.953C192.658 160.032 194.565 161.809 197.085 161.809C199.592 161.809 201.512 160.046 201.512 156.953ZM199.486 156.953C199.486 158.956 198.535 160.041 197.085 160.041C195.631 160.041 194.685 158.956 194.685 156.953C194.685 154.949 195.631 153.864 197.085 153.864C198.535 153.864 199.486 154.949 199.486 156.953Z" fill="black"/>
<path d="M202.993 161.68H209.045V160.032H204.992V152.225H202.993V161.68Z" fill="black"/>
<path d="M218.689 156.953C218.689 153.86 216.769 152.096 214.262 152.096C211.741 152.096 209.835 153.86 209.835 156.953C209.835 160.032 211.741 161.809 214.262 161.809C216.769 161.809 218.689 160.046 218.689 156.953ZM216.662 156.953C216.662 158.956 215.711 160.041 214.262 160.041C212.808 160.041 211.861 158.956 211.861 156.953C211.861 154.949 212.808 153.864 214.262 153.864C215.711 153.864 216.662 154.949 216.662 156.953Z" fill="black"/>
<path d="M226.439 155.282H228.47C228.212 153.412 226.564 152.096 224.426 152.096C221.929 152.096 220.004 153.897 220.004 156.962C220.004 159.953 221.804 161.809 224.468 161.809C226.854 161.809 228.558 160.3 228.558 157.811V156.62H224.602V158.125H226.633C226.605 159.298 225.807 160.041 224.477 160.041C222.977 160.041 222.03 158.919 222.03 156.943C222.03 154.977 223.014 153.864 224.459 153.864C225.488 153.864 226.185 154.395 226.439 155.282Z" fill="black"/>
<path d="M232.058 152.225H230.059V161.68H232.058V152.225Z" fill="black"/>
<path d="M233.703 161.68H240.092V160.032H235.702V157.774H239.746V156.126H235.702V153.874H240.074V152.225H233.703V161.68Z" fill="black"/>
<path d="M246.792 154.945H248.708C248.68 153.26 247.295 152.096 245.19 152.096C243.117 152.096 241.598 153.241 241.608 154.958C241.603 156.353 242.586 157.151 244.184 157.534L245.213 157.793C246.243 158.042 246.815 158.338 246.82 158.975C246.815 159.667 246.159 160.138 245.144 160.138C244.105 160.138 243.357 159.658 243.293 158.712H241.358C241.409 160.757 242.873 161.814 245.167 161.814C247.475 161.814 248.832 160.711 248.837 158.979C248.832 157.405 247.646 156.57 246.002 156.2L245.153 155.997C244.331 155.808 243.643 155.503 243.657 154.825C243.657 154.215 244.197 153.767 245.176 153.767C246.132 153.767 246.718 154.201 246.792 154.945Z" fill="black"/>
<path d="M50 58.68C50 57.3067 50.3067 56.08 50.92 55C51.5467 53.9067 52.3933 53.06 53.46 52.46C54.54 51.8467 55.7467 51.54 57.08 51.54C58.64 51.54 60.0067 51.94 61.18 52.74C62.3533 53.54 63.1733 54.6467 63.64 56.06H60.42C60.1 55.3933 59.6467 54.8933 59.06 54.56C58.4867 54.2267 57.82 54.06 57.06 54.06C56.2467 54.06 55.52 54.2533 54.88 54.64C54.2533 55.0133 53.76 55.5467 53.4 56.24C53.0533 56.9333 52.88 57.7467 52.88 58.68C52.88 59.6 53.0533 60.4133 53.4 61.12C53.76 61.8133 54.2533 62.3533 54.88 62.74C55.52 63.1133 56.2467 63.3 57.06 63.3C57.82 63.3 58.4867 63.1333 59.06 62.8C59.6467 62.4533 60.1 61.9467 60.42 61.28H63.64C63.1733 62.7067 62.3533 63.82 61.18 64.62C60.02 65.4067 58.6533 65.8 57.08 65.8C55.7467 65.8 54.54 65.5 53.46 64.9C52.3933 64.2867 51.5467 63.44 50.92 62.36C50.3067 61.28 50 60.0533 50 58.68Z" fill="black"/>
<path d="M68.8316 50.88V65.68H66.0316V50.88H68.8316Z" fill="black"/>
<path d="M82.058 54.6V65.68H79.238V64.28C78.878 64.76 78.4046 65.14 77.818 65.42C77.2446 65.6867 76.618 65.82 75.938 65.82C75.0713 65.82 74.3046 65.64 73.638 65.28C72.9713 64.9067 72.4446 64.3667 72.058 63.66C71.6846 62.94 71.498 62.0867 71.498 61.1V54.6H74.298V60.7C74.298 61.58 74.518 62.26 74.958 62.74C75.398 63.2067 75.998 63.44 76.758 63.44C77.5313 63.44 78.138 63.2067 78.578 62.74C79.018 62.26 79.238 61.58 79.238 60.7V54.6H82.058Z" fill="black"/>
<path d="M88.0806 56.9V62.26C88.0806 62.6333 88.1673 62.9067 88.3406 63.08C88.5273 63.24 88.834 63.32 89.2606 63.32H90.5606V65.68H88.8006C86.4406 65.68 85.2606 64.5333 85.2606 62.24V56.9H83.9406V54.6H85.2606V51.86H88.0806V54.6H90.5606V56.9H88.0806Z" fill="black"/>
<path d="M91.8545 60.14C91.8545 58.9933 92.0879 57.9933 92.5545 57.14C93.0212 56.2733 93.6679 55.6067 94.4945 55.14C95.3212 54.66 96.2679 54.42 97.3345 54.42C98.7079 54.42 99.8412 54.7667 100.735 55.46C101.641 56.14 102.248 57.1 102.555 58.34H99.5345C99.3745 57.86 99.1012 57.4867 98.7145 57.22C98.3412 56.94 97.8745 56.8 97.3145 56.8C96.5145 56.8 95.8812 57.0933 95.4145 57.68C94.9479 58.2533 94.7145 59.0733 94.7145 60.14C94.7145 61.1933 94.9479 62.0133 95.4145 62.6C95.8812 63.1733 96.5145 63.46 97.3145 63.46C98.4479 63.46 99.1879 62.9533 99.5345 61.94H102.555C102.248 63.14 101.641 64.0933 100.735 64.8C99.8279 65.5067 98.6945 65.86 97.3345 65.86C96.2679 65.86 95.3212 65.6267 94.4945 65.16C93.6679 64.68 93.0212 64.0133 92.5545 63.16C92.0879 62.2933 91.8545 61.2867 91.8545 60.14Z" fill="black"/>
<path d="M110.846 54.44C111.686 54.44 112.432 54.6267 113.086 55C113.739 55.36 114.246 55.9 114.606 56.62C114.979 57.3267 115.166 58.18 115.166 59.18V65.68H112.366V59.56C112.366 58.68 112.146 58.0067 111.706 57.54C111.266 57.06 110.666 56.82 109.906 56.82C109.132 56.82 108.519 57.06 108.066 57.54C107.626 58.0067 107.406 58.68 107.406 59.56V65.68H104.606V50.88H107.406V55.98C107.766 55.5 108.246 55.1267 108.846 54.86C109.446 54.58 110.112 54.44 110.846 54.44Z" fill="black"/>
<path d="M125.394 63.46H129.994V65.68H122.594V51.72H125.394V63.46Z" fill="black"/>
<path d="M142.074 59.9C142.074 60.3 142.047 60.66 141.994 60.98H133.894C133.96 61.78 134.24 62.4067 134.734 62.86C135.227 63.3133 135.834 63.54 136.554 63.54C137.594 63.54 138.334 63.0933 138.774 62.2H141.794C141.474 63.2667 140.86 64.1467 139.954 64.84C139.047 65.52 137.934 65.86 136.614 65.86C135.547 65.86 134.587 65.6267 133.734 65.16C132.894 64.68 132.234 64.0067 131.754 63.14C131.287 62.2733 131.054 61.2733 131.054 60.14C131.054 58.9933 131.287 57.9867 131.754 57.12C132.22 56.2533 132.874 55.5867 133.714 55.12C134.554 54.6533 135.52 54.42 136.614 54.42C137.667 54.42 138.607 54.6467 139.434 55.1C140.274 55.5533 140.92 56.2 141.374 57.04C141.84 57.8667 142.074 58.82 142.074 59.9ZM139.174 59.1C139.16 58.38 138.9 57.8067 138.394 57.38C137.887 56.94 137.267 56.72 136.534 56.72C135.84 56.72 135.254 56.9333 134.774 57.36C134.307 57.7733 134.02 58.3533 133.914 59.1H139.174Z" fill="black"/>
<path d="M143.397 60.1C143.397 58.98 143.617 57.9867 144.057 57.12C144.511 56.2533 145.117 55.5867 145.877 55.12C146.651 54.6533 147.511 54.42 148.457 54.42C149.284 54.42 150.004 54.5867 150.618 54.92C151.244 55.2533 151.744 55.6733 152.118 56.18V54.6H154.938V65.68H152.118V64.06C151.758 64.58 151.258 65.0133 150.618 65.36C149.991 65.6933 149.264 65.86 148.438 65.86C147.504 65.86 146.651 65.62 145.877 65.14C145.117 64.66 144.511 63.9867 144.057 63.12C143.617 62.24 143.397 61.2333 143.397 60.1ZM152.118 60.14C152.118 59.46 151.984 58.88 151.717 58.4C151.451 57.9067 151.091 57.5333 150.637 57.28C150.184 57.0133 149.697 56.88 149.177 56.88C148.657 56.88 148.177 57.0067 147.737 57.26C147.297 57.5133 146.937 57.8867 146.657 58.38C146.391 58.86 146.257 59.4333 146.257 60.1C146.257 60.7667 146.391 61.3533 146.657 61.86C146.937 62.3533 147.297 62.7333 147.737 63C148.191 63.2667 148.671 63.4 149.177 63.4C149.697 63.4 150.184 63.2733 150.637 63.02C151.091 62.7533 151.451 62.38 151.717 61.9C151.984 61.4067 152.118 60.82 152.118 60.14Z" fill="black"/>
<path d="M156.952 60.1C156.952 58.98 157.172 57.9867 157.612 57.12C158.066 56.2533 158.679 55.5867 159.452 55.12C160.226 54.6533 161.086 54.42 162.032 54.42C162.752 54.42 163.439 54.58 164.092 54.9C164.746 55.2067 165.266 55.62 165.652 56.14V50.88H168.492V65.68H165.652V64.04C165.306 64.5867 164.819 65.0267 164.192 65.36C163.566 65.6933 162.839 65.86 162.012 65.86C161.079 65.86 160.226 65.62 159.452 65.14C158.679 64.66 158.066 63.9867 157.612 63.12C157.172 62.24 156.952 61.2333 156.952 60.1ZM165.672 60.14C165.672 59.46 165.539 58.88 165.272 58.4C165.006 57.9067 164.646 57.5333 164.192 57.28C163.739 57.0133 163.252 56.88 162.732 56.88C162.212 56.88 161.732 57.0067 161.292 57.26C160.852 57.5133 160.492 57.8867 160.212 58.38C159.946 58.86 159.812 59.4333 159.812 60.1C159.812 60.7667 159.946 61.3533 160.212 61.86C160.492 62.3533 160.852 62.7333 161.292 63C161.746 63.2667 162.226 63.4 162.732 63.4C163.252 63.4 163.739 63.2733 164.192 63.02C164.646 62.7533 165.006 62.38 165.272 61.9C165.539 61.4067 165.672 60.82 165.672 60.14Z" fill="black"/>
<path d="M181.527 59.9C181.527 60.3 181.5 60.66 181.447 60.98H173.347C173.414 61.78 173.694 62.4067 174.187 62.86C174.68 63.3133 175.287 63.54 176.007 63.54C177.047 63.54 177.787 63.0933 178.227 62.2H181.247C180.927 63.2667 180.314 64.1467 179.407 64.84C178.5 65.52 177.387 65.86 176.067 65.86C175 65.86 174.04 65.6267 173.187 65.16C172.347 64.68 171.687 64.0067 171.207 63.14C170.74 62.2733 170.507 61.2733 170.507 60.14C170.507 58.9933 170.74 57.9867 171.207 57.12C171.674 56.2533 172.327 55.5867 173.167 55.12C174.007 54.6533 174.974 54.42 176.067 54.42C177.12 54.42 178.06 54.6467 178.887 55.1C179.727 55.5533 180.374 56.2 180.827 57.04C181.294 57.8667 181.527 58.82 181.527 59.9ZM178.627 59.1C178.614 58.38 178.354 57.8067 177.847 57.38C177.34 56.94 176.72 56.72 175.987 56.72C175.294 56.72 174.707 56.9333 174.227 57.36C173.76 57.7733 173.474 58.3533 173.367 59.1H178.627Z" fill="black"/>
<path d="M186.371 56.32C186.731 55.7333 187.197 55.2733 187.771 54.94C188.357 54.6067 189.024 54.44 189.771 54.44V57.38H189.031C188.151 57.38 187.484 57.5867 187.031 58C186.591 58.4133 186.371 59.1333 186.371 60.16V65.68H183.571V54.6H186.371V56.32Z" fill="black"/>
<path d="M195.897 65.86C194.99 65.86 194.177 65.7 193.457 65.38C192.737 65.0467 192.163 64.6 191.737 64.04C191.323 63.48 191.097 62.86 191.057 62.18H193.877C193.93 62.6067 194.137 62.96 194.497 63.24C194.87 63.52 195.33 63.66 195.877 63.66C196.41 63.66 196.823 63.5533 197.117 63.34C197.423 63.1267 197.577 62.8533 197.577 62.52C197.577 62.16 197.39 61.8933 197.017 61.72C196.657 61.5333 196.077 61.3333 195.277 61.12C194.45 60.92 193.77 60.7133 193.237 60.5C192.717 60.2867 192.263 59.96 191.877 59.52C191.503 59.08 191.317 58.4867 191.317 57.74C191.317 57.1267 191.49 56.5667 191.837 56.06C192.197 55.5533 192.703 55.1533 193.357 54.86C194.023 54.5667 194.803 54.42 195.697 54.42C197.017 54.42 198.07 54.7533 198.857 55.42C199.643 56.0733 200.077 56.96 200.157 58.08H197.477C197.437 57.64 197.25 57.2933 196.917 57.04C196.597 56.7733 196.163 56.64 195.617 56.64C195.11 56.64 194.717 56.7333 194.437 56.92C194.17 57.1067 194.037 57.3667 194.037 57.7C194.037 58.0733 194.223 58.36 194.597 58.56C194.97 58.7467 195.55 58.94 196.337 59.14C197.137 59.34 197.797 59.5467 198.317 59.76C198.837 59.9733 199.283 60.3067 199.657 60.76C200.043 61.2 200.243 61.7867 200.257 62.52C200.257 63.16 200.077 63.7333 199.717 64.24C199.37 64.7467 198.863 65.1467 198.197 65.44C197.543 65.72 196.777 65.86 195.897 65.86Z" fill="black"/>
<path d="M222.541 51.72V65.68H219.741V56.6L216.001 65.68H213.881L210.121 56.6V65.68H207.321V51.72H210.501L214.941 62.1L219.381 51.72H222.541Z" fill="black"/>
<path d="M224.589 60.1C224.589 58.98 224.809 57.9867 225.249 57.12C225.702 56.2533 226.309 55.5867 227.069 55.12C227.842 54.6533 228.702 54.42 229.649 54.42C230.476 54.42 231.196 54.5867 231.809 54.92C232.436 55.2533 232.936 55.6733 233.309 56.18V54.6H236.129V65.68H233.309V64.06C232.949 64.58 232.449 65.0133 231.809 65.36C231.182 65.6933 230.456 65.86 229.629 65.86C228.696 65.86 227.842 65.62 227.069 65.14C226.309 64.66 225.702 63.9867 225.249 63.12C224.809 62.24 224.589 61.2333 224.589 60.1ZM233.309 60.14C233.309 59.46 233.176 58.88 232.909 58.4C232.642 57.9067 232.282 57.5333 231.829 57.28C231.376 57.0133 230.889 56.88 230.369 56.88C229.849 56.88 229.369 57.0067 228.929 57.26C228.489 57.5133 228.129 57.8867 227.849 58.38C227.582 58.86 227.449 59.4333 227.449 60.1C227.449 60.7667 227.582 61.3533 227.849 61.86C228.129 62.3533 228.489 62.7333 228.929 63C229.382 63.2667 229.862 63.4 230.369 63.4C230.889 63.4 231.376 63.2733 231.829 63.02C232.282 62.7533 232.642 62.38 232.909 61.9C233.176 61.4067 233.309 60.82 233.309 60.14Z" fill="black"/>
<path d="M242.124 56.9V62.26C242.124 62.6333 242.21 62.9067 242.384 63.08C242.57 63.24 242.877 63.32 243.304 63.32H244.604V65.68H242.844C240.484 65.68 239.304 64.5333 239.304 62.24V56.9H237.984V54.6H239.304V51.86H242.124V54.6H244.604V56.9H242.124Z" fill="black"/>
<path d="M249.418 56.32C249.778 55.7333 250.244 55.2733 250.818 54.94C251.404 54.6067 252.071 54.44 252.818 54.44V57.38H252.077C251.197 57.38 250.531 57.5867 250.077 58C249.637 58.4133 249.418 59.1333 249.418 60.16V65.68H246.618V54.6H249.418V56.32Z" fill="black"/>
<path d="M256.123 53.28C255.63 53.28 255.217 53.1267 254.883 52.82C254.563 52.5 254.403 52.1067 254.403 51.64C254.403 51.1733 254.563 50.7867 254.883 50.48C255.217 50.16 255.63 50 256.123 50C256.617 50 257.023 50.16 257.343 50.48C257.677 50.7867 257.843 51.1733 257.843 51.64C257.843 52.1067 257.677 52.5 257.343 52.82C257.023 53.1267 256.617 53.28 256.123 53.28ZM257.503 54.6V65.68H254.703V54.6H257.503Z" fill="black"/>
<path d="M266.39 65.68L264.11 62.24L262.09 65.68H259.09L262.71 60.12L259.05 54.6H262.21L264.47 58.02L266.51 54.6H269.51L265.87 60.12L269.55 65.68H266.39Z" fill="black"/>
<path d="M54.068 89.144C53.5 89.144 52.984 89.036 52.52 88.82C52.056 88.604 51.664 88.316 51.344 87.956C51.024 87.588 50.796 87.184 50.66 86.744L51.524 86.42C51.732 87.028 52.056 87.492 52.496 87.812C52.936 88.124 53.46 88.28 54.068 88.28C54.452 88.28 54.788 88.22 55.076 88.1C55.372 87.972 55.6 87.796 55.76 87.572C55.92 87.348 56 87.088 56 86.792C56 86.352 55.88 86.012 55.64 85.772C55.4 85.532 55.056 85.348 54.608 85.22L53 84.74C52.368 84.556 51.88 84.248 51.536 83.816C51.2 83.384 51.032 82.892 51.032 82.34C51.032 81.868 51.148 81.452 51.38 81.092C51.612 80.724 51.928 80.436 52.328 80.228C52.736 80.02 53.196 79.916 53.708 79.916C54.244 79.916 54.724 80.016 55.148 80.216C55.58 80.408 55.944 80.664 56.24 80.984C56.536 81.304 56.748 81.66 56.876 82.052L56.036 82.388C55.844 81.86 55.544 81.46 55.136 81.188C54.736 80.916 54.264 80.78 53.72 80.78C53.376 80.78 53.072 80.84 52.808 80.96C52.552 81.08 52.352 81.252 52.208 81.476C52.064 81.7 51.992 81.964 51.992 82.268C51.992 82.636 52.108 82.968 52.34 83.264C52.572 83.552 52.928 83.768 53.408 83.912L54.824 84.332C55.528 84.54 56.06 84.84 56.42 85.232C56.78 85.624 56.96 86.116 56.96 86.708C56.96 87.188 56.836 87.612 56.588 87.98C56.348 88.34 56.008 88.624 55.568 88.832C55.136 89.04 54.636 89.144 54.068 89.144ZM61.6098 89.144C61.0098 89.144 60.4658 89 59.9778 88.712C59.4978 88.416 59.1178 88.012 58.8378 87.5C58.5578 86.988 58.4178 86.408 58.4178 85.76C58.4178 85.112 58.5538 84.54 58.8258 84.044C59.0978 83.54 59.4658 83.144 59.9298 82.856C60.4018 82.568 60.9298 82.424 61.5138 82.424C61.9778 82.424 62.3898 82.512 62.7498 82.688C63.1178 82.856 63.4298 83.088 63.6858 83.384C63.9418 83.672 64.1378 84 64.2738 84.368C64.4098 84.728 64.4778 85.1 64.4778 85.484C64.4778 85.564 64.4738 85.656 64.4658 85.76C64.4578 85.856 64.4458 85.956 64.4298 86.06H58.9938V85.22H63.9138L63.4818 85.58C63.5538 85.14 63.5018 84.748 63.3258 84.404C63.1578 84.052 62.9138 83.776 62.5938 83.576C62.2738 83.368 61.9138 83.264 61.5138 83.264C61.1138 83.264 60.7418 83.368 60.3978 83.576C60.0618 83.784 59.7978 84.076 59.6058 84.452C59.4138 84.82 59.3378 85.26 59.3778 85.772C59.3378 86.284 59.4178 86.732 59.6178 87.116C59.8258 87.492 60.1058 87.784 60.4578 87.992C60.8178 88.2 61.2018 88.304 61.6098 88.304C62.0818 88.304 62.4778 88.192 62.7978 87.968C63.1178 87.744 63.3778 87.464 63.5778 87.128L64.3458 87.536C64.2178 87.824 64.0218 88.092 63.7578 88.34C63.4938 88.58 63.1778 88.776 62.8098 88.928C62.4498 89.072 62.0498 89.144 61.6098 89.144ZM68.9926 89.144C68.3926 89.144 67.8486 89 67.3606 88.712C66.8806 88.416 66.5006 88.012 66.2206 87.5C65.9406 86.988 65.8006 86.408 65.8006 85.76C65.8006 85.112 65.9366 84.54 66.2086 84.044C66.4806 83.54 66.8486 83.144 67.3126 82.856C67.7846 82.568 68.3126 82.424 68.8966 82.424C69.3606 82.424 69.7726 82.512 70.1326 82.688C70.5006 82.856 70.8126 83.088 71.0686 83.384C71.3246 83.672 71.5206 84 71.6566 84.368C71.7926 84.728 71.8606 85.1 71.8606 85.484C71.8606 85.564 71.8566 85.656 71.8486 85.76C71.8406 85.856 71.8286 85.956 71.8126 86.06H66.3766V85.22H71.2966L70.8646 85.58C70.9366 85.14 70.8846 84.748 70.7086 84.404C70.5406 84.052 70.2966 83.776 69.9766 83.576C69.6566 83.368 69.2966 83.264 68.8966 83.264C68.4966 83.264 68.1246 83.368 67.7806 83.576C67.4446 83.784 67.1806 84.076 66.9886 84.452C66.7966 84.82 66.7206 85.26 66.7606 85.772C66.7206 86.284 66.8006 86.732 67.0006 87.116C67.2086 87.492 67.4886 87.784 67.8406 87.992C68.2006 88.2 68.5846 88.304 68.9926 88.304C69.4646 88.304 69.8606 88.192 70.1806 87.968C70.5006 87.744 70.7606 87.464 70.9606 87.128L71.7286 87.536C71.6006 87.824 71.4046 88.092 71.1406 88.34C70.8766 88.58 70.5606 88.776 70.1926 88.928C69.8326 89.072 69.4326 89.144 68.9926 89.144ZM76.9025 89L74.6945 82.568H75.7145L77.5385 88.196H77.1785L78.8945 82.568H79.7945L81.5105 88.196H81.1505L82.9865 82.568H83.9945L81.7865 89H80.8865L79.2185 83.492H79.4705L77.8025 89H76.9025ZM85.049 89V79.916H85.949V83.816L85.745 83.768C85.905 83.352 86.165 83.024 86.525 82.784C86.893 82.544 87.317 82.424 87.797 82.424C88.253 82.424 88.661 82.528 89.021 82.736C89.389 82.944 89.677 83.232 89.885 83.6C90.101 83.96 90.209 84.368 90.209 84.824V89H89.309V85.172C89.309 84.78 89.237 84.448 89.093 84.176C88.949 83.904 88.749 83.696 88.493 83.552C88.245 83.4 87.961 83.324 87.641 83.324C87.321 83.324 87.033 83.4 86.777 83.552C86.521 83.696 86.317 83.908 86.165 84.188C86.021 84.46 85.949 84.788 85.949 85.172V89H85.049ZM94.8559 89.144C94.2559 89.144 93.7119 89 93.2239 88.712C92.7439 88.416 92.3639 88.012 92.0839 87.5C91.8039 86.988 91.6639 86.408 91.6639 85.76C91.6639 85.112 91.7999 84.54 92.0719 84.044C92.3439 83.54 92.7119 83.144 93.1759 82.856C93.6479 82.568 94.1759 82.424 94.7599 82.424C95.2239 82.424 95.6359 82.512 95.9959 82.688C96.3639 82.856 96.6759 83.088 96.9319 83.384C97.1879 83.672 97.3839 84 97.5199 84.368C97.6559 84.728 97.7239 85.1 97.7239 85.484C97.7239 85.564 97.7199 85.656 97.7119 85.76C97.7039 85.856 97.6919 85.956 97.6759 86.06H92.2399V85.22H97.1599L96.7279 85.58C96.7999 85.14 96.7479 84.748 96.5719 84.404C96.4039 84.052 96.1599 83.776 95.8399 83.576C95.5199 83.368 95.1599 83.264 94.7599 83.264C94.3599 83.264 93.9879 83.368 93.6439 83.576C93.3079 83.784 93.0439 84.076 92.8519 84.452C92.6599 84.82 92.5839 85.26 92.6239 85.772C92.5839 86.284 92.6639 86.732 92.8639 87.116C93.0719 87.492 93.3519 87.784 93.7039 87.992C94.0639 88.2 94.4479 88.304 94.8559 88.304C95.3279 88.304 95.7239 88.192 96.0439 87.968C96.3639 87.744 96.6239 87.464 96.8239 87.128L97.5919 87.536C97.4639 87.824 97.2679 88.092 97.0039 88.34C96.7399 88.58 96.4239 88.776 96.0559 88.928C95.6959 89.072 95.2959 89.144 94.8559 89.144ZM99.3107 89V82.568H100.211V83.624L100.091 83.468C100.243 83.164 100.471 82.924 100.775 82.748C101.087 82.572 101.463 82.484 101.903 82.484H102.311V83.384H101.747C101.283 83.384 100.911 83.528 100.631 83.816C100.351 84.104 100.211 84.512 100.211 85.04V89H99.3107ZM106.293 89.144C105.693 89.144 105.149 89 104.661 88.712C104.181 88.416 103.801 88.012 103.521 87.5C103.241 86.988 103.101 86.408 103.101 85.76C103.101 85.112 103.237 84.54 103.509 84.044C103.781 83.54 104.149 83.144 104.613 82.856C105.085 82.568 105.613 82.424 106.197 82.424C106.661 82.424 107.073 82.512 107.433 82.688C107.801 82.856 108.113 83.088 108.369 83.384C108.625 83.672 108.821 84 108.957 84.368C109.093 84.728 109.161 85.1 109.161 85.484C109.161 85.564 109.157 85.656 109.149 85.76C109.141 85.856 109.129 85.956 109.113 86.06H103.677V85.22H108.597L108.165 85.58C108.237 85.14 108.185 84.748 108.009 84.404C107.841 84.052 107.597 83.776 107.277 83.576C106.957 83.368 106.597 83.264 106.197 83.264C105.797 83.264 105.425 83.368 105.081 83.576C104.745 83.784 104.481 84.076 104.289 84.452C104.097 84.82 104.021 85.26 104.061 85.772C104.021 86.284 104.101 86.732 104.301 87.116C104.509 87.492 104.789 87.784 105.141 87.992C105.501 88.2 105.885 88.304 106.293 88.304C106.765 88.304 107.161 88.192 107.481 87.968C107.801 87.744 108.061 87.464 108.261 87.128L109.029 87.536C108.901 87.824 108.705 88.092 108.441 88.34C108.177 88.58 107.861 88.776 107.493 88.928C107.133 89.072 106.733 89.144 106.293 89.144ZM116.999 89.144C116.367 89.144 115.787 89.032 115.259 88.808C114.731 88.576 114.271 88.256 113.879 87.848C113.495 87.432 113.195 86.944 112.979 86.384C112.763 85.824 112.655 85.208 112.655 84.536C112.655 83.864 112.763 83.248 112.979 82.688C113.195 82.128 113.495 81.64 113.879 81.224C114.271 80.808 114.731 80.488 115.259 80.264C115.787 80.032 116.367 79.916 116.999 79.916C117.607 79.916 118.151 80.024 118.631 80.24C119.119 80.456 119.527 80.736 119.855 81.08C120.191 81.416 120.431 81.772 120.575 82.148L119.675 82.544C119.451 82.024 119.107 81.608 118.643 81.296C118.187 80.976 117.639 80.816 116.999 80.816C116.343 80.816 115.759 80.972 115.247 81.284C114.735 81.596 114.335 82.032 114.047 82.592C113.759 83.144 113.615 83.792 113.615 84.536C113.615 85.272 113.759 85.92 114.047 86.48C114.335 87.04 114.735 87.476 115.247 87.788C115.759 88.092 116.343 88.244 116.999 88.244C117.639 88.244 118.187 88.088 118.643 87.776C119.107 87.464 119.451 87.048 119.675 86.528L120.575 86.924C120.431 87.292 120.191 87.648 119.855 87.992C119.527 88.328 119.119 88.604 118.631 88.82C118.151 89.036 117.607 89.144 116.999 89.144ZM122.294 89V80.06H123.254V89H122.294ZM125.365 89V80.06H131.125V80.96H126.325V84.068H130.885V84.968H126.325V88.1H131.125V89H125.365ZM132.712 89V80.06H133.552L138.796 87.584H138.472V80.06H139.432V89H138.592L133.348 81.428H133.672V89H132.712ZM145.628 89.144C144.996 89.144 144.416 89.032 143.888 88.808C143.36 88.576 142.9 88.256 142.508 87.848C142.124 87.432 141.824 86.944 141.608 86.384C141.392 85.824 141.284 85.208 141.284 84.536C141.284 83.864 141.392 83.248 141.608 82.688C141.824 82.128 142.124 81.64 142.508 81.224C142.9 80.808 143.36 80.488 143.888 80.264C144.416 80.032 144.996 79.916 145.628 79.916C146.236 79.916 146.78 80.024 147.26 80.24C147.748 80.456 148.156 80.736 148.484 81.08C148.82 81.416 149.06 81.772 149.204 82.148L148.304 82.544C148.08 82.024 147.736 81.608 147.272 81.296C146.816 80.976 146.268 80.816 145.628 80.816C144.972 80.816 144.388 80.972 143.876 81.284C143.364 81.596 142.964 82.032 142.676 82.592C142.388 83.144 142.244 83.792 142.244 84.536C142.244 85.272 142.388 85.92 142.676 86.48C142.964 87.04 143.364 87.476 143.876 87.788C144.388 88.092 144.972 88.244 145.628 88.244C146.268 88.244 146.816 88.088 147.272 87.776C147.736 87.464 148.08 87.048 148.304 86.528L149.204 86.924C149.06 87.292 148.82 87.648 148.484 87.992C148.156 88.328 147.748 88.604 147.26 88.82C146.78 89.036 146.236 89.144 145.628 89.144ZM150.923 89V80.06H156.683V80.96H151.883V84.068H156.443V84.968H151.883V88.1H156.683V89H150.923ZM162.41 89.144C161.794 89.144 161.254 88.988 160.79 88.676C160.326 88.364 159.99 87.94 159.782 87.404L160.538 87.044C160.722 87.436 160.978 87.748 161.306 87.98C161.642 88.212 162.01 88.328 162.41 88.328C162.794 88.328 163.118 88.236 163.382 88.052C163.646 87.86 163.778 87.612 163.778 87.308C163.778 87.084 163.714 86.908 163.586 86.78C163.458 86.644 163.31 86.54 163.142 86.468C162.974 86.396 162.826 86.344 162.698 86.312L161.774 86.048C161.182 85.88 160.754 85.644 160.49 85.34C160.226 85.036 160.094 84.684 160.094 84.284C160.094 83.908 160.19 83.58 160.382 83.3C160.574 83.02 160.834 82.804 161.162 82.652C161.49 82.5 161.854 82.424 162.254 82.424C162.798 82.424 163.29 82.568 163.73 82.856C164.178 83.136 164.494 83.528 164.678 84.032L163.91 84.392C163.75 84.032 163.518 83.752 163.214 83.552C162.918 83.344 162.586 83.24 162.218 83.24C161.858 83.24 161.57 83.332 161.354 83.516C161.138 83.7 161.03 83.932 161.03 84.212C161.03 84.428 161.086 84.6 161.198 84.728C161.31 84.856 161.438 84.952 161.582 85.016C161.734 85.08 161.866 85.128 161.978 85.16L163.046 85.472C163.566 85.624 163.97 85.86 164.258 86.18C164.554 86.5 164.702 86.876 164.702 87.308C164.702 87.66 164.602 87.976 164.402 88.256C164.21 88.536 163.942 88.756 163.598 88.916C163.254 89.068 162.858 89.144 162.41 89.144ZM168.743 89.072C168.167 89.072 167.723 88.904 167.411 88.568C167.099 88.232 166.943 87.752 166.943 87.128V83.468H165.755V82.568H166.055C166.327 82.568 166.543 82.48 166.703 82.304C166.863 82.12 166.943 81.892 166.943 81.62V81.08H167.843V82.568H169.259V83.468H167.843V87.128C167.843 87.344 167.875 87.536 167.939 87.704C168.003 87.864 168.111 87.992 168.263 88.088C168.423 88.184 168.635 88.232 168.899 88.232C168.963 88.232 169.039 88.228 169.127 88.22C169.215 88.212 169.291 88.204 169.355 88.196V89C169.259 89.024 169.151 89.04 169.031 89.048C168.911 89.064 168.815 89.072 168.743 89.072ZM172.679 89.144C172.271 89.144 171.907 89.068 171.587 88.916C171.267 88.756 171.015 88.54 170.831 88.268C170.647 87.996 170.555 87.684 170.555 87.332C170.555 86.996 170.627 86.692 170.771 86.42C170.915 86.14 171.139 85.904 171.443 85.712C171.747 85.52 172.135 85.384 172.607 85.304L175.127 84.884V85.7L172.823 86.084C172.359 86.164 172.023 86.312 171.815 86.528C171.615 86.744 171.515 87 171.515 87.296C171.515 87.584 171.627 87.828 171.851 88.028C172.083 88.228 172.379 88.328 172.739 88.328C173.179 88.328 173.563 88.236 173.891 88.052C174.219 87.86 174.475 87.604 174.659 87.284C174.843 86.964 174.935 86.608 174.935 86.216V84.584C174.935 84.2 174.795 83.888 174.515 83.648C174.235 83.408 173.871 83.288 173.423 83.288C173.031 83.288 172.687 83.388 172.391 83.588C172.095 83.78 171.875 84.032 171.731 84.344L170.915 83.9C171.035 83.628 171.223 83.38 171.479 83.156C171.743 82.932 172.043 82.756 172.379 82.628C172.715 82.492 173.063 82.424 173.423 82.424C173.895 82.424 174.311 82.516 174.671 82.7C175.039 82.884 175.323 83.14 175.523 83.468C175.731 83.788 175.835 84.16 175.835 84.584V89H174.935V87.716L175.067 87.848C174.955 88.088 174.779 88.308 174.539 88.508C174.307 88.7 174.031 88.856 173.711 88.976C173.399 89.088 173.055 89.144 172.679 89.144ZM177.686 89V82.568H178.586V83.816L178.382 83.768C178.542 83.352 178.802 83.024 179.162 82.784C179.53 82.544 179.954 82.424 180.434 82.424C180.89 82.424 181.298 82.528 181.658 82.736C182.026 82.944 182.314 83.232 182.522 83.6C182.738 83.96 182.846 84.368 182.846 84.824V89H181.946V85.172C181.946 84.78 181.874 84.448 181.73 84.176C181.594 83.904 181.398 83.696 181.142 83.552C180.894 83.4 180.606 83.324 180.278 83.324C179.95 83.324 179.658 83.4 179.402 83.552C179.146 83.696 178.946 83.908 178.802 84.188C178.658 84.46 178.586 84.788 178.586 85.172V89H177.686ZM187.469 89.144C186.869 89.144 186.329 89 185.849 88.712C185.369 88.416 184.989 88.016 184.709 87.512C184.437 87 184.301 86.424 184.301 85.784C184.301 85.136 184.437 84.56 184.709 84.056C184.989 83.552 185.365 83.156 185.837 82.868C186.317 82.572 186.861 82.424 187.469 82.424C188.021 82.424 188.513 82.544 188.945 82.784C189.377 83.024 189.717 83.348 189.965 83.756L189.821 84.008V79.916H190.721V89H189.821V87.56L189.965 87.692C189.741 88.156 189.405 88.516 188.957 88.772C188.517 89.02 188.021 89.144 187.469 89.144ZM187.517 88.244C187.949 88.244 188.337 88.136 188.681 87.92C189.033 87.704 189.309 87.412 189.509 87.044C189.717 86.668 189.821 86.248 189.821 85.784C189.821 85.32 189.717 84.904 189.509 84.536C189.309 84.16 189.033 83.864 188.681 83.648C188.337 83.432 187.949 83.324 187.517 83.324C187.093 83.324 186.709 83.432 186.365 83.648C186.021 83.864 185.749 84.156 185.549 84.524C185.357 84.892 185.261 85.312 185.261 85.784C185.261 86.248 185.357 86.668 185.549 87.044C185.749 87.412 186.017 87.704 186.353 87.92C186.697 88.136 187.085 88.244 187.517 88.244ZM194.801 89.144C194.185 89.144 193.645 88.988 193.181 88.676C192.717 88.364 192.381 87.94 192.173 87.404L192.929 87.044C193.113 87.436 193.369 87.748 193.697 87.98C194.033 88.212 194.401 88.328 194.801 88.328C195.185 88.328 195.509 88.236 195.773 88.052C196.037 87.86 196.169 87.612 196.169 87.308C196.169 87.084 196.105 86.908 195.977 86.78C195.849 86.644 195.701 86.54 195.533 86.468C195.365 86.396 195.217 86.344 195.089 86.312L194.165 86.048C193.573 85.88 193.145 85.644 192.881 85.34C192.617 85.036 192.485 84.684 192.485 84.284C192.485 83.908 192.581 83.58 192.773 83.3C192.965 83.02 193.225 82.804 193.553 82.652C193.881 82.5 194.245 82.424 194.645 82.424C195.189 82.424 195.681 82.568 196.121 82.856C196.569 83.136 196.885 83.528 197.069 84.032L196.301 84.392C196.141 84.032 195.909 83.752 195.605 83.552C195.309 83.344 194.977 83.24 194.609 83.24C194.249 83.24 193.961 83.332 193.745 83.516C193.529 83.7 193.421 83.932 193.421 84.212C193.421 84.428 193.477 84.6 193.589 84.728C193.701 84.856 193.829 84.952 193.973 85.016C194.125 85.08 194.257 85.128 194.369 85.16L195.437 85.472C195.957 85.624 196.361 85.86 196.649 86.18C196.945 86.5 197.093 86.876 197.093 87.308C197.093 87.66 196.993 87.976 196.793 88.256C196.601 88.536 196.333 88.756 195.989 88.916C195.645 89.068 195.249 89.144 194.801 89.144ZM202.573 89.144C202.165 89.144 201.801 89.068 201.481 88.916C201.161 88.756 200.909 88.54 200.725 88.268C200.541 87.996 200.449 87.684 200.449 87.332C200.449 86.996 200.521 86.692 200.665 86.42C200.809 86.14 201.033 85.904 201.337 85.712C201.641 85.52 202.029 85.384 202.501 85.304L205.021 84.884V85.7L202.717 86.084C202.253 86.164 201.917 86.312 201.709 86.528C201.509 86.744 201.409 87 201.409 87.296C201.409 87.584 201.521 87.828 201.745 88.028C201.977 88.228 202.273 88.328 202.633 88.328C203.073 88.328 203.457 88.236 203.785 88.052C204.113 87.86 204.369 87.604 204.553 87.284C204.737 86.964 204.829 86.608 204.829 86.216V84.584C204.829 84.2 204.689 83.888 204.409 83.648C204.129 83.408 203.765 83.288 203.317 83.288C202.925 83.288 202.581 83.388 202.285 83.588C201.989 83.78 201.769 84.032 201.625 84.344L200.809 83.9C200.929 83.628 201.117 83.38 201.373 83.156C201.637 82.932 201.937 82.756 202.273 82.628C202.609 82.492 202.957 82.424 203.317 82.424C203.789 82.424 204.205 82.516 204.565 82.7C204.933 82.884 205.217 83.14 205.417 83.468C205.625 83.788 205.729 84.16 205.729 84.584V89H204.829V87.716L204.961 87.848C204.849 88.088 204.673 88.308 204.433 88.508C204.201 88.7 203.925 88.856 203.605 88.976C203.293 89.088 202.949 89.144 202.573 89.144ZM210.628 91.64C210.188 91.64 209.78 91.572 209.404 91.436C209.036 91.3 208.716 91.112 208.444 90.872C208.18 90.64 207.976 90.368 207.832 90.056L208.66 89.612C208.788 89.916 209.016 90.18 209.344 90.404C209.672 90.628 210.092 90.74 210.604 90.74C210.996 90.74 211.356 90.664 211.684 90.512C212.012 90.36 212.276 90.136 212.476 89.84C212.676 89.544 212.776 89.18 212.776 88.748V87.32L212.92 87.452C212.696 87.916 212.364 88.276 211.924 88.532C211.484 88.78 211.004 88.904 210.484 88.904C209.884 88.904 209.344 88.76 208.864 88.472C208.384 88.184 208.004 87.796 207.724 87.308C207.452 86.812 207.316 86.264 207.316 85.664C207.316 85.056 207.452 84.508 207.724 84.02C208.004 83.532 208.38 83.144 208.852 82.856C209.332 82.568 209.876 82.424 210.484 82.424C211.004 82.424 211.476 82.544 211.9 82.784C212.332 83.024 212.672 83.348 212.92 83.756L212.776 84.008V82.568H213.676V88.748C213.676 89.3 213.544 89.792 213.28 90.224C213.024 90.664 212.664 91.008 212.2 91.256C211.744 91.512 211.22 91.64 210.628 91.64ZM210.532 88.004C210.948 88.004 211.324 87.9 211.66 87.692C211.996 87.476 212.264 87.192 212.464 86.84C212.672 86.48 212.776 86.088 212.776 85.664C212.776 85.24 212.672 84.852 212.464 84.5C212.264 84.14 211.996 83.856 211.66 83.648C211.324 83.432 210.948 83.324 210.532 83.324C210.108 83.324 209.724 83.432 209.38 83.648C209.036 83.856 208.764 84.136 208.564 84.488C208.372 84.84 208.276 85.232 208.276 85.664C208.276 86.088 208.372 86.48 208.564 86.84C208.764 87.192 209.032 87.476 209.368 87.692C209.712 87.9 210.1 88.004 210.532 88.004ZM217.386 89.144C216.978 89.144 216.614 89.068 216.294 88.916C215.974 88.756 215.722 88.54 215.538 88.268C215.354 87.996 215.262 87.684 215.262 87.332C215.262 86.996 215.334 86.692 215.478 86.42C215.622 86.14 215.846 85.904 216.15 85.712C216.454 85.52 216.842 85.384 217.314 85.304L219.834 84.884V85.7L217.53 86.084C217.066 86.164 216.73 86.312 216.522 86.528C216.322 86.744 216.222 87 216.222 87.296C216.222 87.584 216.334 87.828 216.558 88.028C216.79 88.228 217.086 88.328 217.446 88.328C217.886 88.328 218.27 88.236 218.598 88.052C218.926 87.86 219.182 87.604 219.366 87.284C219.55 86.964 219.642 86.608 219.642 86.216V84.584C219.642 84.2 219.502 83.888 219.222 83.648C218.942 83.408 218.578 83.288 218.13 83.288C217.738 83.288 217.394 83.388 217.098 83.588C216.802 83.78 216.582 84.032 216.438 84.344L215.622 83.9C215.742 83.628 215.93 83.38 216.186 83.156C216.45 82.932 216.75 82.756 217.086 82.628C217.422 82.492 217.77 82.424 218.13 82.424C218.602 82.424 219.018 82.516 219.378 82.7C219.746 82.884 220.03 83.14 220.23 83.468C220.438 83.788 220.542 84.16 220.542 84.584V89H219.642V87.716L219.774 87.848C219.662 88.088 219.486 88.308 219.246 88.508C219.014 88.7 218.738 88.856 218.418 88.976C218.106 89.088 217.762 89.144 217.386 89.144ZM222.393 89V82.568H223.293V89H222.393ZM222.393 81.38V80.06H223.293V81.38H222.393ZM225.135 89V82.568H226.035V83.816L225.831 83.768C225.991 83.352 226.251 83.024 226.611 82.784C226.979 82.544 227.403 82.424 227.883 82.424C228.339 82.424 228.747 82.528 229.107 82.736C229.475 82.944 229.763 83.232 229.971 83.6C230.187 83.96 230.295 84.368 230.295 84.824V89H229.395V85.172C229.395 84.78 229.323 84.448 229.179 84.176C229.043 83.904 228.847 83.696 228.591 83.552C228.343 83.4 228.055 83.324 227.727 83.324C227.399 83.324 227.107 83.4 226.851 83.552C226.595 83.696 226.395 83.908 226.251 84.188C226.107 84.46 226.035 84.788 226.035 85.172V89H225.135ZM234.246 89.144C233.63 89.144 233.09 88.988 232.626 88.676C232.162 88.364 231.826 87.94 231.618 87.404L232.374 87.044C232.558 87.436 232.814 87.748 233.142 87.98C233.478 88.212 233.846 88.328 234.246 88.328C234.63 88.328 234.954 88.236 235.218 88.052C235.482 87.86 235.614 87.612 235.614 87.308C235.614 87.084 235.55 86.908 235.422 86.78C235.294 86.644 235.146 86.54 234.978 86.468C234.81 86.396 234.662 86.344 234.534 86.312L233.61 86.048C233.018 85.88 232.59 85.644 232.326 85.34C232.062 85.036 231.93 84.684 231.93 84.284C231.93 83.908 232.026 83.58 232.218 83.3C232.41 83.02 232.67 82.804 232.998 82.652C233.326 82.5 233.69 82.424 234.09 82.424C234.634 82.424 235.126 82.568 235.566 82.856C236.014 83.136 236.33 83.528 236.514 84.032L235.746 84.392C235.586 84.032 235.354 83.752 235.05 83.552C234.754 83.344 234.422 83.24 234.054 83.24C233.694 83.24 233.406 83.332 233.19 83.516C232.974 83.7 232.866 83.932 232.866 84.212C232.866 84.428 232.922 84.6 233.034 84.728C233.146 84.856 233.274 84.952 233.418 85.016C233.57 85.08 233.702 85.128 233.814 85.16L234.882 85.472C235.402 85.624 235.806 85.86 236.094 86.18C236.39 86.5 236.538 86.876 236.538 87.308C236.538 87.66 236.438 87.976 236.238 88.256C236.046 88.536 235.778 88.756 235.434 88.916C235.09 89.068 234.694 89.144 234.246 89.144ZM240.579 89.072C240.003 89.072 239.559 88.904 239.247 88.568C238.935 88.232 238.779 87.752 238.779 87.128V83.468H237.591V82.568H237.891C238.163 82.568 238.379 82.48 238.539 82.304C238.699 82.12 238.779 81.892 238.779 81.62V81.08H239.679V82.568H241.095V83.468H239.679V87.128C239.679 87.344 239.711 87.536 239.775 87.704C239.839 87.864 239.947 87.992 240.099 88.088C240.259 88.184 240.471 88.232 240.735 88.232C240.799 88.232 240.875 88.228 240.963 88.22C241.051 88.212 241.127 88.204 241.191 88.196V89C241.095 89.024 240.987 89.04 240.867 89.048C240.747 89.064 240.651 89.072 240.579 89.072ZM247.751 89.144C247.119 89.144 246.563 88.996 246.083 88.7C245.603 88.404 245.227 88.004 244.955 87.5C244.683 86.988 244.547 86.412 244.547 85.772C244.547 85.132 244.683 84.56 244.955 84.056C245.227 83.552 245.603 83.156 246.083 82.868C246.563 82.572 247.119 82.424 247.751 82.424C248.151 82.424 248.527 82.496 248.879 82.64C249.231 82.784 249.543 82.98 249.815 83.228C250.087 83.468 250.291 83.748 250.427 84.068L249.611 84.488C249.451 84.144 249.207 83.864 248.879 83.648C248.551 83.432 248.175 83.324 247.751 83.324C247.327 83.324 246.943 83.432 246.599 83.648C246.263 83.856 245.995 84.148 245.795 84.524C245.603 84.892 245.507 85.312 245.507 85.784C245.507 86.248 245.603 86.668 245.795 87.044C245.995 87.412 246.263 87.704 246.599 87.92C246.943 88.136 247.327 88.244 247.751 88.244C248.175 88.244 248.547 88.136 248.867 87.92C249.195 87.704 249.443 87.416 249.611 87.056L250.427 87.5C250.291 87.812 250.087 88.092 249.815 88.34C249.543 88.588 249.231 88.784 248.879 88.928C248.527 89.072 248.151 89.144 247.751 89.144ZM255.018 89.144C254.41 89.144 253.858 89 253.362 88.712C252.866 88.416 252.47 88.016 252.174 87.512C251.886 87 251.742 86.42 251.742 85.772C251.742 85.132 251.886 84.56 252.174 84.056C252.462 83.552 252.85 83.156 253.338 82.868C253.834 82.572 254.394 82.424 255.018 82.424C255.642 82.424 256.198 82.568 256.686 82.856C257.182 83.144 257.57 83.54 257.85 84.044C258.138 84.548 258.282 85.124 258.282 85.772C258.282 86.428 258.134 87.012 257.838 87.524C257.542 88.028 257.146 88.424 256.65 88.712C256.162 89 255.618 89.144 255.018 89.144ZM255.018 88.244C255.45 88.244 255.838 88.136 256.182 87.92C256.534 87.704 256.81 87.408 257.01 87.032C257.218 86.656 257.322 86.236 257.322 85.772C257.322 85.308 257.218 84.892 257.01 84.524C256.81 84.156 256.534 83.864 256.182 83.648C255.838 83.432 255.45 83.324 255.018 83.324C254.586 83.324 254.194 83.432 253.842 83.648C253.498 83.864 253.222 84.156 253.014 84.524C252.806 84.892 252.702 85.308 252.702 85.772C252.702 86.236 252.806 86.656 253.014 87.032C253.222 87.408 253.498 87.704 253.842 87.92C254.194 88.136 254.586 88.244 255.018 88.244ZM259.869 89V82.568H260.769V83.792L260.625 83.612C260.801 83.236 261.061 82.944 261.405 82.736C261.757 82.528 262.141 82.424 262.557 82.424C263.053 82.424 263.501 82.564 263.901 82.844C264.301 83.124 264.585 83.488 264.753 83.936L264.501 83.948C264.661 83.452 264.937 83.076 265.329 82.82C265.729 82.556 266.169 82.424 266.649 82.424C267.081 82.424 267.477 82.528 267.837 82.736C268.205 82.944 268.497 83.232 268.713 83.6C268.937 83.96 269.049 84.368 269.049 84.824V89H268.149V85.172C268.149 84.78 268.077 84.448 267.933 84.176C267.797 83.904 267.609 83.696 267.369 83.552C267.129 83.4 266.853 83.324 266.541 83.324C266.237 83.324 265.961 83.4 265.713 83.552C265.465 83.696 265.269 83.908 265.125 84.188C264.981 84.46 264.909 84.788 264.909 85.172V89H264.009V85.172C264.009 84.78 263.937 84.448 263.793 84.176C263.657 83.904 263.469 83.696 263.229 83.552C262.989 83.4 262.713 83.324 262.401 83.324C262.089 83.324 261.809 83.4 261.561 83.552C261.321 83.696 261.129 83.908 260.985 84.188C260.841 84.46 260.769 84.788 260.769 85.172V89H259.869ZM270.768 91.4V82.568H271.668V84.008L271.524 83.756C271.78 83.348 272.12 83.024 272.544 82.784C272.976 82.544 273.468 82.424 274.02 82.424C274.628 82.424 275.168 82.572 275.64 82.868C276.12 83.156 276.496 83.552 276.768 84.056C277.048 84.56 277.188 85.136 277.188 85.784C277.188 86.424 277.048 87 276.768 87.512C276.496 88.016 276.12 88.416 275.64 88.712C275.168 89 274.628 89.144 274.02 89.144C273.468 89.144 272.968 89.02 272.52 88.772C272.08 88.516 271.748 88.156 271.524 87.692L271.668 87.56V91.4H270.768ZM273.972 88.244C274.404 88.244 274.788 88.136 275.124 87.92C275.468 87.704 275.736 87.412 275.928 87.044C276.128 86.668 276.228 86.248 276.228 85.784C276.228 85.312 276.128 84.892 275.928 84.524C275.736 84.156 275.468 83.864 275.124 83.648C274.788 83.432 274.404 83.324 273.972 83.324C273.54 83.324 273.148 83.432 272.796 83.648C272.452 83.864 272.176 84.16 271.968 84.536C271.768 84.904 271.668 85.32 271.668 85.784C271.668 86.248 271.768 86.668 271.968 87.044C272.176 87.412 272.452 87.704 272.796 87.92C273.148 88.136 273.54 88.244 273.972 88.244ZM281.7 89.144C281.1 89.144 280.556 89 280.068 88.712C279.588 88.416 279.208 88.012 278.928 87.5C278.648 86.988 278.508 86.408 278.508 85.76C278.508 85.112 278.644 84.54 278.916 84.044C279.188 83.54 279.556 83.144 280.02 82.856C280.492 82.568 281.02 82.424 281.604 82.424C282.068 82.424 282.48 82.512 282.84 82.688C283.208 82.856 283.52 83.088 283.776 83.384C284.032 83.672 284.228 84 284.364 84.368C284.5 84.728 284.568 85.1 284.568 85.484C284.568 85.564 284.564 85.656 284.556 85.76C284.548 85.856 284.536 85.956 284.52 86.06H279.084V85.22H284.004L283.572 85.58C283.644 85.14 283.592 84.748 283.416 84.404C283.248 84.052 283.004 83.776 282.684 83.576C282.364 83.368 282.004 83.264 281.604 83.264C281.204 83.264 280.832 83.368 280.488 83.576C280.152 83.784 279.888 84.076 279.696 84.452C279.504 84.82 279.428 85.26 279.468 85.772C279.428 86.284 279.508 86.732 279.708 87.116C279.916 87.492 280.196 87.784 280.548 87.992C280.908 88.2 281.292 88.304 281.7 88.304C282.172 88.304 282.568 88.192 282.888 87.968C283.208 87.744 283.468 87.464 283.668 87.128L284.436 87.536C284.308 87.824 284.112 88.092 283.848 88.34C283.584 88.58 283.268 88.776 282.9 88.928C282.54 89.072 282.14 89.144 281.7 89.144ZM288.614 89.072C288.038 89.072 287.594 88.904 287.282 88.568C286.97 88.232 286.814 87.752 286.814 87.128V83.468H285.626V82.568H285.926C286.198 82.568 286.414 82.48 286.574 82.304C286.734 82.12 286.814 81.892 286.814 81.62V81.08H287.714V82.568H289.13V83.468H287.714V87.128C287.714 87.344 287.746 87.536 287.81 87.704C287.874 87.864 287.982 87.992 288.134 88.088C288.294 88.184 288.506 88.232 288.77 88.232C288.834 88.232 288.91 88.228 288.998 88.22C289.086 88.212 289.162 88.204 289.226 88.196V89C289.13 89.024 289.022 89.04 288.902 89.048C288.782 89.064 288.686 89.072 288.614 89.072ZM290.807 89V82.568H291.707V89H290.807ZM290.807 81.38V80.06H291.707V81.38H290.807ZM296.009 89.072C295.433 89.072 294.989 88.904 294.677 88.568C294.365 88.232 294.209 87.752 294.209 87.128V83.468H293.021V82.568H293.321C293.593 82.568 293.809 82.48 293.969 82.304C294.129 82.12 294.209 81.892 294.209 81.62V81.08H295.109V82.568H296.525V83.468H295.109V87.128C295.109 87.344 295.141 87.536 295.205 87.704C295.269 87.864 295.377 87.992 295.529 88.088C295.689 88.184 295.901 88.232 296.165 88.232C296.229 88.232 296.305 88.228 296.393 88.22C296.481 88.212 296.557 88.204 296.621 88.196V89C296.525 89.024 296.417 89.04 296.297 89.048C296.177 89.064 296.081 89.072 296.009 89.072ZM300.979 89.144C300.371 89.144 299.819 89 299.323 88.712C298.827 88.416 298.431 88.016 298.135 87.512C297.847 87 297.703 86.42 297.703 85.772C297.703 85.132 297.847 84.56 298.135 84.056C298.423 83.552 298.811 83.156 299.299 82.868C299.795 82.572 300.355 82.424 300.979 82.424C301.603 82.424 302.159 82.568 302.647 82.856C303.143 83.144 303.531 83.54 303.811 84.044C304.099 84.548 304.243 85.124 304.243 85.772C304.243 86.428 304.095 87.012 303.799 87.524C303.503 88.028 303.107 88.424 302.611 88.712C302.123 89 301.579 89.144 300.979 89.144ZM300.979 88.244C301.411 88.244 301.799 88.136 302.143 87.92C302.495 87.704 302.771 87.408 302.971 87.032C303.179 86.656 303.283 86.236 303.283 85.772C303.283 85.308 303.179 84.892 302.971 84.524C302.771 84.156 302.495 83.864 302.143 83.648C301.799 83.432 301.411 83.324 300.979 83.324C300.547 83.324 300.155 83.432 299.803 83.648C299.459 83.864 299.183 84.156 298.975 84.524C298.767 84.892 298.663 85.308 298.663 85.772C298.663 86.236 298.767 86.656 298.975 87.032C299.183 87.408 299.459 87.704 299.803 87.92C300.155 88.136 300.547 88.244 300.979 88.244ZM305.83 89V82.568H306.73V83.624L306.61 83.468C306.762 83.164 306.99 82.924 307.294 82.748C307.606 82.572 307.982 82.484 308.422 82.484H308.83V83.384H308.266C307.802 83.384 307.43 83.528 307.15 83.816C306.87 84.104 306.73 84.512 306.73 85.04V89H305.83ZM312.117 89.144C311.501 89.144 310.961 88.988 310.497 88.676C310.033 88.364 309.697 87.94 309.489 87.404L310.245 87.044C310.429 87.436 310.685 87.748 311.013 87.98C311.349 88.212 311.717 88.328 312.117 88.328C312.501 88.328 312.825 88.236 313.089 88.052C313.353 87.86 313.485 87.612 313.485 87.308C313.485 87.084 313.421 86.908 313.293 86.78C313.165 86.644 313.017 86.54 312.849 86.468C312.681 86.396 312.533 86.344 312.405 86.312L311.481 86.048C310.889 85.88 310.461 85.644 310.197 85.34C309.933 85.036 309.801 84.684 309.801 84.284C309.801 83.908 309.897 83.58 310.089 83.3C310.281 83.02 310.541 82.804 310.869 82.652C311.197 82.5 311.561 82.424 311.961 82.424C312.505 82.424 312.997 82.568 313.437 82.856C313.885 83.136 314.201 83.528 314.385 84.032L313.617 84.392C313.457 84.032 313.225 83.752 312.921 83.552C312.625 83.344 312.293 83.24 311.925 83.24C311.565 83.24 311.277 83.332 311.061 83.516C310.845 83.7 310.737 83.932 310.737 84.212C310.737 84.428 310.793 84.6 310.905 84.728C311.017 84.856 311.145 84.952 311.289 85.016C311.441 85.08 311.573 85.128 311.685 85.16L312.753 85.472C313.273 85.624 313.677 85.86 313.965 86.18C314.261 86.5 314.409 86.876 314.409 87.308C314.409 87.66 314.309 87.976 314.109 88.256C313.917 88.536 313.649 88.756 313.305 88.916C312.961 89.068 312.565 89.144 312.117 89.144ZM52.784 105.144C52.376 105.144 52.012 105.068 51.692 104.916C51.372 104.756 51.12 104.54 50.936 104.268C50.752 103.996 50.66 103.684 50.66 103.332C50.66 102.996 50.732 102.692 50.876 102.42C51.02 102.14 51.244 101.904 51.548 101.712C51.852 101.52 52.24 101.384 52.712 101.304L55.232 100.884V101.7L52.928 102.084C52.464 102.164 52.128 102.312 51.92 102.528C51.72 102.744 51.62 103 51.62 103.296C51.62 103.584 51.732 103.828 51.956 104.028C52.188 104.228 52.484 104.328 52.844 104.328C53.284 104.328 53.668 104.236 53.996 104.052C54.324 103.86 54.58 103.604 54.764 103.284C54.948 102.964 55.04 102.608 55.04 102.216V100.584C55.04 100.2 54.9 99.888 54.62 99.648C54.34 99.408 53.976 99.288 53.528 99.288C53.136 99.288 52.792 99.388 52.496 99.588C52.2 99.78 51.98 100.032 51.836 100.344L51.02 99.9C51.14 99.628 51.328 99.38 51.584 99.156C51.848 98.932 52.148 98.756 52.484 98.628C52.82 98.492 53.168 98.424 53.528 98.424C54 98.424 54.416 98.516 54.776 98.7C55.144 98.884 55.428 99.14 55.628 99.468C55.836 99.788 55.94 100.16 55.94 100.584V105H55.04V103.716L55.172 103.848C55.06 104.088 54.884 104.308 54.644 104.508C54.412 104.7 54.136 104.856 53.816 104.976C53.504 105.088 53.16 105.144 52.784 105.144ZM57.7912 105V98.568H58.6912V99.816L58.4872 99.768C58.6472 99.352 58.9072 99.024 59.2672 98.784C59.6352 98.544 60.0592 98.424 60.5392 98.424C60.9952 98.424 61.4032 98.528 61.7632 98.736C62.1312 98.944 62.4192 99.232 62.6272 99.6C62.8432 99.96 62.9512 100.368 62.9512 100.824V105H62.0512V101.172C62.0512 100.78 61.9792 100.448 61.8352 100.176C61.6992 99.904 61.5032 99.696 61.2472 99.552C60.9992 99.4 60.7112 99.324 60.3832 99.324C60.0552 99.324 59.7632 99.4 59.5072 99.552C59.2512 99.696 59.0512 99.908 58.9072 100.188C58.7632 100.46 58.6912 100.788 58.6912 101.172V105H57.7912ZM67.5741 105.144C66.9741 105.144 66.4341 105 65.9541 104.712C65.4741 104.416 65.0941 104.016 64.8141 103.512C64.5421 103 64.4061 102.424 64.4061 101.784C64.4061 101.136 64.5421 100.56 64.8141 100.056C65.0941 99.552 65.4701 99.156 65.9421 98.868C66.4221 98.572 66.9661 98.424 67.5741 98.424C68.1261 98.424 68.6181 98.544 69.0501 98.784C69.4821 99.024 69.8221 99.348 70.0701 99.756L69.9261 100.008V95.916H70.8261V105H69.9261V103.56L70.0701 103.692C69.8461 104.156 69.5101 104.516 69.0621 104.772C68.6221 105.02 68.1261 105.144 67.5741 105.144ZM67.6221 104.244C68.0541 104.244 68.4421 104.136 68.7861 103.92C69.1381 103.704 69.4141 103.412 69.6141 103.044C69.8221 102.668 69.9261 102.248 69.9261 101.784C69.9261 101.32 69.8221 100.904 69.6141 100.536C69.4141 100.16 69.1381 99.864 68.7861 99.648C68.4421 99.432 68.0541 99.324 67.6221 99.324C67.1981 99.324 66.8141 99.432 66.4701 99.648C66.1261 99.864 65.8541 100.156 65.6541 100.524C65.4621 100.892 65.3661 101.312 65.3661 101.784C65.3661 102.248 65.4621 102.668 65.6541 103.044C65.8541 103.412 66.1221 103.704 66.4581 103.92C66.8021 104.136 67.1901 104.244 67.6221 104.244ZM76.1291 105L73.9211 98.568H74.9411L76.7651 104.196H76.4051L78.1211 98.568H79.0211L80.7371 104.196H80.3771L82.2131 98.568H83.2211L81.0131 105H80.1131L78.4451 99.492H78.6971L77.0291 105H76.1291ZM84.2756 105V95.916H85.1756V99.816L84.9716 99.768C85.1316 99.352 85.3916 99.024 85.7516 98.784C86.1196 98.544 86.5436 98.424 87.0236 98.424C87.4796 98.424 87.8876 98.528 88.2476 98.736C88.6156 98.944 88.9036 99.232 89.1116 99.6C89.3276 99.96 89.4356 100.368 89.4356 100.824V105H88.5356V101.172C88.5356 100.78 88.4636 100.448 88.3196 100.176C88.1756 99.904 87.9756 99.696 87.7196 99.552C87.4716 99.4 87.1876 99.324 86.8676 99.324C86.5476 99.324 86.2596 99.4 86.0036 99.552C85.7476 99.696 85.5436 99.908 85.3916 100.188C85.2476 100.46 85.1756 100.788 85.1756 101.172V105H84.2756ZM91.1693 107.64C91.0413 107.64 90.9093 107.628 90.7733 107.604C90.6453 107.588 90.5173 107.556 90.3893 107.508V106.668C90.4693 106.676 90.5693 106.688 90.6893 106.704C90.8173 106.728 90.9453 106.74 91.0733 106.74C91.4653 106.74 91.7653 106.656 91.9733 106.488C92.1813 106.328 92.3853 106.016 92.5853 105.552L92.9933 104.592L92.9693 105.384L90.2453 98.568H91.2173L93.4493 104.196H93.1973L95.4173 98.568H96.4133L93.4733 105.816C93.3453 106.128 93.1813 106.424 92.9813 106.704C92.7893 106.984 92.5453 107.208 92.2493 107.376C91.9533 107.552 91.5933 107.64 91.1693 107.64ZM100.926 105L98.7179 98.568H99.7379L101.562 104.196H101.202L102.918 98.568H103.818L105.534 104.196H105.174L107.01 98.568H108.018L105.81 105H104.91L103.242 99.492H103.494L101.826 105H100.926ZM111.883 105.144C111.283 105.144 110.739 105 110.251 104.712C109.771 104.416 109.391 104.012 109.111 103.5C108.831 102.988 108.691 102.408 108.691 101.76C108.691 101.112 108.827 100.54 109.099 100.044C109.371 99.54 109.739 99.144 110.203 98.856C110.675 98.568 111.203 98.424 111.787 98.424C112.251 98.424 112.663 98.512 113.023 98.688C113.391 98.856 113.703 99.088 113.959 99.384C114.215 99.672 114.411 100 114.547 100.368C114.683 100.728 114.751 101.1 114.751 101.484C114.751 101.564 114.747 101.656 114.739 101.76C114.731 101.856 114.719 101.956 114.703 102.06H109.267V101.22H114.187L113.755 101.58C113.827 101.14 113.775 100.748 113.599 100.404C113.431 100.052 113.187 99.776 112.867 99.576C112.547 99.368 112.187 99.264 111.787 99.264C111.387 99.264 111.015 99.368 110.671 99.576C110.335 99.784 110.071 100.076 109.879 100.452C109.687 100.82 109.611 101.26 109.651 101.772C109.611 102.284 109.691 102.732 109.891 103.116C110.099 103.492 110.379 103.784 110.731 103.992C111.091 104.2 111.475 104.304 111.883 104.304C112.355 104.304 112.751 104.192 113.071 103.968C113.391 103.744 113.651 103.464 113.851 103.128L114.619 103.536C114.491 103.824 114.295 104.092 114.031 104.34C113.767 104.58 113.451 104.776 113.083 104.928C112.723 105.072 112.323 105.144 111.883 105.144ZM116.554 98.676L116.398 96.06H117.358L117.214 98.676H116.554ZM119.279 105V98.568H120.179V99.624L120.059 99.468C120.211 99.164 120.439 98.924 120.743 98.748C121.055 98.572 121.431 98.484 121.871 98.484H122.279V99.384H121.715C121.251 99.384 120.879 99.528 120.599 99.816C120.319 100.104 120.179 100.512 120.179 101.04V105H119.279ZM126.262 105.144C125.662 105.144 125.118 105 124.63 104.712C124.15 104.416 123.77 104.012 123.49 103.5C123.21 102.988 123.07 102.408 123.07 101.76C123.07 101.112 123.206 100.54 123.478 100.044C123.75 99.54 124.118 99.144 124.582 98.856C125.054 98.568 125.582 98.424 126.166 98.424C126.63 98.424 127.042 98.512 127.402 98.688C127.77 98.856 128.082 99.088 128.338 99.384C128.594 99.672 128.79 100 128.926 100.368C129.062 100.728 129.13 101.1 129.13 101.484C129.13 101.564 129.126 101.656 129.118 101.76C129.11 101.856 129.098 101.956 129.082 102.06H123.646V101.22H128.566L128.134 101.58C128.206 101.14 128.154 100.748 127.978 100.404C127.81 100.052 127.566 99.776 127.246 99.576C126.926 99.368 126.566 99.264 126.166 99.264C125.766 99.264 125.394 99.368 125.05 99.576C124.714 99.784 124.45 100.076 124.258 100.452C124.066 100.82 123.99 101.26 124.03 101.772C123.99 102.284 124.07 102.732 124.27 103.116C124.478 103.492 124.758 103.784 125.11 103.992C125.47 104.2 125.854 104.304 126.262 104.304C126.734 104.304 127.13 104.192 127.45 103.968C127.77 103.744 128.03 103.464 128.23 103.128L128.998 103.536C128.87 103.824 128.674 104.092 128.41 104.34C128.146 104.58 127.83 104.776 127.462 104.928C127.102 105.072 126.702 105.144 126.262 105.144ZM132.756 105V98.568H133.656V99.624L133.536 99.468C133.688 99.164 133.916 98.924 134.22 98.748C134.532 98.572 134.908 98.484 135.348 98.484H135.756V99.384H135.192C134.728 99.384 134.356 99.528 134.076 99.816C133.796 100.104 133.656 100.512 133.656 101.04V105H132.756ZM138.671 105.144C138.263 105.144 137.899 105.068 137.579 104.916C137.259 104.756 137.007 104.54 136.823 104.268C136.639 103.996 136.547 103.684 136.547 103.332C136.547 102.996 136.619 102.692 136.763 102.42C136.907 102.14 137.131 101.904 137.435 101.712C137.739 101.52 138.127 101.384 138.599 101.304L141.119 100.884V101.7L138.815 102.084C138.351 102.164 138.015 102.312 137.807 102.528C137.607 102.744 137.507 103 137.507 103.296C137.507 103.584 137.619 103.828 137.843 104.028C138.075 104.228 138.371 104.328 138.731 104.328C139.171 104.328 139.555 104.236 139.883 104.052C140.211 103.86 140.467 103.604 140.651 103.284C140.835 102.964 140.927 102.608 140.927 102.216V100.584C140.927 100.2 140.787 99.888 140.507 99.648C140.227 99.408 139.863 99.288 139.415 99.288C139.023 99.288 138.679 99.388 138.383 99.588C138.087 99.78 137.867 100.032 137.723 100.344L136.907 99.9C137.027 99.628 137.215 99.38 137.471 99.156C137.735 98.932 138.035 98.756 138.371 98.628C138.707 98.492 139.055 98.424 139.415 98.424C139.887 98.424 140.303 98.516 140.663 98.7C141.031 98.884 141.315 99.14 141.515 99.468C141.723 99.788 141.827 100.16 141.827 100.584V105H140.927V103.716L141.059 103.848C140.947 104.088 140.771 104.308 140.531 104.508C140.299 104.7 140.023 104.856 139.703 104.976C139.391 105.088 139.047 105.144 138.671 105.144ZM143.678 105V98.568H144.578V99.816L144.374 99.768C144.534 99.352 144.794 99.024 145.154 98.784C145.522 98.544 145.946 98.424 146.426 98.424C146.882 98.424 147.29 98.528 147.65 98.736C148.018 98.944 148.306 99.232 148.514 99.6C148.73 99.96 148.838 100.368 148.838 100.824V105H147.938V101.172C147.938 100.78 147.866 100.448 147.722 100.176C147.586 99.904 147.39 99.696 147.134 99.552C146.886 99.4 146.598 99.324 146.27 99.324C145.942 99.324 145.65 99.4 145.394 99.552C145.138 99.696 144.938 99.908 144.794 100.188C144.65 100.46 144.578 100.788 144.578 101.172V105H143.678ZM150.557 105V95.916H151.457V102.276L151.073 102.216L154.685 98.568H155.849L153.329 101.148L156.077 105H154.997L152.417 101.436L152.993 101.484L151.157 103.38L151.457 102.636V105H150.557ZM159.942 105.144C159.342 105.144 158.798 105 158.31 104.712C157.83 104.416 157.45 104.012 157.17 103.5C156.89 102.988 156.75 102.408 156.75 101.76C156.75 101.112 156.886 100.54 157.158 100.044C157.43 99.54 157.798 99.144 158.262 98.856C158.734 98.568 159.262 98.424 159.846 98.424C160.31 98.424 160.722 98.512 161.082 98.688C161.45 98.856 161.762 99.088 162.018 99.384C162.274 99.672 162.47 100 162.606 100.368C162.742 100.728 162.81 101.1 162.81 101.484C162.81 101.564 162.806 101.656 162.798 101.76C162.79 101.856 162.778 101.956 162.762 102.06H157.326V101.22H162.246L161.814 101.58C161.886 101.14 161.834 100.748 161.658 100.404C161.49 100.052 161.246 99.776 160.926 99.576C160.606 99.368 160.246 99.264 159.846 99.264C159.446 99.264 159.074 99.368 158.73 99.576C158.394 99.784 158.13 100.076 157.938 100.452C157.746 100.82 157.67 101.26 157.71 101.772C157.67 102.284 157.75 102.732 157.95 103.116C158.158 103.492 158.438 103.784 158.79 103.992C159.15 104.2 159.534 104.304 159.942 104.304C160.414 104.304 160.81 104.192 161.13 103.968C161.45 103.744 161.71 103.464 161.91 103.128L162.678 103.536C162.55 103.824 162.354 104.092 162.09 104.34C161.826 104.58 161.51 104.776 161.142 104.928C160.782 105.072 160.382 105.144 159.942 105.144ZM167.301 105.144C166.701 105.144 166.161 105 165.681 104.712C165.201 104.416 164.821 104.016 164.541 103.512C164.269 103 164.133 102.424 164.133 101.784C164.133 101.136 164.269 100.56 164.541 100.056C164.821 99.552 165.197 99.156 165.669 98.868C166.149 98.572 166.693 98.424 167.301 98.424C167.853 98.424 168.345 98.544 168.777 98.784C169.209 99.024 169.549 99.348 169.797 99.756L169.653 100.008V95.916H170.553V105H169.653V103.56L169.797 103.692C169.573 104.156 169.237 104.516 168.789 104.772C168.349 105.02 167.853 105.144 167.301 105.144ZM167.349 104.244C167.781 104.244 168.169 104.136 168.513 103.92C168.865 103.704 169.141 103.412 169.341 103.044C169.549 102.668 169.653 102.248 169.653 101.784C169.653 101.32 169.549 100.904 169.341 100.536C169.141 100.16 168.865 99.864 168.513 99.648C168.169 99.432 167.781 99.324 167.349 99.324C166.925 99.324 166.541 99.432 166.197 99.648C165.853 99.864 165.581 100.156 165.381 100.524C165.189 100.892 165.093 101.312 165.093 101.784C165.093 102.248 165.189 102.668 165.381 103.044C165.581 103.412 165.849 103.704 166.185 103.92C166.529 104.136 166.917 104.244 167.349 104.244ZM176.3 105.144C175.892 105.144 175.528 105.068 175.208 104.916C174.888 104.756 174.636 104.54 174.452 104.268C174.268 103.996 174.176 103.684 174.176 103.332C174.176 102.996 174.248 102.692 174.392 102.42C174.536 102.14 174.76 101.904 175.064 101.712C175.368 101.52 175.756 101.384 176.228 101.304L178.748 100.884V101.7L176.444 102.084C175.98 102.164 175.644 102.312 175.436 102.528C175.236 102.744 175.136 103 175.136 103.296C175.136 103.584 175.248 103.828 175.472 104.028C175.704 104.228 176 104.328 176.36 104.328C176.8 104.328 177.184 104.236 177.512 104.052C177.84 103.86 178.096 103.604 178.28 103.284C178.464 102.964 178.556 102.608 178.556 102.216V100.584C178.556 100.2 178.416 99.888 178.136 99.648C177.856 99.408 177.492 99.288 177.044 99.288C176.652 99.288 176.308 99.388 176.012 99.588C175.716 99.78 175.496 100.032 175.352 100.344L174.536 99.9C174.656 99.628 174.844 99.38 175.1 99.156C175.364 98.932 175.664 98.756 176 98.628C176.336 98.492 176.684 98.424 177.044 98.424C177.516 98.424 177.932 98.516 178.292 98.7C178.66 98.884 178.944 99.14 179.144 99.468C179.352 99.788 179.456 100.16 179.456 100.584V105H178.556V103.716L178.688 103.848C178.576 104.088 178.4 104.308 178.16 104.508C177.928 104.7 177.652 104.856 177.332 104.976C177.02 105.088 176.676 105.144 176.3 105.144ZM183.65 105.072C183.074 105.072 182.63 104.904 182.318 104.568C182.006 104.232 181.85 103.752 181.85 103.128V99.468H180.662V98.568H180.962C181.234 98.568 181.45 98.48 181.61 98.304C181.77 98.12 181.85 97.892 181.85 97.62V97.08H182.75V98.568H184.166V99.468H182.75V103.128C182.75 103.344 182.782 103.536 182.846 103.704C182.91 103.864 183.018 103.992 183.17 104.088C183.33 104.184 183.542 104.232 183.806 104.232C183.87 104.232 183.946 104.228 184.034 104.22C184.122 104.212 184.198 104.204 184.262 104.196V105C184.166 105.024 184.058 105.04 183.938 105.048C183.818 105.064 183.722 105.072 183.65 105.072ZM190.341 105.072C189.765 105.072 189.321 104.904 189.009 104.568C188.697 104.232 188.541 103.752 188.541 103.128V99.468H187.353V98.568H187.653C187.925 98.568 188.141 98.48 188.301 98.304C188.461 98.12 188.541 97.892 188.541 97.62V97.08H189.441V98.568H190.857V99.468H189.441V103.128C189.441 103.344 189.473 103.536 189.537 103.704C189.601 103.864 189.709 103.992 189.861 104.088C190.021 104.184 190.233 104.232 190.497 104.232C190.561 104.232 190.637 104.228 190.725 104.22C190.813 104.212 190.889 104.204 190.953 104.196V105C190.857 105.024 190.749 105.04 190.629 105.048C190.509 105.064 190.413 105.072 190.341 105.072ZM192.533 105V95.916H193.433V99.816L193.229 99.768C193.389 99.352 193.649 99.024 194.009 98.784C194.377 98.544 194.801 98.424 195.281 98.424C195.737 98.424 196.145 98.528 196.505 98.736C196.873 98.944 197.161 99.232 197.369 99.6C197.585 99.96 197.693 100.368 197.693 100.824V105H196.793V101.172C196.793 100.78 196.721 100.448 196.577 100.176C196.433 99.904 196.233 99.696 195.977 99.552C195.729 99.4 195.445 99.324 195.125 99.324C194.805 99.324 194.517 99.4 194.261 99.552C194.005 99.696 193.801 99.908 193.649 100.188C193.505 100.46 193.433 100.788 193.433 101.172V105H192.533ZM202.34 105.144C201.74 105.144 201.196 105 200.708 104.712C200.228 104.416 199.848 104.012 199.568 103.5C199.288 102.988 199.148 102.408 199.148 101.76C199.148 101.112 199.284 100.54 199.556 100.044C199.828 99.54 200.196 99.144 200.66 98.856C201.132 98.568 201.66 98.424 202.244 98.424C202.708 98.424 203.12 98.512 203.48 98.688C203.848 98.856 204.16 99.088 204.416 99.384C204.672 99.672 204.868 100 205.004 100.368C205.14 100.728 205.208 101.1 205.208 101.484C205.208 101.564 205.204 101.656 205.196 101.76C205.188 101.856 205.176 101.956 205.16 102.06H199.724V101.22H204.644L204.212 101.58C204.284 101.14 204.232 100.748 204.056 100.404C203.888 100.052 203.644 99.776 203.324 99.576C203.004 99.368 202.644 99.264 202.244 99.264C201.844 99.264 201.472 99.368 201.128 99.576C200.792 99.784 200.528 100.076 200.336 100.452C200.144 100.82 200.068 101.26 200.108 101.772C200.068 102.284 200.148 102.732 200.348 103.116C200.556 103.492 200.836 103.784 201.188 103.992C201.548 104.2 201.932 104.304 202.34 104.304C202.812 104.304 203.208 104.192 203.528 103.968C203.848 103.744 204.108 103.464 204.308 103.128L205.076 103.536C204.948 103.824 204.752 104.092 204.488 104.34C204.224 104.58 203.908 104.776 203.54 104.928C203.18 105.072 202.78 105.144 202.34 105.144ZM211.294 105.072C210.718 105.072 210.274 104.904 209.962 104.568C209.65 104.232 209.494 103.752 209.494 103.128V99.468H208.306V98.568H208.606C208.878 98.568 209.094 98.48 209.254 98.304C209.414 98.12 209.494 97.892 209.494 97.62V97.08H210.394V98.568H211.81V99.468H210.394V103.128C210.394 103.344 210.426 103.536 210.49 103.704C210.554 103.864 210.662 103.992 210.814 104.088C210.974 104.184 211.186 104.232 211.45 104.232C211.514 104.232 211.59 104.228 211.678 104.22C211.766 104.212 211.842 104.204 211.906 104.196V105C211.81 105.024 211.702 105.04 211.582 105.048C211.462 105.064 211.366 105.072 211.294 105.072ZM216.264 105.144C215.656 105.144 215.104 105 214.608 104.712C214.112 104.416 213.716 104.016 213.42 103.512C213.132 103 212.988 102.42 212.988 101.772C212.988 101.132 213.132 100.56 213.42 100.056C213.708 99.552 214.096 99.156 214.584 98.868C215.08 98.572 215.64 98.424 216.264 98.424C216.888 98.424 217.444 98.568 217.932 98.856C218.428 99.144 218.816 99.54 219.096 100.044C219.384 100.548 219.528 101.124 219.528 101.772C219.528 102.428 219.38 103.012 219.084 103.524C218.788 104.028 218.392 104.424 217.896 104.712C217.408 105 216.864 105.144 216.264 105.144ZM216.264 104.244C216.696 104.244 217.084 104.136 217.428 103.92C217.78 103.704 218.056 103.408 218.256 103.032C218.464 102.656 218.568 102.236 218.568 101.772C218.568 101.308 218.464 100.892 218.256 100.524C218.056 100.156 217.78 99.864 217.428 99.648C217.084 99.432 216.696 99.324 216.264 99.324C215.832 99.324 215.44 99.432 215.088 99.648C214.744 99.864 214.468 100.156 214.26 100.524C214.052 100.892 213.948 101.308 213.948 101.772C213.948 102.236 214.052 102.656 214.26 103.032C214.468 103.408 214.744 103.704 215.088 103.92C215.44 104.136 215.832 104.244 216.264 104.244ZM221.115 107.4V98.568H222.015V100.008L221.871 99.756C222.127 99.348 222.467 99.024 222.891 98.784C223.323 98.544 223.815 98.424 224.367 98.424C224.975 98.424 225.515 98.572 225.987 98.868C226.467 99.156 226.843 99.552 227.115 100.056C227.395 100.56 227.535 101.136 227.535 101.784C227.535 102.424 227.395 103 227.115 103.512C226.843 104.016 226.467 104.416 225.987 104.712C225.515 105 224.975 105.144 224.367 105.144C223.815 105.144 223.315 105.02 222.867 104.772C222.427 104.516 222.095 104.156 221.871 103.692L222.015 103.56V107.4H221.115ZM224.319 104.244C224.751 104.244 225.135 104.136 225.471 103.92C225.815 103.704 226.083 103.412 226.275 103.044C226.475 102.668 226.575 102.248 226.575 101.784C226.575 101.312 226.475 100.892 226.275 100.524C226.083 100.156 225.815 99.864 225.471 99.648C225.135 99.432 224.751 99.324 224.319 99.324C223.887 99.324 223.495 99.432 223.143 99.648C222.799 99.864 222.523 100.16 222.315 100.536C222.115 100.904 222.015 101.32 222.015 101.784C222.015 102.248 222.115 102.668 222.315 103.044C222.523 103.412 222.799 103.704 223.143 103.92C223.495 104.136 223.887 104.244 224.319 104.244ZM229.431 105V103.68H230.391V105H229.431Z" fill="black"/>
</svg>
