<svg width="500" height="500" viewBox="0 0 500 500" fill="none" xmlns="http://www.w3.org/2000/svg">
<rect width="500" height="500" rx="20" fill="white"/>
<line x1="49.5" y1="100" x2="49.5" y2="453" stroke="#E9E9E9"/>
<line x1="129.5" y1="100" x2="129.5" y2="453" stroke="#E9E9E9" stroke-dasharray="5 6"/>
<line x1="449" y1="160.5" x2="49" y2="160.5" stroke="#E9E9E9" stroke-dasharray="5 6"/>
<line x1="449" y1="99.5" x2="49" y2="99.5" stroke="#E9E9E9" stroke-dasharray="5 6"/>
<line x1="209.5" y1="160" x2="209.5" y2="453" stroke="#E9E9E9" stroke-dasharray="5 6"/>
<line x1="449" y1="220.5" x2="49" y2="220.5" stroke="#E9E9E9" stroke-dasharray="5 6"/>
<line x1="289.5" y1="100" x2="289.5" y2="453" stroke="#E9E9E9" stroke-dasharray="5 6"/>
<line x1="369.5" y1="100" x2="369.5" y2="453" stroke="#E9E9E9" stroke-dasharray="5 6"/>
<line x1="449" y1="340.5" x2="49" y2="340.5" stroke="#E9E9E9" stroke-dasharray="5 6"/>
<line x1="449.5" y1="100" x2="449.5" y2="453" stroke="#E9E9E9" stroke-dasharray="5 6"/>
<line x1="449" y1="400.5" x2="49" y2="400.5" stroke="#E9E9E9" stroke-dasharray="5 6"/>
<line x1="448" y1="453.5" x2="49" y2="453.5" stroke="#E9E9E9"/>
<line x1="450" y1="280.5" x2="49" y2="280.5" stroke="#032E9B"/>
<line x1="209.5" y1="100" x2="209.5" y2="453" stroke="#032E9B"/>
<path d="M107.332 195H108.565V191.281H110.792C113.164 191.281 114.233 189.84 114.233 188.04C114.233 186.24 113.164 184.818 110.772 184.818H107.332V195ZM108.565 190.188V185.912H110.733C112.388 185.912 113.02 186.817 113.02 188.04C113.02 189.263 112.388 190.188 110.752 190.188H108.565Z" fill="#6D6D6D"/>
<path d="M116.06 195H117.233V190.168C117.233 189.134 118.048 188.378 119.162 188.378C119.475 188.378 119.798 188.438 119.878 188.458V187.264C119.744 187.254 119.435 187.244 119.261 187.244C118.347 187.244 117.551 187.762 117.273 188.517H117.193V187.364H116.06V195Z" fill="#6D6D6D"/>
<path d="M124.138 195.159C126.207 195.159 127.599 193.588 127.599 191.222C127.599 188.835 126.207 187.264 124.138 187.264C122.07 187.264 120.678 188.835 120.678 191.222C120.678 193.588 122.07 195.159 124.138 195.159ZM124.138 194.105C122.567 194.105 121.852 192.753 121.852 191.222C121.852 189.691 122.567 188.318 124.138 188.318C125.71 188.318 126.425 189.691 126.425 191.222C126.425 192.753 125.71 194.105 124.138 194.105Z" fill="#6D6D6D"/>
<path d="M135.361 187.364H134.088L131.98 193.449H131.9L129.792 187.364H128.52L131.344 195H132.537L135.361 187.364Z" fill="#6D6D6D"/>
<path d="M139.838 195.159C141.389 195.159 142.522 194.384 142.88 193.23L141.747 192.912C141.448 193.708 140.757 194.105 139.838 194.105C138.46 194.105 137.511 193.215 137.456 191.58H142.999V191.083C142.999 188.239 141.309 187.264 139.718 187.264C137.65 187.264 136.278 188.895 136.278 191.242C136.278 193.588 137.63 195.159 139.838 195.159ZM137.456 190.566C137.536 189.377 138.376 188.318 139.718 188.318C140.991 188.318 141.806 189.273 141.806 190.566H137.456Z" fill="#6D6D6D"/>
<path d="M145.958 190.406C145.958 189.074 146.783 188.318 147.906 188.318C148.995 188.318 149.656 189.029 149.656 190.227V195H150.83V190.148C150.83 188.199 149.791 187.264 148.244 187.264C147.091 187.264 146.375 187.781 146.017 188.557H145.918V187.364H144.784V195H145.958V190.406Z" fill="#6D6D6D"/>
<path d="M99.6172 315H105.842V313.906H100.85V310.446H105.444V309.352H100.85V305.912H105.762V304.818H99.6172V315Z" fill="#6D6D6D"/>
<path d="M107.825 315H108.999V310.227C108.999 309.109 109.814 308.318 110.729 308.318C111.619 308.318 112.24 308.9 112.24 309.77V315H113.433V310.028C113.433 309.044 114.05 308.318 115.124 308.318C115.959 308.318 116.675 308.761 116.675 309.889V315H117.848V309.889C117.848 308.094 116.884 307.264 115.521 307.264C114.428 307.264 113.627 307.766 113.234 308.557H113.155C112.777 307.741 112.111 307.264 111.107 307.264C110.112 307.264 109.376 307.741 109.058 308.557H108.959V307.364H107.825V315Z" fill="#6D6D6D"/>
<path d="M123.195 315.159C124.746 315.159 125.88 314.384 126.238 313.23L125.104 312.912C124.806 313.707 124.115 314.105 123.195 314.105C121.818 314.105 120.868 313.215 120.814 311.58H126.357V311.082C126.357 308.239 124.667 307.264 123.076 307.264C121.007 307.264 119.635 308.895 119.635 311.241C119.635 313.588 120.988 315.159 123.195 315.159ZM120.814 310.565C120.893 309.377 121.733 308.318 123.076 308.318C124.348 308.318 125.164 309.273 125.164 310.565H120.814Z" fill="#6D6D6D"/>
<path d="M128.142 315H129.315V310.168C129.315 309.134 130.13 308.378 131.244 308.378C131.557 308.378 131.88 308.437 131.96 308.457V307.264C131.826 307.254 131.517 307.244 131.343 307.244C130.429 307.244 129.633 307.761 129.355 308.517H129.275V307.364H128.142V315Z" fill="#6D6D6D"/>
<path d="M136.201 318.023C138.03 318.023 139.502 317.188 139.502 315.219V307.364H138.368V308.577H138.249C137.99 308.179 137.513 307.264 136.022 307.264C134.093 307.264 132.76 308.795 132.76 311.142C132.76 313.528 134.152 314.881 136.002 314.881C137.493 314.881 137.971 314.006 138.229 313.588H138.328V315.139C138.328 316.412 137.434 316.989 136.201 316.989C134.814 316.989 134.326 316.258 134.013 315.835L133.078 316.491C133.556 317.292 134.495 318.023 136.201 318.023ZM136.161 313.827C134.689 313.827 133.934 312.713 133.934 311.122C133.934 309.571 134.669 308.318 136.161 308.318C137.593 308.318 138.348 309.472 138.348 311.122C138.348 312.813 137.573 313.827 136.161 313.827Z" fill="#6D6D6D"/>
<path d="M141.65 315H142.823V307.364H141.65V315ZM142.246 306.091C142.703 306.091 143.081 305.733 143.081 305.295C143.081 304.858 142.703 304.5 142.246 304.5C141.789 304.5 141.411 304.858 141.411 305.295C141.411 305.733 141.789 306.091 142.246 306.091Z" fill="#6D6D6D"/>
<path d="M146.145 310.406C146.145 309.074 146.97 308.318 148.094 308.318C149.183 308.318 149.844 309.029 149.844 310.227V315H151.017V310.148C151.017 308.199 149.978 307.264 148.432 307.264C147.279 307.264 146.563 307.781 146.205 308.557H146.105V307.364H144.972V315H146.145V310.406Z" fill="#6D6D6D"/>
<path d="M156.244 318.023C158.073 318.023 159.545 317.188 159.545 315.219V307.364H158.411V308.577H158.292C158.033 308.179 157.556 307.264 156.065 307.264C154.136 307.264 152.803 308.795 152.803 311.142C152.803 313.528 154.195 314.881 156.045 314.881C157.536 314.881 158.013 314.006 158.272 313.588H158.371V315.139C158.371 316.412 157.477 316.989 156.244 316.989C154.857 316.989 154.369 316.258 154.056 315.835L153.121 316.491C153.599 317.292 154.538 318.023 156.244 318.023ZM156.204 313.827C154.732 313.827 153.977 312.713 153.977 311.122C153.977 309.571 154.712 308.318 156.204 308.318C157.636 308.318 158.391 309.472 158.391 311.122C158.391 312.813 157.616 313.827 156.204 313.827Z" fill="#6D6D6D"/>
<path d="M335.756 304.818H334.542V312.832H334.443L328.875 304.818H327.682V315H328.915V307.006H329.014L334.562 315H335.756V304.818Z" fill="#6D6D6D"/>
<path d="M338.064 315H339.237V307.364H338.064V315ZM338.66 306.091C339.118 306.091 339.495 305.733 339.495 305.295C339.495 304.858 339.118 304.5 338.66 304.5C338.203 304.5 337.825 304.858 337.825 305.295C337.825 305.733 338.203 306.091 338.66 306.091Z" fill="#6D6D6D"/>
<path d="M344.488 315.159C346.178 315.159 347.292 314.125 347.491 312.773H346.318C346.099 313.608 345.403 314.105 344.488 314.105C343.096 314.105 342.201 312.952 342.201 311.182C342.201 309.452 343.116 308.318 344.488 308.318C345.522 308.318 346.139 308.955 346.318 309.651H347.491C347.292 308.219 346.079 307.264 344.468 307.264C342.4 307.264 341.028 308.895 341.028 311.222C341.028 313.509 342.34 315.159 344.488 315.159Z" fill="#6D6D6D"/>
<path d="M350.379 310.406C350.379 309.074 351.23 308.318 352.388 308.318C353.492 308.318 354.158 309.014 354.158 310.227V315H355.331V310.148C355.331 308.184 354.287 307.264 352.726 307.264C351.523 307.264 350.837 307.766 350.479 308.557H350.379V304.818H349.206V315H350.379V310.406Z" fill="#6D6D6D"/>
<path d="M360.679 315.159C362.23 315.159 363.364 314.384 363.722 313.23L362.588 312.912C362.29 313.707 361.599 314.105 360.679 314.105C359.302 314.105 358.353 313.215 358.298 311.58H363.841V311.082C363.841 308.239 362.151 307.264 360.56 307.264C358.492 307.264 357.12 308.895 357.12 311.241C357.12 313.588 358.472 315.159 360.679 315.159ZM358.298 310.565C358.377 309.377 359.218 308.318 360.56 308.318C361.833 308.318 362.648 309.273 362.648 310.565H358.298Z" fill="#6D6D6D"/>
<path d="M35 350L35 339M35 339L30.5 343M35 339L39.5 343" stroke="#939393"/>
<path d="M39 451.276L36.5284 450.399V446.87L39 445.992V444.884L30.2727 448.089L30.2727 449.18L39 452.384V451.276ZM35.5909 450.066L31.6534 448.669V448.6L35.5909 447.203L35.5909 450.066Z" fill="#939393"/>
<path d="M39 443.525V442.553H37.9943V442.434C38.3523 442.213 39.1364 441.786 39.1364 440.525C39.1364 438.889 37.8239 437.747 35.7443 437.747C33.6818 437.747 32.3693 438.889 32.3693 440.542C32.3693 441.82 33.1534 442.213 33.4943 442.434V442.519H30.2727L30.2727 443.525L39 443.525ZM35.7273 442.536C34.2614 442.536 33.2727 441.889 33.2727 440.661C33.2727 439.383 34.3466 438.752 35.7273 438.752C37.125 438.752 38.233 439.4 38.233 440.661C38.233 441.872 37.2102 442.536 35.7273 442.536Z" fill="#939393"/>
<path d="M39 436.208V435.203H32.4545V436.208H39ZM31.3636 435.697C31.3636 435.305 31.0568 434.981 30.6818 434.981C30.3068 434.981 30 435.305 30 435.697C30 436.089 30.3068 436.413 30.6818 436.413C31.0568 436.413 31.3636 436.089 31.3636 435.697Z" fill="#939393"/>
<path d="M30.2727 432.355L30.2727 433.361H39V432.355H30.2727Z" fill="#939393"/>
<path d="M39 430.513V429.507H32.4545V430.513H39ZM31.3636 430.002C31.3636 429.61 31.0568 429.286 30.6818 429.286C30.3068 429.286 30 429.61 30 430.002C30 430.394 30.3068 430.718 30.6818 430.718C31.0568 430.718 31.3636 430.394 31.3636 430.002Z" fill="#939393"/>
<path d="M32.4545 424.819V426.216H30.8864L30.8864 427.222H32.4545V428.211H33.3068V427.222H37.3977C38.5398 427.222 39.0852 426.302 39.0852 425.449C39.0852 425.074 39.017 424.836 38.9659 424.699L38.0625 424.904C38.0795 424.989 38.1136 425.126 38.1136 425.347C38.1136 425.79 37.9773 426.216 37.125 426.216H33.3068V424.819H32.4545Z" fill="#939393"/>
<path d="M41.4545 422.658C41.4545 421.751 40.973 421.111 39.9545 420.732L32.4716 417.945L32.4545 419.045L37.6705 420.851V420.92L32.4545 422.726V423.817L39.0341 421.397L39.5455 421.584C40.5426 421.951 40.6364 422.403 40.4489 423.135L41.3352 423.391C41.3864 423.289 41.4545 422.999 41.4545 422.658Z" fill="#939393"/>
<path d="M32.4545 410.393L32.4545 411.791H30.8864L30.8864 412.796H32.4545V413.785H33.3068L33.3068 412.796H37.3977C38.5398 412.796 39.0852 411.876 39.0852 411.024C39.0852 410.649 39.017 410.41 38.9659 410.274L38.0625 410.478C38.0795 410.563 38.1136 410.7 38.1136 410.921C38.1136 411.365 37.9773 411.791 37.125 411.791H33.3068V410.393H32.4545Z" fill="#939393"/>
<path d="M39.1364 406.291C39.1364 404.519 37.7898 403.325 35.7614 403.325C33.7159 403.325 32.3693 404.519 32.3693 406.291C32.3693 408.064 33.7159 409.257 35.7614 409.257C37.7898 409.257 39.1364 408.064 39.1364 406.291ZM38.233 406.291C38.233 407.638 37.0739 408.252 35.7614 408.252C34.4489 408.252 33.2727 407.638 33.2727 406.291C33.2727 404.945 34.4489 404.331 35.7614 404.331C37.0739 404.331 38.233 404.945 38.233 406.291Z" fill="#939393"/>
<path d="M39.1364 395.944C39.1364 394.682 38.3523 394.256 37.9943 394.035V393.915H39V392.944H30.2727L30.2727 393.949H33.4943V394.035C33.1534 394.256 32.3693 394.648 32.3693 395.927C32.3693 397.58 33.6818 398.722 35.7443 398.722C37.8239 398.722 39.1364 397.58 39.1364 395.944ZM38.233 395.807C38.233 397.069 37.125 397.716 35.7273 397.716C34.3466 397.716 33.2727 397.086 33.2727 395.807C33.2727 394.58 34.2614 393.932 35.7273 393.932C37.2102 393.932 38.233 394.597 38.233 395.807Z" fill="#939393"/>
<path d="M39.1364 388.218C39.1364 386.888 38.4716 385.917 37.483 385.61L37.2102 386.581C37.892 386.837 38.233 387.43 38.233 388.218C38.233 389.398 37.4702 390.212 36.0682 390.259V385.508H35.642C33.2045 385.508 32.3693 386.956 32.3693 388.32C32.3693 390.093 33.767 391.269 35.7784 391.269C37.7898 391.269 39.1364 390.11 39.1364 388.218ZM35.1989 390.259C34.1804 390.191 33.2727 389.471 33.2727 388.32C33.2727 387.229 34.0909 386.53 35.1989 386.53V390.259Z" fill="#939393"/>
<path d="M30.2727 382.972L30.2727 383.978H39V382.972H30.2727Z" fill="#939393"/>
<path d="M39 381.13V380.124H32.4545V381.13H39ZM31.3636 380.619C31.3636 380.227 31.0568 379.903 30.6818 379.903C30.3068 379.903 30 380.227 30 380.619C30 381.011 30.3068 381.335 30.6818 381.335C31.0568 381.335 31.3636 381.011 31.3636 380.619Z" fill="#939393"/>
<path d="M32.4545 372.93V374.021L37.6705 375.828L37.6705 375.896L32.4545 377.703L32.4545 378.794L39 376.373V375.351L32.4545 372.93Z" fill="#939393"/>
<path d="M39.1364 369.093C39.1364 367.763 38.4716 366.792 37.483 366.485L37.2102 367.456C37.892 367.712 38.233 368.305 38.233 369.093C38.233 370.273 37.4702 371.087 36.0682 371.134L36.0682 366.383H35.642C33.2045 366.383 32.3693 367.831 32.3693 369.195C32.3693 370.968 33.767 372.144 35.7784 372.144C37.7898 372.144 39.1364 370.985 39.1364 369.093ZM35.1989 371.134C34.1804 371.066 33.2727 370.346 33.2727 369.195C33.2727 368.104 34.0909 367.405 35.1989 367.405V371.134Z" fill="#939393"/>
<path d="M39 364.853V363.847L34.858 363.847C33.9716 363.847 33.3239 363.148 33.3239 362.194C33.3239 361.925 33.375 361.648 33.392 361.58L32.3693 361.58C32.3608 361.695 32.3523 361.959 32.3523 362.108C32.3523 362.893 32.7955 363.574 33.4432 363.813V363.881H32.4545V364.853L39 364.853Z" fill="#939393"/>
<path d="M91 469H102M102 469L98 464.5M102 469L98 473.5" stroke="#939393"/>
<path d="M50.2227 472H51.2795V468.096H55.0636V467.159H51.2795V464.21H55.4556V463.272H50.2227V472Z" fill="#939393"/>
<path d="M59.3079 472.136C61.0806 472.136 62.2738 470.79 62.2738 468.761C62.2738 466.716 61.0806 465.369 59.3079 465.369C57.5352 465.369 56.342 466.716 56.342 468.761C56.342 470.79 57.5352 472.136 59.3079 472.136ZM59.3079 471.233C57.9613 471.233 57.3477 470.074 57.3477 468.761C57.3477 467.449 57.9613 466.272 59.3079 466.272C60.6545 466.272 61.2681 467.449 61.2681 468.761C61.2681 470.074 60.6545 471.233 59.3079 471.233Z" fill="#939393"/>
<path d="M66.468 472.136C67.9169 472.136 68.8714 471.25 69.0419 470.091H68.0362C67.8487 470.807 67.2521 471.233 66.468 471.233C65.2749 471.233 64.5078 470.244 64.5078 468.727C64.5078 467.244 65.2919 466.272 66.468 466.272C67.3544 466.272 67.8828 466.818 68.0362 467.415H69.0419C68.8714 466.187 67.8317 465.369 66.451 465.369C64.6783 465.369 63.5021 466.767 63.5021 468.761C63.5021 470.721 64.6271 472.136 66.468 472.136Z" fill="#939393"/>
<path d="M74.6371 469.324C74.6371 470.551 73.6996 471.113 72.9496 471.113C72.1143 471.113 71.5178 470.5 71.5178 469.545V465.454H70.5121V469.613C70.5121 471.284 71.3984 472.085 72.6257 472.085C73.6143 472.085 74.2621 471.557 74.5689 470.892H74.6371V472H75.6428V465.454H74.6371V469.324Z" fill="#939393"/>
<path d="M82.1211 466.92C81.8058 465.991 81.0984 465.369 79.8029 465.369C78.4222 465.369 77.3995 466.153 77.3995 467.261C77.3995 468.165 77.9364 468.77 79.1381 469.051L80.229 469.307C80.8896 469.46 81.2006 469.775 81.2006 470.227C81.2006 470.79 80.604 471.25 79.6665 471.25C78.8441 471.25 78.3285 470.896 78.1495 470.193L77.195 470.432C77.4293 471.544 78.3455 472.136 79.6836 472.136C81.2049 472.136 82.2404 471.305 82.2404 470.176C82.2404 469.264 81.6694 468.689 80.5018 468.403L79.5302 468.165C78.7546 467.973 78.4052 467.713 78.4052 467.21C78.4052 466.647 79.0018 466.238 79.8029 466.238C80.6808 466.238 81.043 466.724 81.2177 467.176L82.1211 466.92Z" fill="#939393"/>
<circle cx="256.5" cy="239.5" r="12.5" fill="#428D37"/>
<circle cx="293.5" cy="236.5" r="10.5" fill="#65A77F"/>
<circle cx="293.5" cy="249.5" r="10.5" fill="#92D182"/>
<circle cx="305" cy="315" r="12" fill="#7DC7AE"/>
<circle cx="288" cy="330" r="16" fill="#2D6457"/>
<circle cx="299.5" cy="335.5" r="9.5" fill="#78B762"/>
<circle cx="302" cy="372" r="9" fill="#24537A"/>
<circle cx="326" cy="356" r="10" fill="#34733F"/>
<circle cx="326" cy="350" r="10" fill="#71C1BC"/>
<circle cx="361" cy="344" r="8" fill="#65B9CA"/>
<circle cx="409" cy="259" r="12" fill="#57B1DD"/>
<circle cx="360.5" cy="239.5" r="9.5" fill="#5A9E91"/>
<circle cx="331.5" cy="180.5" r="14.5" fill="#4184C8"/>
<circle cx="324.5" cy="216.5" r="11.5" fill="#4E92A8"/>
<circle cx="323" cy="386" r="10" fill="#193CAD"/>
<path d="M274.059 143.383C273.776 141.031 271.996 139.679 269.639 139.679C266.95 139.679 264.896 141.578 264.896 144.909C264.896 148.23 266.915 150.139 269.639 150.139C272.249 150.139 273.825 148.404 274.059 146.53L271.882 146.52C271.678 147.608 270.823 148.235 269.674 148.235C268.128 148.235 267.079 147.086 267.079 144.909C267.079 142.791 268.113 141.583 269.689 141.583C270.867 141.583 271.718 142.264 271.882 143.383H274.059Z" fill="black"/>
<path d="M277.756 139.818H275.603V150H277.756V139.818Z" fill="black"/>
<path d="M279.527 150H286.407V148.225H281.679V145.794H286.034V144.019H281.679V141.593H286.387V139.818H279.527V150Z" fill="black"/>
<path d="M296.615 139.818H294.472V146.221H294.383L289.988 139.818H288.099V150H290.252V143.591H290.326L294.756 150H296.615V139.818Z" fill="black"/>
<path d="M307.377 143.383C307.094 141.031 305.314 139.679 302.958 139.679C300.268 139.679 298.215 141.578 298.215 144.909C298.215 148.23 300.233 150.139 302.958 150.139C305.568 150.139 307.144 148.404 307.377 146.53L305.2 146.52C304.996 147.608 304.141 148.235 302.993 148.235C301.446 148.235 300.397 147.086 300.397 144.909C300.397 142.791 301.431 141.583 303.007 141.583C304.186 141.583 305.036 142.264 305.2 143.383H307.377Z" fill="black"/>
<path d="M308.921 150H315.802V148.225H311.074V145.794H315.429V144.019H311.074V141.593H315.782V139.818H308.921V150Z" fill="black"/>
<path d="M320.346 141.593H323.463V150H325.591V141.593H328.708V139.818H320.346V141.593Z" fill="black"/>
<path d="M330.085 150H336.966V148.225H332.238V145.794H336.593V144.019H332.238V141.593H336.946V139.818H330.085V150Z" fill="black"/>
<path d="M347.641 143.383C347.358 141.031 345.578 139.679 343.221 139.679C340.532 139.679 338.479 141.578 338.479 144.909C338.479 148.23 340.497 150.139 343.221 150.139C345.831 150.139 347.407 148.404 347.641 146.53L345.464 146.52C345.26 147.608 344.405 148.235 343.256 148.235C341.71 148.235 340.661 147.086 340.661 144.909C340.661 142.791 341.695 141.583 343.271 141.583C344.449 141.583 345.3 142.264 345.464 143.383H347.641Z" fill="black"/>
<path d="M349.185 150H351.338V145.794H355.708V150H357.855V139.818H355.708V144.019H351.338V139.818H349.185V150Z" fill="black"/>
<path d="M368.146 139.818H366.004V146.221H365.914L361.519 139.818H359.63V150H361.783V143.591H361.857L366.287 150H368.146V139.818Z" fill="black"/>
<path d="M379.282 144.909C379.282 141.578 377.213 139.679 374.514 139.679C371.799 139.679 369.746 141.578 369.746 144.909C369.746 148.225 371.799 150.139 374.514 150.139C377.213 150.139 379.282 148.24 379.282 144.909ZM377.099 144.909C377.099 147.066 376.075 148.235 374.514 148.235C372.948 148.235 371.929 147.066 371.929 144.909C371.929 142.751 372.948 141.583 374.514 141.583C376.075 141.583 377.099 142.751 377.099 144.909Z" fill="black"/>
<path d="M380.876 150H387.394V148.225H383.029V139.818H380.876V150Z" fill="black"/>
<path d="M397.78 144.909C397.78 141.578 395.711 139.679 393.012 139.679C390.297 139.679 388.244 141.578 388.244 144.909C388.244 148.225 390.297 150.139 393.012 150.139C395.711 150.139 397.78 148.24 397.78 144.909ZM395.597 144.909C395.597 147.066 394.573 148.235 393.012 148.235C391.446 148.235 390.427 147.066 390.427 144.909C390.427 142.751 391.446 141.583 393.012 141.583C394.573 141.583 395.597 142.751 395.597 144.909Z" fill="black"/>
<path d="M406.126 143.109H408.313C408.035 141.096 406.26 139.679 403.958 139.679C401.268 139.679 399.195 141.618 399.195 144.919C399.195 148.14 401.134 150.139 404.003 150.139C406.573 150.139 408.408 148.513 408.408 145.834V144.551H404.147V146.172H406.335C406.305 147.434 405.445 148.235 404.013 148.235C402.397 148.235 401.378 147.027 401.378 144.899C401.378 142.781 402.437 141.583 403.993 141.583C405.102 141.583 405.852 142.155 406.126 143.109Z" fill="black"/>
<path d="M412.177 139.818H410.025V150H412.177V139.818Z" fill="black"/>
<path d="M413.949 150H420.829V148.225H416.101V145.794H420.456V144.019H416.101V141.593H420.809V139.818H413.949V150Z" fill="black"/>
<path d="M428.044 142.746H430.107C430.078 140.932 428.586 139.679 426.319 139.679C424.087 139.679 422.451 140.912 422.461 142.761C422.456 144.263 423.515 145.123 425.235 145.535L426.344 145.814C427.453 146.082 428.069 146.4 428.074 147.086C428.069 147.832 427.363 148.339 426.269 148.339C425.151 148.339 424.345 147.822 424.276 146.803H422.193C422.247 149.005 423.823 150.144 426.294 150.144C428.78 150.144 430.242 148.956 430.247 147.091C430.242 145.396 428.964 144.496 427.194 144.098L426.279 143.88C425.394 143.676 424.654 143.348 424.669 142.617C424.669 141.961 425.25 141.478 426.304 141.478C427.333 141.478 427.965 141.946 428.044 142.746Z" fill="black"/>
<path d="M65.22 50.84V64.8H62.42V55.72L58.68 64.8H56.56L52.8 55.72V64.8H50V50.84H53.18L57.62 61.22L62.06 50.84H65.22Z" fill="black"/>
<path d="M67.2683 59.22C67.2683 58.1 67.4883 57.1067 67.9283 56.24C68.3816 55.3733 68.9883 54.7067 69.7483 54.24C70.5216 53.7733 71.3816 53.54 72.3283 53.54C73.1549 53.54 73.8749 53.7067 74.4883 54.04C75.1149 54.3733 75.6149 54.7933 75.9883 55.3V53.72H78.8083V64.8H75.9883V63.18C75.6283 63.7 75.1283 64.1333 74.4883 64.48C73.8616 64.8133 73.1349 64.98 72.3083 64.98C71.3749 64.98 70.5216 64.74 69.7483 64.26C68.9883 63.78 68.3816 63.1067 67.9283 62.24C67.4883 61.36 67.2683 60.3533 67.2683 59.22ZM75.9883 59.26C75.9883 58.58 75.8549 58 75.5883 57.52C75.3216 57.0267 74.9616 56.6533 74.5083 56.4C74.0549 56.1333 73.5683 56 73.0483 56C72.5283 56 72.0483 56.1267 71.6083 56.38C71.1683 56.6333 70.8083 57.0067 70.5283 57.5C70.2616 57.98 70.1283 58.5533 70.1283 59.22C70.1283 59.8867 70.2616 60.4733 70.5283 60.98C70.8083 61.4733 71.1683 61.8533 71.6083 62.12C72.0616 62.3867 72.5416 62.52 73.0483 62.52C73.5683 62.52 74.0549 62.3933 74.5083 62.14C74.9616 61.8733 75.3216 61.5 75.5883 61.02C75.8549 60.5267 75.9883 59.94 75.9883 59.26Z" fill="black"/>
<path d="M84.343 55.44C84.703 54.8533 85.1696 54.3933 85.743 54.06C86.3296 53.7267 86.9963 53.56 87.743 53.56V56.5H87.003C86.123 56.5 85.4563 56.7067 85.003 57.12C84.563 57.5333 84.343 58.2533 84.343 59.28V64.8H81.543V53.72H84.343V55.44Z" fill="black"/>
<path d="M96.1889 64.8L92.4289 60.08V64.8H89.6289V50H92.4289V58.42L96.1489 53.72H99.7889L94.9089 59.28L99.8289 64.8H96.1889Z" fill="black"/>
<path d="M111.609 59.02C111.609 59.42 111.582 59.78 111.529 60.1H103.429C103.495 60.9 103.775 61.5267 104.269 61.98C104.762 62.4333 105.369 62.66 106.089 62.66C107.129 62.66 107.869 62.2133 108.309 61.32H111.329C111.009 62.3867 110.395 63.2667 109.489 63.96C108.582 64.64 107.469 64.98 106.149 64.98C105.082 64.98 104.122 64.7467 103.269 64.28C102.429 63.8 101.769 63.1267 101.289 62.26C100.822 61.3933 100.589 60.3933 100.589 59.26C100.589 58.1133 100.822 57.1067 101.289 56.24C101.755 55.3733 102.409 54.7067 103.249 54.24C104.089 53.7733 105.055 53.54 106.149 53.54C107.202 53.54 108.142 53.7667 108.969 54.22C109.809 54.6733 110.455 55.32 110.909 56.16C111.375 56.9867 111.609 57.94 111.609 59.02ZM108.709 58.22C108.695 57.5 108.435 56.9267 107.929 56.5C107.422 56.06 106.802 55.84 106.069 55.84C105.375 55.84 104.789 56.0533 104.309 56.48C103.842 56.8933 103.555 57.4733 103.449 58.22H108.709Z" fill="black"/>
<path d="M116.912 56.02V61.38C116.912 61.7533 116.999 62.0267 117.172 62.2C117.359 62.36 117.666 62.44 118.092 62.44H119.392V64.8H117.632C115.272 64.8 114.092 63.6533 114.092 61.36V56.02H112.772V53.72H114.092V50.98H116.912V53.72H119.392V56.02H116.912Z" fill="black"/>
<path d="M128.972 50V64.8H126.172V50H128.972Z" fill="black"/>
<path d="M142.038 59.02C142.038 59.42 142.012 59.78 141.958 60.1H133.858C133.925 60.9 134.205 61.5267 134.698 61.98C135.192 62.4333 135.798 62.66 136.518 62.66C137.558 62.66 138.298 62.2133 138.738 61.32H141.758C141.438 62.3867 140.825 63.2667 139.918 63.96C139.012 64.64 137.898 64.98 136.578 64.98C135.512 64.98 134.552 64.7467 133.698 64.28C132.858 63.8 132.198 63.1267 131.718 62.26C131.252 61.3933 131.018 60.3933 131.018 59.26C131.018 58.1133 131.252 57.1067 131.718 56.24C132.185 55.3733 132.838 54.7067 133.678 54.24C134.518 53.7733 135.485 53.54 136.578 53.54C137.632 53.54 138.572 53.7667 139.398 54.22C140.238 54.6733 140.885 55.32 141.338 56.16C141.805 56.9867 142.038 57.94 142.038 59.02ZM139.138 58.22C139.125 57.5 138.865 56.9267 138.358 56.5C137.852 56.06 137.232 55.84 136.498 55.84C135.805 55.84 135.218 56.0533 134.738 56.48C134.272 56.8933 133.985 57.4733 133.878 58.22H139.138Z" fill="black"/>
<path d="M143.362 59.22C143.362 58.1 143.582 57.1067 144.022 56.24C144.475 55.3733 145.082 54.7067 145.842 54.24C146.615 53.7733 147.475 53.54 148.422 53.54C149.249 53.54 149.969 53.7067 150.582 54.04C151.209 54.3733 151.709 54.7933 152.082 55.3V53.72H154.902V64.8H152.082V63.18C151.722 63.7 151.222 64.1333 150.582 64.48C149.955 64.8133 149.229 64.98 148.402 64.98C147.469 64.98 146.615 64.74 145.842 64.26C145.082 63.78 144.475 63.1067 144.022 62.24C143.582 61.36 143.362 60.3533 143.362 59.22ZM152.082 59.26C152.082 58.58 151.949 58 151.682 57.52C151.415 57.0267 151.055 56.6533 150.602 56.4C150.149 56.1333 149.662 56 149.142 56C148.622 56 148.142 56.1267 147.702 56.38C147.262 56.6333 146.902 57.0067 146.622 57.5C146.355 57.98 146.222 58.5533 146.222 59.22C146.222 59.8867 146.355 60.4733 146.622 60.98C146.902 61.4733 147.262 61.8533 147.702 62.12C148.155 62.3867 148.635 62.52 149.142 62.52C149.662 62.52 150.149 62.3933 150.602 62.14C151.055 61.8733 151.415 61.5 151.682 61.02C151.949 60.5267 152.082 59.94 152.082 59.26Z" fill="black"/>
<path d="M156.917 59.22C156.917 58.1 157.137 57.1067 157.577 56.24C158.03 55.3733 158.643 54.7067 159.417 54.24C160.19 53.7733 161.05 53.54 161.997 53.54C162.717 53.54 163.403 53.7 164.057 54.02C164.71 54.3267 165.23 54.74 165.617 55.26V50H168.457V64.8H165.617V63.16C165.27 63.7067 164.783 64.1467 164.157 64.48C163.53 64.8133 162.803 64.98 161.977 64.98C161.043 64.98 160.19 64.74 159.417 64.26C158.643 63.78 158.03 63.1067 157.577 62.24C157.137 61.36 156.917 60.3533 156.917 59.22ZM165.637 59.26C165.637 58.58 165.503 58 165.237 57.52C164.97 57.0267 164.61 56.6533 164.157 56.4C163.703 56.1333 163.217 56 162.697 56C162.177 56 161.697 56.1267 161.257 56.38C160.817 56.6333 160.457 57.0067 160.177 57.5C159.91 57.98 159.777 58.5533 159.777 59.22C159.777 59.8867 159.91 60.4733 160.177 60.98C160.457 61.4733 160.817 61.8533 161.257 62.12C161.71 62.3867 162.19 62.52 162.697 62.52C163.217 62.52 163.703 62.3933 164.157 62.14C164.61 61.8733 164.97 61.5 165.237 61.02C165.503 60.5267 165.637 59.94 165.637 59.26Z" fill="black"/>
<path d="M181.491 59.02C181.491 59.42 181.465 59.78 181.411 60.1H173.311C173.378 60.9 173.658 61.5267 174.151 61.98C174.645 62.4333 175.251 62.66 175.971 62.66C177.011 62.66 177.751 62.2133 178.191 61.32H181.211C180.891 62.3867 180.278 63.2667 179.371 63.96C178.465 64.64 177.351 64.98 176.031 64.98C174.965 64.98 174.005 64.7467 173.151 64.28C172.311 63.8 171.651 63.1267 171.171 62.26C170.705 61.3933 170.471 60.3933 170.471 59.26C170.471 58.1133 170.705 57.1067 171.171 56.24C171.638 55.3733 172.291 54.7067 173.131 54.24C173.971 53.7733 174.938 53.54 176.031 53.54C177.085 53.54 178.025 53.7667 178.851 54.22C179.691 54.6733 180.338 55.32 180.791 56.16C181.258 56.9867 181.491 57.94 181.491 59.02ZM178.591 58.22C178.578 57.5 178.318 56.9267 177.811 56.5C177.305 56.06 176.685 55.84 175.951 55.84C175.258 55.84 174.671 56.0533 174.191 56.48C173.725 56.8933 173.438 57.4733 173.331 58.22H178.591Z" fill="black"/>
<path d="M186.335 55.44C186.695 54.8533 187.162 54.3933 187.735 54.06C188.322 53.7267 188.988 53.56 189.735 53.56V56.5H188.995C188.115 56.5 187.448 56.7067 186.995 57.12C186.555 57.5333 186.335 58.2533 186.335 59.28V64.8H183.535V53.72H186.335V55.44Z" fill="black"/>
<path d="M195.861 64.98C194.954 64.98 194.141 64.82 193.421 64.5C192.701 64.1667 192.128 63.72 191.701 63.16C191.288 62.6 191.061 61.98 191.021 61.3H193.841C193.894 61.7267 194.101 62.08 194.461 62.36C194.834 62.64 195.294 62.78 195.841 62.78C196.374 62.78 196.788 62.6733 197.081 62.46C197.388 62.2467 197.541 61.9733 197.541 61.64C197.541 61.28 197.354 61.0133 196.981 60.84C196.621 60.6533 196.041 60.4533 195.241 60.24C194.414 60.04 193.734 59.8333 193.201 59.62C192.681 59.4067 192.228 59.08 191.841 58.64C191.468 58.2 191.281 57.6067 191.281 56.86C191.281 56.2467 191.454 55.6867 191.801 55.18C192.161 54.6733 192.668 54.2733 193.321 53.98C193.988 53.6867 194.768 53.54 195.661 53.54C196.981 53.54 198.034 53.8733 198.821 54.54C199.608 55.1933 200.041 56.08 200.121 57.2H197.441C197.401 56.76 197.214 56.4133 196.881 56.16C196.561 55.8933 196.128 55.76 195.581 55.76C195.074 55.76 194.681 55.8533 194.401 56.04C194.134 56.2267 194.001 56.4867 194.001 56.82C194.001 57.1933 194.188 57.48 194.561 57.68C194.934 57.8667 195.514 58.06 196.301 58.26C197.101 58.46 197.761 58.6667 198.281 58.88C198.801 59.0933 199.248 59.4267 199.621 59.88C200.008 60.32 200.208 60.9067 200.221 61.64C200.221 62.28 200.041 62.8533 199.681 63.36C199.334 63.8667 198.828 64.2667 198.161 64.56C197.508 64.84 196.741 64.98 195.861 64.98Z" fill="black"/>
<path d="M386.619 45H390.54V69.2553H386.619V45Z" fill="#17313B"/>
<path d="M404.178 61.5698C404.178 65.3277 401.109 65.6693 400.086 65.6693C397.7 65.6693 397.359 63.4487 397.359 62.253V52.8584H393.438V62.0822C393.438 64.3028 394.12 66.3525 395.484 67.5482C396.677 68.7439 398.211 69.2563 400.086 69.2563C401.45 69.2563 403.155 68.9147 404.178 67.8898V69.2563H408.099V52.8584H404.178V61.5698Z" fill="#17313B"/>
<path d="M415.77 46.8789H411.849V52.8573H408.951V56.6152H411.849V69.2553H415.77V56.6152H418.668V52.8573H415.77V46.8789Z" fill="#17313B"/>
<path d="M430.941 64.3016C430.089 64.9849 428.895 65.4973 427.702 65.4973C424.974 65.4973 423.099 63.4476 423.099 60.7146C423.099 57.9816 424.974 56.1027 427.702 56.1027C428.895 56.1027 430.089 56.4443 430.941 57.2984L431.452 57.8108L434.18 55.2486L433.498 54.7362C431.964 53.3697 429.918 52.5156 427.702 52.5156C422.929 52.5156 419.349 56.1027 419.349 60.8854C419.349 65.6681 422.929 69.2552 427.702 69.2552C429.918 69.2552 431.964 68.4011 433.498 67.0346L434.18 66.5222L431.452 63.7892L430.941 64.3016Z" fill="#17313B"/>
<path d="M447.989 54.2238C446.795 53.0282 445.602 52.5157 443.727 52.5157C442.363 52.5157 440.999 52.8573 439.976 53.8822V45H436.056V69.2553H439.976V60.2023C439.976 56.4444 442.533 56.1028 443.556 56.1028C445.943 56.1028 445.772 58.3233 445.772 59.519V69.0845H449.693V59.6898C449.693 57.4693 449.182 55.4195 447.989 54.2238Z" fill="#17313B"/>
<path d="M427.532 63.6183C429.039 63.6183 430.26 62.3947 430.26 60.8853C430.26 59.3759 429.039 58.1523 427.532 58.1523C426.026 58.1523 424.805 59.3759 424.805 60.8853C424.805 62.3947 426.026 63.6183 427.532 63.6183Z" fill="#EF4335"/>
<path d="M381.164 63.2766C379.8 64.6431 377.755 65.4971 375.539 65.4971C371.277 65.4971 368.208 62.0809 368.208 57.469C368.208 52.857 371.277 49.4408 375.709 49.4408C377.755 49.4408 379.8 50.2949 381.335 51.8322L381.846 52.3446L384.403 49.7824L383.892 49.27C381.676 47.0494 378.778 45.8538 375.709 45.8538C369.231 45.6829 364.458 50.8073 364.458 57.469C364.458 64.1306 369.231 69.255 375.539 69.255C378.607 69.255 381.676 68.0593 383.721 65.8387L384.233 65.3263L381.676 62.7641L381.164 63.2766Z" fill="#17313B"/>
</svg>
