<svg width="161" height="46" viewBox="0 0 161 46" fill="none" xmlns="http://www.w3.org/2000/svg">
<path d="M63.2725 32.6352C61.5619 32.6352 60.027 32.2134 58.6679 31.3699C57.3323 30.5263 56.2661 29.3781 55.4693 27.9252C54.6961 26.4724 54.3094 24.8438 54.3094 23.0395C54.3094 21.2351 54.6961 19.6065 55.4693 18.1537C56.2661 16.7009 57.3323 15.5527 58.6679 14.7091C60.027 13.8655 61.5619 13.4437 63.2725 13.4437C64.9128 13.4437 66.4008 13.7835 67.7365 14.463C69.0956 15.1191 70.1266 16.0213 70.8296 17.1695L68.8261 19.63C68.4512 19.091 67.9708 18.5989 67.385 18.1537C66.7992 17.7085 66.1782 17.357 65.5221 17.0992C64.8659 16.8415 64.2333 16.7126 63.624 16.7126C62.4992 16.7126 61.4916 16.9938 60.6012 17.5562C59.7341 18.0951 59.0429 18.845 58.5273 19.8057C58.0118 20.7665 57.7541 21.8444 57.7541 23.0395C57.7541 24.2345 58.0235 25.3125 58.5625 26.2732C59.1014 27.2105 59.8162 27.9604 60.7066 28.5228C61.5971 29.0852 62.5812 29.3664 63.6591 29.3664C64.2918 29.3664 64.9011 29.2609 65.4869 29.05C66.0962 28.8391 66.682 28.5228 67.2444 28.101C67.8068 27.6792 68.334 27.1637 68.8261 26.5544L70.8296 29.0149C70.0798 30.0693 69.0018 30.9364 67.5959 31.6159C66.2133 32.2955 64.7722 32.6352 63.2725 32.6352Z" fill="white"/>
<path d="M74.8421 32.2837V13.8303H78.4625V32.2837H74.8421ZM76.5996 9.75301C75.8263 9.75301 75.2288 9.55383 74.807 9.15547C74.3852 8.75711 74.1743 8.19472 74.1743 7.4683C74.1743 6.78875 74.3852 6.23807 74.807 5.81628C75.2522 5.39449 75.8498 5.18359 76.5996 5.18359C77.3729 5.18359 77.9704 5.38277 78.3922 5.78113C78.814 6.17949 79.0249 6.74188 79.0249 7.4683C79.0249 8.14786 78.8023 8.69853 78.3571 9.12032C77.9353 9.54211 77.3495 9.75301 76.5996 9.75301Z" fill="white"/>
<path d="M92.639 32.6352C90.7409 32.6352 89.0537 32.2369 87.5775 31.4402C86.1246 30.62 84.9764 29.5069 84.1328 28.101C83.3127 26.695 82.9026 25.0781 82.9026 23.2504C82.9026 21.7975 83.1369 20.4736 83.6056 19.2785C84.0742 18.0834 84.7186 17.0524 85.5388 16.1853C86.3824 15.2949 87.3783 14.6153 88.5265 14.1467C89.6981 13.6546 90.9635 13.4085 92.3226 13.4085C93.5177 13.4085 94.6308 13.6429 95.6618 14.1115C96.6929 14.5568 97.5833 15.1777 98.3332 15.9744C99.1064 16.7712 99.6923 17.7202 100.091 18.8215C100.512 19.8995 100.712 21.0828 100.688 22.3716L100.653 23.9182H85.5739L84.7655 21.036H97.5247L96.9975 21.6335V20.7899C96.9272 20.0166 96.6694 19.3254 96.2242 18.7161C95.779 18.1068 95.2166 17.6265 94.537 17.275C93.8575 16.9235 93.1193 16.7477 92.3226 16.7477C91.0572 16.7477 89.9911 16.9938 89.124 17.4859C88.257 17.9545 87.6009 18.6575 87.1557 19.5948C86.7104 20.5087 86.4878 21.6452 86.4878 23.0043C86.4878 24.2931 86.7573 25.4179 87.2963 26.3787C87.8352 27.316 88.5968 28.0424 89.581 28.5579C90.5652 29.0734 91.7017 29.3312 92.9905 29.3312C93.9043 29.3312 94.7479 29.1789 95.5212 28.8743C96.3179 28.5696 97.1732 28.019 98.0871 27.2222L99.9149 29.7881C99.3525 30.3505 98.6612 30.8426 97.8411 31.2644C97.0444 31.6862 96.1891 32.026 95.2752 32.2837C94.3847 32.5181 93.506 32.6352 92.639 32.6352Z" fill="white"/>
<path d="M104.623 32.2837V13.8303H108.243V17.6265L107.61 18.0483C107.845 17.2281 108.302 16.4783 108.981 15.7987C109.661 15.0957 110.469 14.5333 111.407 14.1115C112.344 13.6663 113.305 13.4437 114.289 13.4437C115.695 13.4437 116.866 13.7249 117.804 14.2873C118.741 14.8262 119.444 15.6581 119.913 16.7829C120.381 17.9077 120.616 19.3254 120.616 21.036V32.2837H116.995V21.282C116.995 20.2275 116.855 19.3605 116.573 18.6809C116.292 17.978 115.859 17.4742 115.273 17.1695C114.687 16.8415 113.961 16.7009 113.094 16.7477C112.391 16.7477 111.746 16.8649 111.16 17.0992C110.575 17.3101 110.059 17.6147 109.614 18.0131C109.192 18.4115 108.852 18.8801 108.595 19.4191C108.36 19.9346 108.243 20.497 108.243 21.1063V32.2837H106.45C106.146 32.2837 105.841 32.2837 105.537 32.2837C105.232 32.2837 104.927 32.2837 104.623 32.2837Z" fill="white"/>
<path d="M133.365 32.6352C131.655 32.6352 130.12 32.2134 128.761 31.3699C127.425 30.5263 126.359 29.3781 125.562 27.9252C124.789 26.4724 124.402 24.8438 124.402 23.0395C124.402 21.2351 124.789 19.6065 125.562 18.1537C126.359 16.7009 127.425 15.5527 128.761 14.7091C130.12 13.8655 131.655 13.4437 133.365 13.4437C135.006 13.4437 136.494 13.7835 137.829 14.463C139.188 15.1191 140.219 16.0213 140.922 17.1695L138.919 19.63C138.544 19.091 138.064 18.5989 137.478 18.1537C136.892 17.7085 136.271 17.357 135.615 17.0992C134.959 16.8415 134.326 16.7126 133.717 16.7126C132.592 16.7126 131.584 16.9938 130.694 17.5562C129.827 18.0951 129.136 18.845 128.62 19.8057C128.105 20.7665 127.847 21.8444 127.847 23.0395C127.847 24.2345 128.116 25.3125 128.655 26.2732C129.194 27.2105 129.909 27.9604 130.799 28.5228C131.69 29.0852 132.674 29.3664 133.752 29.3664C134.385 29.3664 134.994 29.2609 135.58 29.05C136.189 28.8391 136.775 28.5228 137.337 28.101C137.9 27.6792 138.427 27.1637 138.919 26.5544L140.922 29.0149C140.173 30.0693 139.095 30.9364 137.689 31.6159C136.306 32.2955 134.865 32.6352 133.365 32.6352Z" fill="white"/>
<path d="M152.949 32.6352C151.051 32.6352 149.364 32.2369 147.887 31.4402C146.435 30.62 145.286 29.5069 144.443 28.101C143.623 26.695 143.213 25.0781 143.213 23.2504C143.213 21.7975 143.447 20.4736 143.916 19.2785C144.384 18.0834 145.029 17.0524 145.849 16.1853C146.692 15.2949 147.688 14.6153 148.836 14.1467C150.008 13.6546 151.273 13.4085 152.633 13.4085C153.828 13.4085 154.941 13.6429 155.972 14.1115C157.003 14.5568 157.893 15.1777 158.643 15.9744C159.416 16.7712 160.002 17.7202 160.401 18.8215C160.822 19.8995 161.022 21.0828 160.998 22.3716L160.963 23.9182H145.884L145.075 21.036H157.835L157.307 21.6335V20.7899C157.237 20.0166 156.979 19.3254 156.534 18.7161C156.089 18.1068 155.527 17.6265 154.847 17.275C154.167 16.9235 153.429 16.7477 152.633 16.7477C151.367 16.7477 150.301 16.9938 149.434 17.4859C148.567 17.9545 147.911 18.6575 147.466 19.5948C147.02 20.5087 146.798 21.6452 146.798 23.0043C146.798 24.2931 147.067 25.4179 147.606 26.3787C148.145 27.316 148.907 28.0424 149.891 28.5579C150.875 29.0734 152.012 29.3312 153.3 29.3312C154.214 29.3312 155.058 29.1789 155.831 28.8743C156.628 28.5696 157.483 28.019 158.397 27.2222L160.225 29.7881C159.662 30.3505 158.971 30.8426 158.151 31.2644C157.354 31.6862 156.499 32.026 155.585 32.2837C154.695 32.5181 153.816 32.6352 152.949 32.6352Z" fill="white"/>
<path d="M39.0272 39.0395L32.2915 32.3037L19.1592 45.436C20.3638 45.6318 21.598 45.7388 22.8573 45.7388C29.1718 45.7388 34.8897 43.1793 39.0272 39.0395Z" fill="#60D394"/>
<path d="M19.1599 35.676C13.5991 34.0683 9.52756 28.9493 9.52756 22.8693C9.52756 15.5028 15.5005 9.52983 22.8671 9.52983C26.5515 9.52983 29.8852 11.0236 32.299 13.4374L39.037 6.69935C34.8995 2.55951 29.1838 0 22.8693 0C10.238 0 0 10.238 0 22.8693C0 34.2368 8.29563 43.6619 19.1599 45.4335V35.676Z" fill="white"/>
</svg>
