<svg width="100" height="35" viewBox="0 0 100 35" fill="none" xmlns="http://www.w3.org/2000/svg">
<path d="M12.5801 8.70143C5.64904 8.70143 0 14.3723 0 21.4203C0 24.7936 1.3254 28.0287 3.68463 30.4139C6.04386 32.7992 9.24367 34.1392 12.5801 34.1392C15.9166 34.1392 19.1164 32.7992 21.4756 30.4139C23.8349 28.0287 25.1603 24.7936 25.1603 21.4203C25.1603 14.3723 19.5112 8.70143 12.5801 8.70143ZM12.5801 27.7797C9.09455 27.7797 6.29006 24.9443 6.29006 21.4203C6.29006 17.8963 9.09455 15.0609 12.5801 15.0609C16.0657 15.0609 18.8702 17.8963 18.8702 21.4203C18.8702 24.9443 16.0657 27.7797 12.5801 27.7797ZM34.6554 25.6734C34.6554 24.6608 35.8574 24.1747 36.5385 24.9038L44.9119 33.7341C44.992 33.8151 45.0721 33.9367 45.3526 34.0177C45.4728 34.0582 45.6731 34.0582 45.8734 34.0582H51.5625C52.5641 34.0582 52.8846 32.8835 52.4038 32.2759L42.9888 22.5545L42.508 22.0279C41.4263 20.7317 41.5465 20.2456 42.7885 18.9089L50.2804 10.5242C50.7612 9.9166 50.4407 8.74193 49.399 8.74193H44.2708C44.0705 8.74193 43.9103 8.74193 43.7901 8.78244C43.4696 8.86345 43.3894 8.98497 43.3093 9.06598C43.2692 9.10649 39.1426 13.6026 36.6186 16.3571C35.9375 17.1267 34.6955 16.6001 34.6955 15.5874V1.16731C34.6955 0.438205 34.0945 0.154663 33.6138 0.154663H29.407C28.6859 0.154663 28.3253 0.640735 28.3253 1.0863V33.086C28.3253 33.8151 28.9263 34.0177 29.407 34.0177H33.6138C34.2548 34.0177 34.6955 33.5316 34.6955 33.0455V32.7215L34.6554 25.6734ZM68.9503 32.924L68.5096 28.6709C68.4295 28.1038 67.9087 27.6987 67.3478 27.7797L66.3862 27.8608C63.0208 27.8608 60.2965 25.1874 60.1362 21.8659V16.3166C60.1362 15.6279 60.617 15.1014 61.2981 15.1014H66.907C67.3077 15.1014 67.9086 14.7773 67.9086 14.0077V9.99762C67.9086 9.228 67.4279 8.78244 66.9872 8.78244H61.3381C60.6971 8.78244 60.1362 8.29637 60.1362 7.64827V1.20782C60.1362 0.802758 59.8558 0.195168 59.0545 0.195168H54.8878C54.367 0.195168 53.8462 0.519217 53.8462 1.16731V21.8659C54.0064 28.7114 59.5753 34.2202 66.4263 34.2202C66.9872 34.2202 67.5481 34.1797 68.109 34.0987C68.5897 34.0177 69.0304 33.4911 68.9503 32.924ZM99.2388 27.5772C95.6731 27.5772 95.1522 26.281 95.1522 21.4608V9.83559C95.1522 9.43053 94.8718 8.74193 94.0705 8.74193H89.8638C89.3429 8.74193 88.7821 9.14699 88.7821 9.83559V10.3622C86.9391 9.30901 84.8558 8.70143 82.5721 8.70143C75.641 8.70143 69.992 14.3723 69.992 21.4203C69.9883 23.0916 70.3112 24.7472 70.9421 26.292C71.573 27.8368 72.4995 29.2404 73.6684 30.4222C74.8373 31.604 76.2256 32.5408 77.7535 33.1786C79.2815 33.8165 80.919 34.1429 82.5721 34.1392C85.6971 34.1392 88.5417 33.005 90.7452 31.1012C91.9471 32.924 93.8301 34.1392 96.7949 34.1392C97.3157 34.1392 100 34.2202 100 32.9645V28.4278C99.9599 28.0228 99.6394 27.5772 99.2388 27.5772ZM82.5721 27.7797C79.0865 27.7797 76.2821 24.9443 76.2821 21.4203C76.2821 17.8963 79.0865 15.0609 82.5721 15.0609C86.0577 15.0609 88.8622 17.8963 88.8622 21.4203C88.8221 24.9443 86.0176 27.7797 82.5721 27.7797Z" fill="#002C63"/>
</svg>
