<svg width="120" height="26" viewBox="0 0 120 26" fill="none" xmlns="http://www.w3.org/2000/svg">
<path d="M49.9042 5.11791V20.4733H47.2383V8.42359H47.2028L42.4398 20.4733H40.6625L35.7928 8.42359H35.7573V20.4733H33.3047V5.11791H37.1435L41.5511 16.4923H41.6222L46.2786 5.11791H49.9042ZM52.108 6.29089C52.108 5.86435 52.2502 5.5089 52.5701 5.22454C52.89 4.94018 53.2454 4.798 53.672 4.798C54.1341 4.798 54.5251 4.94018 54.8094 5.22454C55.0938 5.5089 55.2715 5.86435 55.2715 6.29089C55.2715 6.71743 55.1293 7.07288 54.8094 7.35724C54.4895 7.6416 54.1341 7.78378 53.672 7.78378C53.2099 7.78378 52.8544 7.6416 52.5701 7.35724C52.2857 7.03734 52.108 6.68189 52.108 6.29089ZM54.9871 9.4544V20.4733H52.3924V9.4544H54.9871ZM62.8426 18.5895C63.2336 18.5895 63.6601 18.5184 64.1222 18.3051C64.5843 18.1274 65.0108 17.8786 65.4018 17.5942V20.0113C64.9753 20.2601 64.5132 20.4378 63.98 20.5444C63.4469 20.6511 62.8781 20.7222 62.2383 20.7222C60.6033 20.7222 59.2881 20.2245 58.2928 19.1937C57.262 18.1629 56.7644 16.8478 56.7644 15.2838C56.7644 13.5065 57.2976 12.0492 58.3284 10.9117C59.3592 9.7743 60.8165 9.20558 62.736 9.20558C63.2336 9.20558 63.7312 9.27667 64.1933 9.38331C64.6909 9.48994 65.0819 9.66767 65.3663 9.80985V12.298C64.9753 12.0136 64.5487 11.7648 64.1578 11.6226C63.7312 11.4805 63.3047 11.3738 62.8781 11.3738C61.8473 11.3738 61.0298 11.6937 60.39 12.3691C59.7502 13.0444 59.4658 13.9331 59.4658 15.0705C59.4658 16.1724 59.7857 17.061 60.39 17.6653C60.9942 18.2696 61.8118 18.5895 62.8426 18.5895ZM72.7596 9.27667C72.9729 9.27667 73.1506 9.27667 73.3284 9.31222C73.5061 9.34776 73.6483 9.38331 73.7549 9.41885V12.0492C73.6127 11.9425 73.435 11.8359 73.1506 11.7648C72.8663 11.6937 72.5819 11.6226 72.1909 11.6226C71.5511 11.6226 71.0179 11.907 70.5914 12.4402C70.1649 12.9734 69.916 13.7909 69.916 14.9283V20.4733H67.3213V9.4544H69.916V11.1961H69.9516C70.2004 10.5918 70.5559 10.1298 71.0179 9.7743C71.5156 9.4544 72.0843 9.27667 72.7596 9.27667ZM73.8971 15.1416C73.8971 13.3288 74.4303 11.8715 75.4255 10.8051C76.4563 9.73876 77.8781 9.20558 79.6909 9.20558C81.3971 9.20558 82.7478 9.70321 83.7075 10.734C84.6672 11.7648 85.1649 13.1511 85.1649 14.8928C85.1649 16.67 84.6317 18.0918 83.6364 19.1582C82.6056 20.2245 81.2194 20.7577 79.4421 20.7577C77.7359 20.7577 76.3852 20.2601 75.39 19.2648C74.3947 18.234 73.8971 16.8478 73.8971 15.1416ZM76.5985 15.035C76.5985 16.1724 76.8473 17.061 77.3805 17.6653C77.9137 18.2696 78.6601 18.5895 79.6198 18.5895C80.544 18.5895 81.2904 18.3051 81.7881 17.6653C82.2857 17.061 82.5345 16.1724 82.5345 14.9639C82.5345 13.7909 82.2857 12.9023 81.7881 12.2625C81.2904 11.6582 80.544 11.3383 79.6554 11.3383C78.6957 11.3383 77.9848 11.6582 77.4516 12.298C76.8473 12.9734 76.5985 13.862 76.5985 15.035ZM89.0393 12.3691C89.0393 12.7245 89.1459 13.0444 89.3947 13.2577C89.6435 13.471 90.1411 13.7198 90.9587 14.0397C91.9895 14.4662 92.7359 14.9283 93.1269 15.426C93.5535 15.9591 93.7667 16.5634 93.7667 17.3098C93.7667 18.3406 93.3757 19.1582 92.5582 19.798C91.7762 20.4378 90.6743 20.7222 89.3236 20.7222C88.8615 20.7222 88.3639 20.6511 87.7952 20.5444C87.2265 20.4378 86.7644 20.2956 86.3734 20.1179V17.5587C86.8355 17.8786 87.3686 18.1629 87.9018 18.3406C88.435 18.5184 88.9326 18.625 89.3947 18.625C89.9634 18.625 90.4255 18.5539 90.6743 18.3762C90.9587 18.1985 91.1009 17.9497 91.1009 17.5587C91.1009 17.2032 90.9587 16.9188 90.6743 16.6345C90.39 16.3857 89.8212 16.1013 89.0393 15.7814C88.0795 15.3904 87.4042 14.9283 87.0132 14.4307C86.6222 13.9331 86.4089 13.2933 86.4089 12.5113C86.4089 11.516 86.7999 10.6985 87.5819 10.0587C88.3639 9.41885 89.3947 9.09895 90.6388 9.09895C91.0298 9.09895 91.4563 9.13449 91.9184 9.24113C92.3805 9.34776 92.807 9.4544 93.1269 9.56103V12.0847C92.7715 11.8715 92.3805 11.6582 91.9184 11.4805C91.4563 11.3027 90.9942 11.2316 90.5677 11.2316C90.0701 11.2316 89.6791 11.3383 89.4303 11.516C89.1814 11.7648 89.0393 12.0136 89.0393 12.3691ZM94.8686 15.1416C94.8686 13.3288 95.4018 11.8715 96.3971 10.8051C97.4279 9.73876 98.8497 9.20558 100.662 9.20558C102.369 9.20558 103.719 9.70321 104.679 10.734C105.639 11.7648 106.136 13.1511 106.136 14.8928C106.136 16.67 105.603 18.0918 104.608 19.1582C103.577 20.2245 102.191 20.7577 100.414 20.7577C98.7075 20.7577 97.3568 20.2601 96.3615 19.2648C95.4018 18.234 94.8686 16.8478 94.8686 15.1416ZM97.5701 15.035C97.5701 16.1724 97.8189 17.061 98.3521 17.6653C98.8852 18.2696 99.6317 18.5895 100.591 18.5895C101.516 18.5895 102.262 18.3051 102.76 17.6653C103.257 17.061 103.506 16.1724 103.506 14.9639C103.506 13.7909 103.257 12.9023 102.76 12.2625C102.262 11.6582 101.516 11.3383 100.627 11.3383C99.6672 11.3383 98.9563 11.6582 98.4231 12.298C97.8544 12.9734 97.5701 13.862 97.5701 15.035ZM114.774 11.5871H110.899V20.4733H108.269V11.5871H106.421V9.4544H108.269V7.92596C108.269 6.78852 108.66 5.82881 109.407 5.08236C110.153 4.33592 111.113 3.98047 112.286 3.98047C112.606 3.98047 112.89 4.01601 113.139 4.01601C113.388 4.01601 113.601 4.0871 113.779 4.15819V6.39753C113.707 6.36198 113.53 6.29089 113.316 6.2198C113.103 6.14871 112.854 6.11317 112.57 6.11317C112.037 6.11317 111.61 6.29089 111.326 6.6108C111.042 6.9307 110.899 7.46388 110.899 8.10369V9.41885H114.774V6.9307L117.369 6.14871V9.41885H119.999V11.5516H117.369V16.7056C117.369 17.3809 117.511 17.843 117.724 18.1274C117.973 18.4117 118.364 18.5539 118.897 18.5539C119.039 18.5539 119.217 18.5184 119.43 18.4473C119.644 18.3762 119.821 18.3051 119.963 18.1985V20.3312C119.786 20.4378 119.537 20.5089 119.146 20.58C118.755 20.6511 118.399 20.6866 118.008 20.6866C116.907 20.6866 116.089 20.4023 115.556 19.8335C115.023 19.2648 114.738 18.3762 114.738 17.2032L114.774 11.5871Z" fill="#11292C"/>
<path d="M12.1564 0H0V12.1564H12.1564V0Z" fill="#11292C"/>
<path d="M25.5919 0H13.4355V12.1564H25.5919V0Z" fill="#11292C"/>
<path d="M12.1564 13.4355H0V25.5919H12.1564V13.4355Z" fill="#11292C"/>
<path d="M25.5919 13.4355H13.4355V25.5919H25.5919V13.4355Z" fill="#11292C"/>
</svg>
