<svg width="120" height="30" viewBox="0 0 120 30" fill="none" xmlns="http://www.w3.org/2000/svg">
<path fill-rule="evenodd" clip-rule="evenodd" d="M0 23.3004V0H39.4439V23.3004L19.7489 29.9731L0 23.3004ZM13.669 22.5462H19.6959V6.13362H13.4537V14.7973C13.4537 17.4341 12.0546 17.9722 10.9784 17.9722C9.14881 17.9722 8.93356 16.6269 8.93356 14.7435V6.13362H2.69141V17.3803C2.69141 21.1471 5.32818 22.9229 8.28782 22.9229C10.7632 22.9229 12.4313 22.1157 13.6152 20.4475H13.669V22.5462ZM30.6197 9.68519C31.0502 9.95425 31.3192 10.3847 31.373 10.9229V10.869H37.0771C36.9156 6.67173 32.6645 5.70312 29.1129 5.70312C25.8304 5.70312 21.3641 6.77936 21.3641 10.9229C21.3641 13.7749 23.2475 15.2816 28.0367 16.0888C30.9425 16.5731 31.4806 16.8421 31.4806 17.8107C31.4806 18.7255 30.1892 19.0484 29.382 19.0484C28.6286 19.0484 28.0367 18.8332 27.7138 18.5641C27.2295 18.1336 27.0143 17.7031 26.9605 17.1112H20.9874C21.095 21.3085 25.2923 22.869 29.1667 22.869C33.1488 22.869 37.5075 21.6852 37.5075 17.1112C37.5075 14.4206 35.678 13.1829 33.5793 12.5372C32.5061 12.207 31.3626 12.0034 30.3645 11.8258C29.4109 11.656 28.5901 11.5099 28.0905 11.2995C27.7138 11.1381 27.3371 10.9229 27.3371 10.4386C27.3371 9.41613 28.3596 9.20088 29.2206 9.20088C29.7587 9.20088 30.243 9.36232 30.6197 9.68519Z" fill="#11292C"/>
<path d="M41.7031 0H47.9453V7.96413H47.9991C48.9677 6.56502 50.6359 5.75785 52.4655 5.75785C57.9542 5.75785 59.461 10.4395 59.461 14.2601C59.461 18.3498 57.2009 22.9238 52.5731 22.9238C49.5058 22.9238 48.5372 21.7399 47.7838 20.7175H47.73V22.4933H41.7031V0ZM50.4744 10.278C48.2143 10.278 47.73 12.3767 47.73 14.3139C47.73 16.2511 48.2143 18.4036 50.4744 18.4036C52.7345 18.4036 53.2188 16.3049 53.2188 14.3139C53.2188 12.4305 52.6807 10.278 50.4744 10.278ZM76.896 18.8879C76.896 20.1256 76.9498 21.5247 77.6493 22.5471H71.2457C71.0843 22.1166 70.9767 21.417 71.0305 20.9865H70.9767C69.6314 22.4933 67.748 22.9238 65.7031 22.9238C62.5282 22.9238 59.9453 21.417 59.9453 17.9731C59.9453 12.8072 66.026 12.9686 69.2009 12.3767C70.0619 12.2152 70.9229 11.9462 70.9229 10.9238C70.9229 9.79372 69.9004 9.41704 68.878 9.41704C66.9408 9.41704 66.5641 10.3857 66.5641 11.0852H60.7525C60.9677 6.4574 65.3264 5.70404 69.2009 5.70404C77.0574 5.70404 76.9498 8.93274 76.9498 12.1076V18.8879H76.896ZM70.9229 15.1749C70.1695 15.5516 69.3085 15.7668 68.4475 15.9821C67.0484 16.3049 66.3489 16.6278 66.3489 17.7578C66.3489 18.5112 67.156 19.2646 68.2861 19.2646C69.6852 19.2646 70.8152 18.4036 70.9229 16.6816V15.1749ZM79.156 6.13453H85.1829V8.23318H85.2368C86.4206 6.56502 88.0888 5.75785 90.5641 5.75785C93.5238 5.75785 96.2143 7.53363 96.2143 11.3004V22.5471H89.9184V13.9372C89.9184 12.0538 89.7031 10.7085 87.8735 10.7085C86.7973 10.7085 85.3982 11.2466 85.3982 13.8834V22.5471H79.156V6.13453ZM98.4206 0H104.663V10.87L108.645 6.13453H115.694L109.829 12.3229L116.609 22.5471H109.075L105.739 16.6278L104.609 17.8117V22.5471H98.3668V0H98.4206ZM119.407 20.287C119.622 20.5022 119.784 20.8251 119.784 21.148C119.784 21.4709 119.676 21.7937 119.407 22.009C119.192 22.2242 118.869 22.3857 118.546 22.3857C118.223 22.3857 117.9 22.278 117.685 22.009C117.47 21.7937 117.309 21.4709 117.309 21.148C117.309 20.8251 117.416 20.5022 117.685 20.287C117.9 20.0718 118.223 19.9103 118.546 19.9103C118.869 19.9641 119.192 20.0718 119.407 20.287ZM119.569 20.1794C119.3 19.9103 118.977 19.7489 118.546 19.7489C118.169 19.7489 117.847 19.9103 117.524 20.1794C117.255 20.4484 117.093 20.7713 117.093 21.2018C117.093 21.5785 117.255 21.9552 117.524 22.2242C117.793 22.4933 118.116 22.6547 118.546 22.6547C118.923 22.6547 119.246 22.4933 119.569 22.2242C119.838 21.9552 119.999 21.6323 119.999 21.2018C119.945 20.7713 119.838 20.4484 119.569 20.1794ZM118.761 21.0942C118.708 21.0942 118.6 21.148 118.492 21.148H118.223V20.6099H118.439C118.6 20.6099 118.708 20.6099 118.761 20.6637C118.815 20.7175 118.869 20.7713 118.869 20.8789C118.923 20.9865 118.869 21.0404 118.761 21.0942ZM117.954 21.9552H118.223V21.3632H118.439C118.6 21.3632 118.708 21.3632 118.761 21.417C118.869 21.4709 118.923 21.5785 118.923 21.7937V21.9552H119.192V21.6323C119.192 21.5785 119.138 21.4709 119.084 21.417C119.03 21.3094 118.923 21.3094 118.815 21.2556C118.923 21.2556 118.977 21.2018 119.03 21.2018C119.138 21.148 119.192 21.0404 119.192 20.8789C119.192 20.6637 119.138 20.5561 118.977 20.5022C118.869 20.4484 118.761 20.4484 118.546 20.4484H118.008V21.9552H117.954Z" fill="#11292C"/>
</svg>
