<svg width="80" height="56" viewBox="0 0 80 56" fill="none" xmlns="http://www.w3.org/2000/svg">
<path fill-rule="evenodd" clip-rule="evenodd" d="M43.4363 1.75164C39.4641 1.75164 35.8707 3.42014 33.2914 6.10707C31.842 4.20604 29.9728 2.66571 27.8298 1.60634C25.6867 0.54697 23.3279 -0.00277855 20.9373 1.05599e-05C12.3559 1.05599e-05 5.39928 6.94701 5.39928 15.5179C5.39669 17.6408 5.83153 19.7414 6.67668 21.6888C4.63951 22.8834 2.95103 24.591 1.77954 26.6415C0.608061 28.6921 -0.00549563 31.0138 3.70893e-05 33.3754C3.70893e-05 40.8272 5.97848 46.8678 13.3533 46.8669C14.2757 46.8671 15.1955 46.7712 16.098 46.5808C18.1235 52.0763 23.4029 55.996 29.5957 55.996C35.5426 55.996 40.6461 52.3843 42.837 47.2309C44.502 48.0455 46.3735 48.5004 48.3517 48.5004C53.0772 48.5004 57.1965 45.8966 59.3567 42.0443C60.4547 42.2656 61.5904 42.382 62.7549 42.382C72.2795 42.382 79.9999 34.5933 79.9999 24.9839C79.9999 15.3744 72.2795 7.58572 62.7549 7.58572C60.3508 7.58283 57.9733 8.08822 55.7782 9.06874C53.3249 4.69668 48.7166 1.75164 43.4363 1.75164ZM11.9127 28.14L11.5889 29.0386H11.5881C11.5469 29.1469 11.5868 29.1843 11.6108 29.2068C11.6159 29.2116 11.6203 29.2157 11.6231 29.2197C11.7356 29.3015 11.849 29.3651 11.9635 29.4293C12.0021 29.451 12.0409 29.4728 12.0798 29.4953C12.8952 29.9284 13.666 30.0526 14.4719 30.0526C16.1124 30.0526 17.1325 29.1803 17.1325 27.7761V27.7489C17.1325 26.4497 15.9811 25.9772 14.9023 25.636L14.7623 25.5922L14.7612 25.5918C13.948 25.3269 13.247 25.0985 13.247 24.5642V24.5353C13.247 24.0768 13.6564 23.7391 14.2934 23.7391C15.0199 23.7549 15.733 23.9379 16.3775 24.2737C16.3775 24.2737 16.5376 24.3752 16.5962 24.2221L16.9287 23.3235C16.9602 23.2378 16.9059 23.173 16.8499 23.138C16.2322 22.7635 15.38 22.5072 14.4981 22.5072L14.3336 22.5089C12.8322 22.5089 11.7832 23.4162 11.7832 24.7164V24.7444C11.7832 26.1145 12.9407 26.5599 14.023 26.8679L14.198 26.9239C14.9863 27.1653 15.6688 27.3753 15.6688 27.93V27.9563C15.6688 28.4664 15.2261 28.8444 14.5121 28.8444C14.2365 28.8444 13.3528 28.8382 12.3991 28.2354C12.3358 28.1983 12.2878 28.1671 12.2427 28.1378C12.2048 28.1132 12.169 28.09 12.1279 28.0657C12.0807 28.0368 11.9643 27.986 11.9127 28.14ZM35.9367 28.14L35.6121 29.0386C35.5702 29.147 35.61 29.1843 35.6341 29.2069C35.6391 29.2116 35.6435 29.2157 35.6462 29.2197C35.759 29.3012 35.8722 29.3646 35.9862 29.4286C36.0253 29.4505 36.0645 29.4725 36.1038 29.4953C36.9184 29.9284 37.6892 30.0526 38.4959 30.0526C40.1364 30.0526 41.1557 29.1803 41.1557 27.7761V27.7489C41.1557 26.4497 40.0052 25.9772 38.9264 25.636L38.7864 25.5922C37.9718 25.3271 37.271 25.0987 37.271 24.5642V24.5353C37.271 24.0768 37.6805 23.7391 38.3174 23.7391C39.0442 23.7548 39.7577 23.9377 40.4024 24.2737C40.4024 24.2737 40.5607 24.3752 40.6211 24.2221C40.65 24.1381 40.923 23.4031 40.9536 23.3235C40.9842 23.2378 40.9291 23.173 40.8749 23.138C40.2563 22.7635 39.4032 22.5072 38.5213 22.5072L38.3577 22.5089C36.8563 22.5089 35.8063 23.4162 35.8063 24.7164V24.7444C35.8063 26.1145 36.9639 26.5599 38.0479 26.8679L38.2229 26.9239C39.0112 27.1653 39.6928 27.3753 39.6928 27.93V27.9563C39.6928 28.4664 39.2492 28.8444 38.5379 28.8444C38.2597 28.8444 37.3777 28.8382 36.4223 28.2354C36.3506 28.193 36.2978 28.1591 36.2467 28.1263C36.2155 28.1062 36.1849 28.0866 36.1511 28.0657C36.1213 28.0473 35.984 27.993 35.9367 28.14ZM53.5833 26.2852C53.5833 25.7611 53.5168 25.265 53.3821 24.8135C53.2491 24.3586 53.0391 23.9578 52.7609 23.6236C52.4809 23.2876 52.1257 23.019 51.7075 22.8239C51.2884 22.6279 50.7958 22.5291 50.2393 22.5291C49.6828 22.5291 49.1903 22.6279 48.7712 22.8239C48.3648 23.009 48.0047 23.2822 47.7169 23.6236C47.4395 23.9578 47.2304 24.3586 47.0957 24.8135C46.9618 25.265 46.8944 25.7602 46.8944 26.2852C46.8903 26.7828 46.9581 27.2785 47.0957 27.7568C47.2198 28.1917 47.4315 28.5966 47.7177 28.9467C48.0048 29.2868 48.3649 29.5577 48.7712 29.7394C49.1894 29.9319 49.6846 30.0281 50.2393 30.0281C50.794 30.0281 51.2875 29.9319 51.7075 29.7394C52.1137 29.5577 52.4738 29.2868 52.7609 28.9467C53.0474 28.5966 53.2589 28.1913 53.3821 27.7559C53.5168 27.3045 53.5833 26.8101 53.5833 26.2852ZM51.5745 24.4303C51.8667 24.8678 52.0137 25.4916 52.0137 26.2852C52.0137 27.0779 51.8649 27.7061 51.5745 28.147C51.2857 28.5854 50.8483 28.7989 50.2393 28.7989C49.6304 28.7989 49.1964 28.5863 48.9129 28.147C48.625 27.7061 48.4789 27.0779 48.4789 26.2852C48.4789 25.4916 48.625 24.8678 48.9112 24.4303C49.1964 23.9963 49.6304 23.7863 50.2393 23.7863C50.8483 23.7863 51.2857 23.9963 51.5745 24.4303ZM64.968 29.5154L64.632 28.5862C64.5857 28.4533 64.457 28.5014 64.457 28.5014C64.2576 28.5792 64.0458 28.6492 63.8201 28.6851C63.5917 28.721 63.338 28.7385 63.0694 28.7385C62.4062 28.7385 61.8795 28.5416 61.5024 28.1523C61.1244 27.7621 60.9109 27.1312 60.9135 26.2799C60.9162 25.5038 61.1043 24.9203 61.4403 24.4749C61.7727 24.0331 62.2819 23.8073 62.96 23.8073C63.5244 23.8073 63.9566 23.8721 64.4072 24.0138C64.4072 24.0138 64.5139 24.0611 64.5664 23.9193C64.61 23.7984 64.6494 23.69 64.6882 23.5835C64.756 23.397 64.8217 23.2162 64.9041 22.984C64.9409 22.8782 64.8508 22.8344 64.8184 22.8222C64.6408 22.753 64.2199 22.6393 63.9041 22.5903C63.6084 22.5466 63.2636 22.5229 62.876 22.5229C62.3021 22.5229 61.7876 22.6209 61.3501 22.816C60.9286 22.9992 60.5521 23.2721 60.2468 23.6157C59.9529 23.95 59.7298 24.3507 59.581 24.8056C59.4323 25.2562 59.3562 25.7541 59.3562 26.2799C59.3562 27.4165 59.6641 28.3325 60.2678 29.0062C60.875 29.6817 61.785 30.0238 62.9731 30.0238C63.674 30.0238 64.394 29.8803 64.9129 29.679C64.9129 29.679 65.0117 29.6292 64.968 29.5154ZM71.7801 26.5341C71.7999 26.394 71.9208 25.5377 71.6403 24.5554C71.5239 24.1171 71.2361 23.6726 71.0471 23.4696C70.7478 23.1476 70.4556 22.9228 70.1651 22.7985C69.788 22.6358 69.3348 22.5291 68.8387 22.5291C68.2595 22.5291 67.7328 22.627 67.3076 22.8274C66.8953 23.0157 66.5304 23.2937 66.2393 23.6411C65.9584 23.9815 65.7476 24.3865 65.612 24.8459C65.4763 25.3017 65.409 25.8004 65.409 26.3254C65.4041 26.8266 65.4746 27.3256 65.6181 27.8058C65.7513 28.2441 65.9812 28.6468 66.2909 28.9843C66.6149 29.3284 67.0141 29.5928 67.4572 29.7569C67.9235 29.938 68.4896 30.0308 69.1397 30.0281C70.4801 30.0246 71.1844 29.7254 71.4749 29.5653C71.5265 29.5364 71.5755 29.4866 71.5143 29.3439L71.2124 28.4944C71.1643 28.3684 71.0374 28.4139 71.0374 28.4139C71.0076 28.4249 70.9766 28.4368 70.9442 28.4492C70.6148 28.5751 70.1356 28.7584 69.1336 28.756C68.4135 28.7551 67.8815 28.5425 67.5464 28.2109C67.2052 27.8723 67.0364 27.3736 67.0075 26.6693L71.6438 26.6728C71.6438 26.6728 71.7663 26.671 71.7776 26.552C71.778 26.549 71.7788 26.543 71.7801 26.5341ZM70.3366 25.524H67.0294C67.095 25.083 67.2148 24.7173 67.4021 24.4303C67.6882 23.9963 68.1204 23.7575 68.7294 23.7575C69.3374 23.7575 69.7382 23.9963 70.0286 24.4303C70.2194 24.7173 70.3025 25.0987 70.3366 25.524ZM34.645 26.5348C34.6642 26.3965 34.7837 25.5392 34.5036 24.5554C34.3881 24.1171 34.1002 23.6726 33.9112 23.4696C33.6129 23.1476 33.3206 22.9228 33.0302 22.7985C32.6103 22.6197 32.1584 22.528 31.702 22.5291C31.1245 22.5291 30.5978 22.627 30.1709 22.8274C29.7591 23.0161 29.3945 23.294 29.1034 23.6411C28.815 23.9963 28.6013 24.4061 28.4752 24.8459C28.3405 25.3017 28.2723 25.8004 28.2723 26.3254C28.2675 26.8267 28.3386 27.3258 28.4831 27.8058C28.6161 28.2438 28.8454 28.6465 29.1542 28.9843C29.4787 29.3282 29.8781 29.5926 30.3214 29.7569C30.7868 29.938 31.3529 30.0308 32.0039 30.0281C33.3425 30.0246 34.0477 29.7254 34.3399 29.5653C34.3907 29.5364 34.4397 29.4866 34.3784 29.3439L34.0757 28.4944C34.0285 28.3684 33.9016 28.4139 33.9016 28.4139C33.8724 28.4247 33.8422 28.4363 33.8105 28.4484C33.4815 28.5744 33.0009 28.7584 31.9969 28.756C31.2768 28.7551 30.7457 28.5425 30.4106 28.2109C30.0685 27.8723 29.9005 27.3736 29.8708 26.6693L34.5079 26.6728C34.5079 26.6728 34.6304 26.671 34.6427 26.552C34.643 26.5491 34.6438 26.5433 34.645 26.5348ZM33.2008 25.524H29.8918C29.9591 25.083 30.0781 24.7173 30.2671 24.4303C30.5515 23.9963 30.9846 23.7575 31.5935 23.7575C32.2016 23.7575 32.6041 23.9963 32.8928 24.4303C33.0827 24.7173 33.1658 25.0987 33.2008 25.524ZM22.4793 25.3927C22.0803 25.335 21.7146 25.3026 21.7146 25.3026C21.5256 25.2877 21.2824 25.2816 20.991 25.2816C20.5938 25.2816 20.2097 25.3315 19.8484 25.4277C19.5019 25.5184 19.1744 25.6704 18.8815 25.8766C18.5981 26.0787 18.3723 26.3368 18.2078 26.6413C18.0442 26.9475 17.9594 27.3071 17.9594 27.7104C17.9594 28.1217 18.0311 28.4778 18.1737 28.7691C18.3114 29.0574 18.5189 29.3067 18.7774 29.4944C19.0611 29.6935 19.3823 29.8329 19.7215 29.9039C20.0855 29.987 20.4984 30.029 20.949 30.029C21.421 30.029 21.8922 29.9898 22.3577 29.9118C22.8135 29.8348 23.3717 29.721 23.5266 29.6852C23.6797 29.6493 23.8503 29.6021 23.8503 29.6021C23.9667 29.5741 23.9571 29.4516 23.9571 29.4516L23.9544 25.2099C23.9544 24.2807 23.706 23.5912 23.2177 23.1634C22.7304 22.7373 22.0138 22.5221 21.0881 22.5221C20.6713 22.5262 20.2555 22.5645 19.8449 22.6367C19.8449 22.6367 18.8334 22.8335 18.4161 23.159C18.4161 23.159 18.3242 23.2168 18.375 23.3436L18.7031 24.2256C18.7433 24.3402 18.8553 24.3008 18.8553 24.3008C18.8553 24.3008 18.8894 24.2868 18.9305 24.2623C19.823 23.7776 20.9517 23.7916 20.9517 23.7916C21.4521 23.7916 21.8388 23.894 22.0978 24.0917C22.3507 24.2868 22.4793 24.5782 22.4793 25.1967V25.3927ZM21.229 28.8312C20.2849 28.889 19.8667 28.56 19.8694 28.5609C19.6874 28.4148 19.662 28.3798 19.6034 28.2861C19.5098 28.1444 19.4634 27.9414 19.4634 27.6816C19.4634 27.2756 19.599 26.9825 19.8772 26.7848C19.8746 26.7856 20.2771 26.4383 21.2211 26.4497C21.887 26.4593 22.4802 26.5564 22.4802 26.5564V28.665C22.4802 28.665 21.8922 28.791 21.229 28.8312ZM58.7647 23.8861C58.8461 23.6752 59.0709 23.04 59.1147 22.9132C59.1212 22.8977 59.1246 22.8811 59.1247 22.8644C59.1248 22.8476 59.1215 22.831 59.1151 22.8155C59.1086 22.8 59.0992 22.786 59.0872 22.7742C59.0753 22.7624 59.0611 22.7531 59.0456 22.7469C58.9659 22.7163 58.5713 22.6332 58.2677 22.6148C57.6842 22.5798 57.3613 22.676 57.0726 22.8073C56.7847 22.9368 56.4662 23.1468 56.2886 23.3847V22.8195C56.2886 22.7417 56.2326 22.6795 56.1539 22.6795H54.9666C54.8887 22.6795 54.8319 22.7417 54.8319 22.8195V29.7359C54.8321 29.7545 54.836 29.7729 54.8433 29.79C54.8506 29.8071 54.8613 29.8226 54.8746 29.8356C54.8879 29.8486 54.9037 29.8589 54.921 29.8658C54.9383 29.8727 54.9567 29.8761 54.9753 29.8759H56.1924C56.2108 29.8759 56.2291 29.8723 56.2462 29.8652C56.2632 29.8581 56.2787 29.8477 56.2917 29.8346C56.3047 29.8215 56.315 29.806 56.322 29.7889C56.329 29.7718 56.3325 29.7535 56.3324 29.735V26.2808C56.3324 25.8171 56.3849 25.3551 56.4864 25.0646C56.5861 24.7759 56.7235 24.5458 56.8932 24.3822C57.0531 24.2227 57.2495 24.1047 57.4654 24.0383C57.6807 23.9718 57.9195 23.9508 58.0866 23.9508C58.3299 23.9508 58.5958 24.0121 58.5958 24.0121C58.686 24.0217 58.735 23.9666 58.7647 23.8861ZM47.765 19.8692C47.8 19.7643 47.7116 19.7214 47.6792 19.7083C47.5305 19.6628 47.3966 19.6321 47.2208 19.5989C47.0414 19.5665 46.8297 19.5508 46.5899 19.5508C45.7518 19.5508 45.0912 19.787 44.6266 20.2551C44.1646 20.7197 43.8523 21.4275 43.6948 22.3584L43.6379 22.6717H42.5871C42.5871 22.6717 42.4567 22.6664 42.4296 22.8064L42.2581 23.7706C42.2441 23.8633 42.2861 23.9211 42.4086 23.9211H43.4323L42.3929 29.7245C42.3124 30.1909 42.2188 30.5759 42.1164 30.8672C42.014 31.1551 41.9143 31.3694 41.7918 31.5278C41.6745 31.6783 41.5608 31.7911 41.3683 31.8533C41.2082 31.9075 41.0245 31.932 40.8224 31.932C40.7095 31.932 40.5607 31.9128 40.4496 31.8909C40.3403 31.869 40.2825 31.8463 40.2003 31.8113C40.2003 31.8113 40.0795 31.7658 40.0323 31.8848C39.9955 31.9836 39.7208 32.7352 39.6893 32.8271C39.6561 32.9198 39.7024 32.9924 39.7593 33.0126C39.8981 33.0625 40.0398 33.1039 40.1837 33.1368C40.4418 33.198 40.6605 33.2024 40.8635 33.2024C41.2896 33.2024 41.6798 33.142 42.0009 33.0239C42.3316 32.8993 42.626 32.6942 42.8575 32.4272C43.1287 32.1289 43.2976 31.8165 43.4612 31.3887C43.6427 30.8826 43.7791 30.3614 43.8689 29.8313L44.9127 23.9202H46.4403C46.4403 23.9202 46.5672 23.9255 46.5952 23.7855L46.7684 22.8213C46.7807 22.7294 46.7413 22.6717 46.6162 22.6717H45.134C45.1355 22.6663 45.1384 22.6481 45.143 22.6194C45.1668 22.4703 45.236 22.0369 45.379 21.6261C45.4496 21.439 45.5607 21.2699 45.7045 21.1309C45.8125 21.0206 45.9459 20.9383 46.093 20.8912C46.24 20.8422 46.4062 20.8186 46.5899 20.8186C46.7998 20.8194 47.0083 20.8518 47.2085 20.9148C47.3599 20.9603 47.3791 20.9165 47.4089 20.8431L47.765 19.8692ZM26.8312 29.8759C26.91 29.8759 26.9642 29.8138 26.9642 29.735V19.8386C26.9642 19.7616 26.91 19.6986 26.8312 19.6986H25.6011C25.5241 19.6986 25.4698 19.7616 25.4698 19.8377V29.7359C25.4698 29.8129 25.5232 29.8759 25.6019 29.8759H26.8312Z" fill="#11292C"/>
</svg>
