<svg width="130" height="34" viewBox="0 0 130 34" fill="none" xmlns="http://www.w3.org/2000/svg">
<path d="M30.0617 16.2222C30.0617 16.8011 29.5718 17.291 28.9928 17.291C28.4138 17.291 27.9239 16.8011 27.9239 16.2222V9.80901C27.9239 9.63087 27.8349 9.40819 27.6567 9.31912L15.2758 2.19339C14.7859 1.88164 14.6077 1.25814 14.875 0.768243C15.1867 0.278349 15.8102 0.100206 16.3001 0.36742L28.6811 7.49315C29.5272 7.98304 30.0171 8.87376 30.0171 9.80901V16.2222H30.0617ZM10.555 31.7206C10.0651 31.4089 9.88695 30.7854 10.1542 30.2955C10.4659 29.8056 11.0894 29.6274 11.5793 29.8947L14.7414 31.7206C14.9195 31.8097 15.1422 31.8097 15.2758 31.7206L27.6567 24.5949C27.8349 24.5058 27.9239 24.3277 27.9239 24.105V22.9916C27.9239 22.4126 28.4138 21.9227 28.9928 21.9227C29.5718 21.9227 30.0617 22.4126 30.0617 22.9916V24.105C30.0617 25.0403 29.5718 25.931 28.7256 26.4209L16.3446 33.5466C15.4985 34.0365 14.5187 34.0365 13.6725 33.5466L10.555 31.7206ZM2.13772 7.04779C2.62761 6.73604 3.29565 6.91418 3.56286 7.44861C3.87461 7.93851 3.69647 8.60654 3.16204 8.87376L2.3604 9.31912C2.18225 9.40819 2.09318 9.58633 2.09318 9.80901V24.105C2.09318 24.2831 2.18225 24.5058 2.3604 24.5949L5.70058 26.5099C6.19048 26.8217 6.36862 27.4452 6.10141 27.9351C5.78965 28.425 5.16615 28.6031 4.67626 28.3359L1.33607 26.4209C0.489894 25.931 0 25.0403 0 24.105V9.80901C0 8.87376 0.489894 7.98304 1.33607 7.49315L2.13772 7.04779ZM16.3892 0.36742C16.8791 0.679171 17.0572 1.30267 16.79 1.79257C16.4782 2.28246 15.8547 2.4606 15.3649 2.19339C15.1867 2.10432 14.964 2.10432 14.8304 2.19339L9.12984 5.48904C8.63995 5.80079 7.97191 5.62265 7.70469 5.08822C7.39294 4.59832 7.57109 3.93028 8.10552 3.66307L13.8061 0.36742C14.5187 -0.122473 15.543 -0.122473 16.3892 0.36742Z" fill="#002C63"/>
<path d="M29.0376 20.6319C29.6166 20.6319 30.1065 20.142 30.1065 19.563C30.1065 18.984 29.6166 18.4941 29.0376 18.4941C28.4586 18.4941 27.9688 18.984 27.9688 19.563C27.9687 20.142 28.4586 20.6319 29.0376 20.6319Z" fill="#002C63"/>
<path d="M8.19386 30.251C8.77282 30.251 9.26272 29.7611 9.26272 29.1821C9.26272 28.6032 8.77282 28.1133 8.19386 28.1133C7.61489 28.1133 7.125 28.6032 7.125 29.1821C7.125 29.7611 7.61489 30.251 8.19386 30.251Z" fill="#002C63"/>
<path d="M5.52198 7.27053C6.10095 7.27053 6.59084 6.78064 6.59084 6.20167C6.59084 5.62271 6.10095 5.13281 5.52198 5.13281C4.94302 5.13281 4.45312 5.62271 4.45312 6.20167C4.49766 6.82517 4.94302 7.27053 5.52198 7.27053Z" fill="#002C63"/>
<path d="M10.8227 21.61C11.6243 21.61 12.3815 21.4764 13.005 21.2537C13.6285 20.9865 14.1183 20.6748 14.4746 20.1849C14.8309 19.7395 15.0091 19.2051 15.0091 18.5816C15.0091 18.0026 14.8755 17.5573 14.6528 17.1564C14.3856 16.8001 14.0293 16.4884 13.4948 16.2212C12.9604 15.9985 12.2924 15.7758 11.4462 15.6422C10.9563 15.5531 10.5555 15.4195 10.2437 15.3305C9.93198 15.2414 9.75384 15.1078 9.62023 14.9742C9.48662 14.8406 9.44209 14.6624 9.44209 14.4843C9.44209 14.1725 9.5757 13.9499 9.79837 13.8162C10.0211 13.6826 10.3328 13.5936 10.7336 13.5936C11.1344 13.5936 11.4017 13.6826 11.6689 13.8162C11.8916 13.9499 12.0697 14.128 12.1142 14.3507C12.1588 14.4397 12.2478 14.4843 12.2924 14.5288C12.3815 14.5734 12.4705 14.5734 12.5596 14.5734H14.3856C14.4746 14.5734 14.5637 14.5288 14.6082 14.4843C14.6528 14.4397 14.6973 14.3507 14.6973 14.2616C14.6973 13.9499 14.6082 13.6826 14.4301 13.3709C14.252 13.0591 13.9847 12.7474 13.673 12.4802C13.3612 12.213 12.9159 11.9903 12.426 11.8121C11.9361 11.634 11.3571 11.5449 10.7336 11.5449C9.93198 11.5449 9.26394 11.6785 8.68498 11.9012C8.10601 12.1684 7.66066 12.4802 7.34891 12.9255C7.03715 13.3709 6.85901 13.8608 6.85901 14.4397C6.85901 15.0187 6.99262 15.5086 7.25983 15.8649C7.52705 16.2657 7.88333 16.5775 8.37323 16.8001C8.86312 17.0228 9.48662 17.2455 10.1547 17.3791C10.6891 17.4682 11.1344 17.6018 11.4462 17.6909C11.758 17.7799 12.0252 17.9135 12.1588 18.0471C12.2924 18.1808 12.3815 18.3589 12.3815 18.5816C12.3815 18.8488 12.2478 19.116 11.9806 19.2496C11.7134 19.4278 11.3126 19.5168 10.7782 19.5168C10.4664 19.5168 10.1992 19.4723 9.97652 19.3832C9.75384 19.2942 9.5757 19.2051 9.44209 19.0715C9.30848 18.9379 9.21941 18.8043 9.13034 18.6707C9.0858 18.5816 8.99673 18.537 8.95219 18.4925C8.86312 18.448 8.77405 18.4034 8.64044 18.4034H6.90355C6.81448 18.4034 6.76994 18.448 6.68087 18.4925C6.63633 18.537 6.5918 18.6261 6.5918 18.7152C6.5918 19.2051 6.76994 19.6504 7.08169 20.0958C7.39344 20.5412 7.8388 20.8529 8.4623 21.1201C9.13034 21.4764 9.88745 21.61 10.8227 21.61ZM19.5072 24.5494C20.2643 24.5494 20.9323 24.4158 21.4668 24.1931C22.0012 23.9704 22.402 23.5696 22.7138 23.0797C22.981 22.5898 23.1591 22.0108 23.1591 21.2983V14.6179C23.1591 14.5288 23.1146 14.4397 23.07 14.3952C22.981 14.3061 22.9364 14.3061 22.8028 14.3061H21.1995C21.1105 14.3061 21.0214 14.3507 20.9323 14.3952C20.8878 14.4843 20.8433 14.5288 20.8433 14.6179V15.1523C20.6206 14.8851 20.3088 14.6179 19.9525 14.4397C19.5963 14.2616 19.1509 14.1725 18.661 14.1725C18.1711 14.1725 17.7703 14.2616 17.414 14.3952C17.0577 14.5288 16.746 14.7515 16.5233 15.0633C16.2561 15.3305 16.0779 15.6868 15.9443 16.0876C15.8107 16.4884 15.7216 16.9338 15.7216 17.4236C15.7216 17.6909 15.7216 17.9135 15.7216 18.1808C15.7662 18.7152 15.8107 19.1605 15.9443 19.5614C16.0779 19.9622 16.2561 20.3185 16.5233 20.5857C16.746 20.8529 17.0577 21.0756 17.414 21.2092C17.7703 21.3428 18.1711 21.4319 18.661 21.4319C19.1509 21.4319 19.5517 21.3428 19.8635 21.2092C20.1752 21.0756 20.487 20.8974 20.6651 20.6302V21.5655C20.6651 21.8772 20.6206 22.1444 20.5315 22.3671C20.4424 22.5453 20.3088 22.7234 20.1307 22.8125C19.9525 22.9016 19.7299 22.9461 19.4181 22.9461C19.1509 22.9461 18.9728 22.9016 18.8391 22.857C18.7055 22.7679 18.5719 22.6789 18.5274 22.5898C18.4383 22.5007 18.3938 22.3671 18.3492 22.2781C18.3047 22.189 18.2602 22.0999 18.2156 22.0554C18.1266 21.8772 18.0375 21.8772 17.9484 21.8772H16.167C16.0779 21.8772 15.9889 21.9218 15.8998 21.9663C15.8107 22.0108 15.8107 22.0999 15.8107 22.2335C15.8107 22.3671 15.8998 22.5898 15.9889 22.857C16.1225 23.1242 16.3006 23.3469 16.5678 23.6141C16.835 23.8813 17.1913 24.104 17.6812 24.2822C18.1711 24.4603 18.7946 24.5494 19.5072 24.5494ZM19.3736 19.5168C19.0618 19.5168 18.8391 19.4723 18.661 19.3387C18.4829 19.2051 18.3492 19.0269 18.2602 18.8043C18.1711 18.5816 18.1266 18.3589 18.1266 18.0471C18.1266 17.8245 18.1266 17.6463 18.1266 17.4236C18.1266 17.1564 18.2156 16.8892 18.2602 16.6665C18.3492 16.4439 18.4829 16.2657 18.661 16.1321C18.8391 15.9985 19.1064 15.954 19.3736 15.954C19.6853 15.954 19.908 15.9985 20.0861 16.1321C20.2643 16.2657 20.3979 16.3993 20.487 16.622C20.576 16.8447 20.6206 17.0674 20.6206 17.29C20.6206 17.3791 20.6206 17.5127 20.6206 17.6909C20.6206 17.869 20.6206 18.0026 20.6206 18.1362C20.6206 18.3589 20.576 18.5816 20.487 18.8043C20.3979 19.0269 20.2643 19.1605 20.0861 19.2942C19.908 19.4723 19.6853 19.5168 19.3736 19.5168Z" fill="#002C63"/>
<path d="M40.5274 22.7238C41.3736 22.7238 42.1307 22.5902 42.7542 22.3676C43.3777 22.1003 43.8676 21.7441 44.2239 21.2987C44.5801 20.8088 44.7583 20.2744 44.7583 19.6063C44.7583 18.9828 44.6247 18.4929 44.3575 18.1367C44.0903 17.7358 43.6894 17.4241 43.155 17.1569C42.6206 16.8897 41.908 16.667 41.0618 16.3998C40.3492 16.1771 39.8148 15.9989 39.3695 15.8208C38.9241 15.6426 38.6124 15.42 38.4342 15.1973C38.2115 14.9746 38.1225 14.6629 38.1225 14.3066C38.1225 13.7276 38.3451 13.3268 38.746 13.0596C39.1913 12.7924 39.7257 12.6587 40.4383 12.6587C41.1064 12.6587 41.6853 12.7924 42.0861 13.1041C42.5315 13.4159 42.7542 13.7721 42.7987 14.2175C42.8433 14.3511 42.8878 14.3956 42.9769 14.4402C43.0659 14.4847 43.155 14.4847 43.1995 14.4847H44.0903C44.2239 14.4847 44.3129 14.4402 44.3575 14.3956C44.402 14.3066 44.4465 14.262 44.4465 14.173C44.4465 13.8612 44.3575 13.5495 44.1793 13.1932C44.0012 12.8369 43.7785 12.5251 43.4222 12.2579C43.1105 11.9462 42.6651 11.7235 42.1752 11.5454C41.6853 11.3672 41.1064 11.2781 40.4383 11.2781C39.5921 11.2781 38.9241 11.4117 38.3451 11.679C37.7662 11.9462 37.3208 12.3025 37.0091 12.7478C36.6973 13.1932 36.5637 13.7276 36.5637 14.3066C36.5637 14.9301 36.6973 15.42 36.92 15.8208C37.1872 16.2216 37.5435 16.5334 38.0779 16.8006C38.5678 17.0678 39.2359 17.2905 39.993 17.5132C40.7501 17.7358 41.329 17.914 41.8189 18.0921C42.2643 18.2703 42.6206 18.4929 42.8433 18.7156C43.0659 18.9383 43.1995 19.25 43.1995 19.6063C43.1995 20.1408 42.9769 20.5861 42.576 20.8979C42.1307 21.2096 41.4626 21.3878 40.5719 21.3878C39.993 21.3878 39.5031 21.2987 39.1022 21.1206C38.746 20.9424 38.4342 20.7643 38.2115 20.4971C37.9889 20.2298 37.8552 20.0072 37.8107 19.7399C37.8107 19.6509 37.7662 19.5618 37.6771 19.5173C37.6326 19.4727 37.499 19.4282 37.4099 19.4282H36.6082C36.5192 19.4282 36.4301 19.4727 36.341 19.5173C36.252 19.6063 36.252 19.6509 36.252 19.7399C36.252 20.2298 36.4301 20.7197 36.7864 21.1651C37.1427 21.6104 37.588 21.9667 38.2115 22.2785C38.835 22.5902 39.5921 22.7238 40.5274 22.7238ZM50.9933 22.5457C51.0824 22.5457 51.1714 22.5012 51.2605 22.4566C51.3496 22.3676 51.3496 22.2785 51.3496 22.1894V21.6104C51.3496 21.5214 51.3051 21.4323 51.2605 21.3432C51.1714 21.2542 51.0824 21.2542 50.9933 21.2542H50.0135C49.5682 21.2542 49.2564 21.1206 49.1228 20.8088C48.9447 20.5416 48.8556 20.1408 48.8556 19.6509V15.5536H50.8152C50.9042 15.5536 50.9933 15.509 51.0824 15.4645C51.1714 15.42 51.1714 15.2864 51.1714 15.1973V14.6629C51.1714 14.5738 51.1269 14.4847 51.0824 14.3956C51.0378 14.3066 50.9042 14.3066 50.8152 14.3066H48.8556V11.6344C48.8556 11.5454 48.811 11.4563 48.7665 11.3672C48.6774 11.2781 48.5884 11.2781 48.4993 11.2781H47.7422C47.6531 11.2781 47.564 11.3227 47.475 11.3672C47.3859 11.4563 47.3859 11.5454 47.3859 11.6344V14.3066H46.1389C46.0498 14.3066 45.9608 14.3511 45.8717 14.3956C45.7826 14.4847 45.7826 14.5738 45.7826 14.6629V15.1973C45.7826 15.2864 45.8272 15.3754 45.8717 15.4645C45.9608 15.5536 46.0498 15.5536 46.1389 15.5536H47.3859V19.7399C47.3859 20.3189 47.475 20.8088 47.6531 21.2096C47.8313 21.6104 48.0985 21.9667 48.4548 22.1894C48.8111 22.4121 49.3009 22.5457 49.9244 22.5457H50.9933ZM54.0217 22.5457C54.1108 22.5457 54.1999 22.5012 54.289 22.4566C54.378 22.3676 54.378 22.2785 54.378 22.1894V17.5132C54.378 16.9342 54.5562 16.4888 54.8679 16.1325C55.1797 15.7763 55.6696 15.6426 56.204 15.6426H57.1392C57.2283 15.6426 57.3174 15.5981 57.4065 15.5536C57.451 15.509 57.4955 15.42 57.4955 15.2864V14.6183C57.4955 14.5293 57.451 14.4402 57.4065 14.3511C57.3619 14.262 57.2729 14.262 57.1392 14.262H56.5603C56.0258 14.262 55.5805 14.3511 55.2242 14.5293C54.8679 14.7074 54.5562 14.9746 54.3335 15.3309V14.6183C54.3335 14.5293 54.289 14.4402 54.1999 14.3511C54.1108 14.262 54.0217 14.2175 53.9327 14.2175H53.2201C53.131 14.2175 53.042 14.262 52.9529 14.3511C52.8638 14.4402 52.8638 14.5293 52.8638 14.6183V22.1449C52.8638 22.2339 52.9083 22.323 52.9529 22.4121C53.042 22.5012 53.131 22.5012 53.2201 22.5012H54.0217V22.5457ZM60.1677 12.7033C60.2568 12.7033 60.3458 12.6587 60.4349 12.6142C60.524 12.5251 60.524 12.4361 60.524 12.347V11.5008C60.524 11.4117 60.4794 11.3227 60.4349 11.2336C60.3904 11.1445 60.2568 11.1445 60.1677 11.1445H59.1434C59.0543 11.1445 58.9652 11.1891 58.8761 11.2336C58.7871 11.2781 58.7871 11.4117 58.7871 11.5008V12.347C58.7871 12.4361 58.8316 12.5251 58.8761 12.6142C58.9652 12.7033 59.0543 12.7033 59.1434 12.7033H60.1677ZM60.0786 22.5457C60.1677 22.5457 60.2568 22.5012 60.3458 22.4566C60.3904 22.3676 60.4349 22.2785 60.4349 22.1894V14.6183C60.4349 14.5293 60.3904 14.4402 60.3458 14.3511C60.3013 14.262 60.2122 14.262 60.0786 14.262H59.3215C59.2324 14.262 59.1434 14.3066 59.0543 14.3511C58.9652 14.4402 58.9652 14.5293 58.9652 14.6183V22.1894C58.9652 22.2785 59.0098 22.3676 59.0543 22.4566C59.1434 22.5457 59.2324 22.5457 59.3215 22.5457H60.0786ZM63.9087 22.5457C63.9978 22.5457 64.0868 22.5012 64.1759 22.4566C64.265 22.3676 64.265 22.2785 64.265 22.1894V18.8938L67.8278 22.2785C67.9614 22.3676 68.0505 22.4566 68.095 22.5012C68.1841 22.5457 68.2732 22.5457 68.4513 22.5457H69.2975C69.3866 22.5457 69.4757 22.5012 69.5202 22.4566C69.5647 22.4121 69.6093 22.323 69.6093 22.2339C69.6093 22.1449 69.5647 22.0558 69.4311 21.9667L65.3338 18.003L69.0303 14.9301C69.1194 14.8855 69.1639 14.841 69.1639 14.7519C69.2084 14.7074 69.2084 14.6629 69.2084 14.6183C69.2084 14.5293 69.1639 14.4402 69.1194 14.3956C69.0748 14.3511 68.9858 14.3066 68.8967 14.3066H68.0505C67.8724 14.3066 67.7833 14.3066 67.6942 14.3511C67.6052 14.3956 67.5161 14.4402 67.3825 14.5738L64.265 17.2014V11.5899C64.265 11.5008 64.2204 11.4117 64.1759 11.3227C64.0868 11.2336 63.9978 11.2336 63.9087 11.2336H63.1516C63.0625 11.2336 62.9734 11.2781 62.8844 11.3227C62.7953 11.4117 62.7953 11.5008 62.7953 11.5899V22.1894C62.7953 22.2785 62.8398 22.3676 62.8844 22.4566C62.9734 22.5457 63.0625 22.5457 63.1516 22.5457H63.9087ZM74.2855 22.7238C74.82 22.7238 75.3099 22.6348 75.7552 22.5012C76.2006 22.3676 76.5569 22.1894 76.8241 21.9667C77.1358 21.7441 77.3585 21.5214 77.4921 21.2987C77.6702 21.076 77.7148 20.8979 77.7593 20.7197C77.7593 20.6307 77.7593 20.5416 77.6702 20.4525C77.5812 20.408 77.4921 20.3634 77.403 20.3634H76.6459C76.5123 20.3634 76.4232 20.3634 76.3787 20.408C76.3342 20.4525 76.2451 20.4971 76.156 20.6752C76.1115 20.7643 75.9779 20.8533 75.8443 20.9869C75.6661 21.1206 75.488 21.2542 75.2208 21.3878C74.9536 21.5214 74.6418 21.5659 74.2855 21.5659C73.8402 21.5659 73.4393 21.4323 73.1276 21.2096C72.8158 20.9869 72.5486 20.6752 72.415 20.2744C72.2369 19.9181 72.1478 19.4727 72.1478 19.0719V18.9383H77.6702C77.7593 18.9383 77.8484 18.8938 77.9375 18.8492C78.0265 18.8047 78.0265 18.7156 78.0265 18.582V18.3148C78.0265 17.4686 77.8929 16.756 77.5812 16.1325C77.314 15.509 76.8686 15.0191 76.3342 14.6629C75.7997 14.3066 75.1317 14.173 74.2855 14.173C73.573 14.173 72.9495 14.3066 72.415 14.6183C71.8806 14.9301 71.4352 15.3754 71.168 15.9544C70.8563 16.5334 70.6781 17.2014 70.6336 17.9585C70.6336 18.0921 70.6336 18.2703 70.6336 18.4929C70.6336 18.7156 70.6336 18.8938 70.6336 19.0274C70.6781 20.1853 71.0344 21.1206 71.7025 21.7886C72.326 22.3676 73.2167 22.7238 74.2855 22.7238ZM76.5123 17.8249H72.1478V17.7804C72.1478 17.2905 72.2369 16.8897 72.415 16.4888C72.5932 16.1325 72.8158 15.8208 73.1721 15.5981C73.4839 15.3754 73.8847 15.2864 74.3301 15.2864C74.7754 15.2864 75.1762 15.3754 75.488 15.5981C75.7997 15.8208 76.067 16.1325 76.2451 16.4888C76.4232 16.8451 76.5123 17.2905 76.5123 17.7804V17.8249Z" fill="#002C63"/>
<path d="M88.1364 22.7246C89.1608 22.7246 90.0515 22.5465 90.8086 22.1902C91.5657 21.8339 92.1447 21.344 92.59 20.7205C92.9908 20.0525 93.2135 19.2954 93.2135 18.3601V16.5341C93.2135 16.4005 93.169 16.3115 93.0799 16.2224C92.9909 16.1333 92.9018 16.0888 92.8127 16.0888H88.8045C88.6709 16.0888 88.5818 16.1333 88.5373 16.2224C88.4482 16.3115 88.4482 16.4005 88.4482 16.5341V17.6921C88.4482 17.8257 88.4927 17.9147 88.5373 18.0038C88.6263 18.0929 88.7154 18.1374 88.8045 18.1374H90.3187V18.4492C90.3187 18.8945 90.2296 19.2954 90.0515 19.5626C89.8733 19.8743 89.6061 20.0525 89.2944 20.1861C88.9826 20.3197 88.6263 20.4088 88.2255 20.4088C87.602 20.4088 87.1567 20.2306 86.7558 19.9189C86.355 19.6071 86.1769 19.0727 86.1769 18.3156C86.1323 17.3803 86.1323 16.4451 86.1769 15.5543C86.2214 14.8418 86.3996 14.3519 86.7558 14.0401C87.1121 13.7284 87.5575 13.5502 88.181 13.5502C88.5818 13.5502 88.8936 13.5948 89.1608 13.7284C89.428 13.862 89.6061 13.9956 89.7397 14.1737C89.8733 14.3519 90.007 14.53 90.0515 14.6636C90.096 14.7527 90.1406 14.7972 90.1851 14.8418C90.2296 14.8863 90.3187 14.8863 90.4523 14.8863H92.7682C92.8572 14.8863 92.9463 14.8418 93.0354 14.7972C93.1245 14.7527 93.1245 14.6636 93.1245 14.5746C93.1245 14.1737 92.9909 13.8175 92.7682 13.4166C92.5455 13.0158 92.2337 12.6595 91.7884 12.3478C91.343 12.036 90.8531 11.7688 90.2296 11.5461C89.6061 11.368 88.8936 11.2344 88.0919 11.2344C87.1121 11.2344 86.2659 11.4125 85.5088 11.7243C84.7963 12.036 84.2173 12.5259 83.8165 13.1494C83.4157 13.7729 83.193 14.53 83.1484 15.4653C83.1484 15.9106 83.1484 16.4451 83.1484 16.935C83.1484 17.4694 83.1484 17.9147 83.1484 18.4046C83.193 19.3399 83.4157 20.097 83.8165 20.765C84.2173 21.3885 84.7963 21.8784 85.5088 22.2347C86.2214 22.5465 87.1121 22.7246 88.1364 22.7246ZM97.1772 22.5465C97.3108 22.5465 97.3999 22.5019 97.489 22.4129C97.578 22.3238 97.6226 22.2347 97.6226 22.1456V18.0484C97.6226 17.603 97.7562 17.2912 97.9789 17.024C98.2015 16.8013 98.5578 16.6677 99.0032 16.6677H100.562C100.696 16.6677 100.785 16.6232 100.829 16.5341C100.918 16.4451 100.918 16.356 100.918 16.2669V14.6191C100.918 14.4855 100.874 14.3964 100.829 14.3519C100.74 14.2628 100.651 14.2183 100.562 14.2183H99.8494C99.3595 14.2183 98.9141 14.3073 98.5133 14.4855C98.1125 14.6636 97.7562 14.9308 97.489 15.2426V14.6191C97.489 14.53 97.4444 14.441 97.3554 14.3519C97.2663 14.2628 97.1772 14.2183 97.0436 14.2183H95.2176C95.084 14.2183 94.995 14.2628 94.9504 14.3519C94.8614 14.441 94.8614 14.53 94.8614 14.6191V22.1011C94.8614 22.1902 94.9059 22.2793 94.9504 22.3683C95.0395 22.4574 95.1286 22.5019 95.2176 22.5019H97.1772V22.5465ZM104.526 22.7246C104.926 22.7246 105.283 22.6801 105.594 22.591C105.906 22.5019 106.173 22.3683 106.396 22.1902C106.619 22.012 106.797 21.8339 106.975 21.6112V22.1902C106.975 22.2793 107.02 22.3683 107.109 22.4574C107.198 22.5465 107.287 22.591 107.376 22.591H109.202C109.291 22.591 109.38 22.5465 109.469 22.4574C109.558 22.3683 109.603 22.2793 109.603 22.1902V17.2912C109.603 16.8459 109.514 16.4005 109.38 15.9997C109.246 15.5989 109.024 15.2871 108.712 14.9754C108.4 14.7082 107.999 14.4855 107.51 14.3073C107.02 14.1292 106.441 14.0847 105.773 14.0847C105.105 14.0847 104.526 14.1737 104.08 14.3073C103.635 14.4855 103.234 14.6636 102.922 14.9308C102.611 15.1535 102.388 15.4207 102.254 15.688C102.121 15.9552 102.032 16.1778 102.032 16.356C102.032 16.4451 102.032 16.5341 102.121 16.6232C102.165 16.7123 102.254 16.7123 102.388 16.7123H104.169C104.347 16.7123 104.481 16.6232 104.57 16.4896C104.659 16.2669 104.837 16.1333 105.016 15.9997C105.194 15.8661 105.461 15.8216 105.728 15.8216C106.173 15.8216 106.441 15.9106 106.619 16.1333C106.797 16.356 106.841 16.6232 106.841 17.024V17.2467L104.837 17.5585C103.813 17.7366 103.011 18.0038 102.388 18.4492C101.764 18.8945 101.453 19.4735 101.453 20.2306C101.453 20.676 101.586 21.1213 101.853 21.4776C102.121 21.8339 102.477 22.1456 102.922 22.3683C103.457 22.591 103.947 22.7246 104.526 22.7246ZM105.283 20.8986C105.06 20.8986 104.882 20.8541 104.704 20.8096C104.526 20.7205 104.392 20.6314 104.303 20.4978C104.214 20.3642 104.125 20.2306 104.125 20.0525C104.125 19.8298 104.258 19.6071 104.481 19.429C104.704 19.2508 105.06 19.1172 105.594 19.0281L106.931 18.8055V19.0281C106.931 19.4735 106.841 19.7852 106.708 20.097C106.574 20.3642 106.352 20.5869 106.129 20.7205C105.862 20.8096 105.594 20.8986 105.283 20.8986ZM113.789 25.5749C113.923 25.5749 114.012 25.5304 114.056 25.4413C114.145 25.3522 114.145 25.2632 114.145 25.1741V21.6558C114.413 22.012 114.724 22.2793 115.125 22.4574C115.526 22.6355 115.971 22.7246 116.506 22.7246C117.04 22.7246 117.486 22.6355 117.931 22.4574C118.376 22.2793 118.688 22.0566 118.955 21.7003C119.222 21.3885 119.445 20.9877 119.623 20.5424C119.801 20.097 119.89 19.5626 119.89 18.9836C119.89 18.7609 119.89 18.5828 119.89 18.4046C119.89 18.2265 119.89 18.0484 119.89 17.8257C119.89 17.2467 119.801 16.7123 119.623 16.2669C119.445 15.8216 119.222 15.4207 118.955 15.109C118.643 14.7972 118.332 14.53 117.931 14.3964C117.53 14.2183 117.04 14.1292 116.55 14.1292C115.971 14.1292 115.481 14.2183 115.081 14.441C114.68 14.6636 114.368 14.9308 114.101 15.2426V14.6636C114.101 14.53 114.056 14.441 113.967 14.3964C113.878 14.3073 113.789 14.2628 113.7 14.2628H111.919C111.785 14.2628 111.696 14.3073 111.651 14.3964C111.562 14.4855 111.518 14.5746 111.518 14.6636V25.1741C111.518 25.3077 111.562 25.3968 111.651 25.4413C111.74 25.5304 111.829 25.5749 111.919 25.5749H113.789ZM115.66 20.5869C115.348 20.5869 115.081 20.4978 114.858 20.3642C114.635 20.2306 114.502 20.0525 114.368 19.7852C114.279 19.5626 114.19 19.2954 114.19 19.0281C114.19 18.8055 114.19 18.6273 114.19 18.4046C114.19 18.2265 114.19 18.0038 114.19 17.8257C114.19 17.5585 114.279 17.2912 114.368 17.024C114.457 16.8013 114.635 16.5787 114.813 16.4451C115.036 16.3115 115.303 16.2224 115.66 16.2224C116.016 16.2224 116.283 16.3115 116.506 16.4451C116.728 16.5787 116.862 16.8014 116.951 17.0686C117.04 17.3358 117.085 17.603 117.129 17.9147C117.129 18.2265 117.129 18.5828 117.129 18.8945C117.129 19.2063 117.04 19.4735 116.951 19.7407C116.862 20.0079 116.728 20.1861 116.506 20.3642C116.283 20.4978 116.016 20.5869 115.66 20.5869ZM123.943 22.5465C124.077 22.5465 124.166 22.5019 124.21 22.4129C124.3 22.3238 124.3 22.2347 124.3 22.1456V17.7811C124.3 17.2912 124.433 16.8904 124.7 16.6232C124.968 16.356 125.324 16.2224 125.769 16.2224C126.215 16.2224 126.571 16.356 126.794 16.6232C127.016 16.8904 127.15 17.2912 127.15 17.7811V22.1456C127.15 22.2347 127.194 22.3238 127.283 22.4129C127.372 22.5019 127.462 22.5465 127.551 22.5465H129.599C129.733 22.5465 129.822 22.5019 129.866 22.4129C129.956 22.3238 130 22.2347 130 22.1456V17.6921C130 16.8904 129.866 16.2669 129.599 15.7325C129.332 15.1981 128.931 14.7972 128.441 14.53C127.951 14.2628 127.417 14.1292 126.794 14.1292C126.259 14.1292 125.769 14.2183 125.324 14.441C124.923 14.6191 124.567 14.8863 124.255 15.2426V11.6797C124.255 11.5461 124.21 11.4571 124.166 11.4125C124.077 11.3234 123.988 11.2789 123.899 11.2789H121.85C121.716 11.2789 121.627 11.3234 121.583 11.4125C121.494 11.5016 121.449 11.5907 121.449 11.6797V22.1902C121.449 22.2793 121.494 22.3683 121.583 22.4574C121.672 22.5465 121.761 22.591 121.85 22.591H123.943V22.5465Z" fill="#002C63"/>
</svg>
