<svg width="80" height="28" viewBox="0 0 80 28" fill="none" xmlns="http://www.w3.org/2000/svg">
<path d="M4.60267 19.8345C4.94074 20.7317 5.40879 21.4988 6.00691 22.1358C6.60503 22.773 7.31362 23.2605 8.13269 23.5986C8.95185 23.9367 9.84247 24.1057 10.8046 24.1057C11.7408 24.1057 12.6184 23.9301 13.4376 23.579C14.2567 23.2279 14.9718 22.7339 15.5829 22.0968C16.1939 21.4597 16.6685 20.6992 17.0066 19.815C17.3447 18.9309 17.5137 17.9428 17.5137 16.8506V0H21.6093V27.3041H17.5527V24.7687C16.6426 25.7308 15.5698 26.4719 14.3347 26.9921C13.0994 27.5121 11.7668 27.7721 10.3366 27.7721C8.8803 27.7721 7.52163 27.5186 6.2604 27.0115C4.99926 26.5044 3.90702 25.7829 2.98395 24.8467C2.06088 23.9105 1.33269 22.786 0.79965 21.4727C0.266521 20.1595 0 18.6969 0 17.0845V0H4.09561V16.8506C4.09561 17.9428 4.2646 18.9373 4.60267 19.8345Z" fill="#11292C"/>
<path d="M28.6681 0V9.94647C29.5782 9.03635 30.6314 8.31481 31.8276 7.78168C33.0237 7.24855 34.324 6.98203 35.7281 6.98203C37.1844 6.98203 38.5495 7.25502 39.8237 7.8011C41.0979 8.34717 42.203 9.0883 43.1392 10.0245C44.0754 10.9607 44.8165 12.0658 45.3626 13.34C45.9087 14.6142 46.1817 15.9664 46.1817 17.3966C46.1817 18.8268 45.9087 20.1725 45.3626 21.4336C44.8165 22.6949 44.0754 23.7936 43.1392 24.7296C42.203 25.6658 41.0979 26.4069 39.8237 26.953C38.5495 27.4991 37.1843 27.7721 35.7281 27.7721C34.3239 27.7721 33.0173 27.5055 31.8081 26.9724C30.5989 26.4394 29.5392 25.7177 28.6291 24.8076V27.304H24.7285V0H28.6681ZM29.1166 20.088C29.4676 20.9202 29.9553 21.6483 30.5794 22.2724C31.2035 22.8965 31.9316 23.3906 32.7637 23.7547C33.5959 24.1187 34.493 24.3007 35.4551 24.3007C36.3913 24.3007 37.2754 24.1187 38.1075 23.7547C38.9396 23.3906 39.6611 22.8966 40.2724 22.2724C40.8834 21.6484 41.371 20.9202 41.735 20.088C42.0991 19.2559 42.2811 18.3588 42.2811 17.3966C42.2811 16.4345 42.0991 15.5308 41.735 14.6857C41.371 13.8405 40.8834 13.106 40.2724 12.4819C39.6612 11.8579 38.9397 11.3702 38.1075 11.0192C37.2753 10.6682 36.3912 10.4925 35.4551 10.4925C34.519 10.4925 33.6349 10.6681 32.8028 11.0192C31.9707 11.3703 31.2426 11.8579 30.6184 12.4819C29.9944 13.106 29.5003 13.8405 29.1362 14.6857C28.7722 15.5308 28.5901 16.4345 28.5901 17.3966C28.5901 18.3588 28.7656 19.2559 29.1166 20.088Z" fill="#11292C"/>
<path d="M48.405 13.3793C48.925 12.1311 49.6402 11.0325 50.5503 10.0834C51.4603 9.13423 52.5396 8.38663 53.7878 7.84055C55.036 7.29448 56.3882 7.02148 57.8444 7.02148C59.2746 7.02148 60.6008 7.28153 61.823 7.80154C63.0452 8.32164 64.0983 9.04327 64.9825 9.96642C65.8666 10.8895 66.5558 11.9817 67.0497 13.2429C67.5438 14.5041 67.7908 15.8758 67.7908 17.3581V18.6453H51.6035C51.7336 19.4514 51.9936 20.199 52.3836 20.888C52.7737 21.5771 53.2612 22.1752 53.8463 22.6823C54.4314 23.1894 55.0945 23.586 55.8356 23.872C56.5768 24.158 57.3633 24.3011 58.1955 24.3011C60.5619 24.3011 62.4732 23.3259 63.9294 21.3756L66.7768 23.4818C65.7887 24.8081 64.5665 25.8483 63.1103 26.6023C61.654 27.3564 60.0158 27.7335 58.1956 27.7335C56.7133 27.7335 55.3287 27.4734 54.0414 26.9533C52.7542 26.4333 51.6361 25.7052 50.687 24.769C49.7378 23.8328 48.9902 22.7342 48.4442 21.473C47.8981 20.2119 47.625 18.8401 47.625 17.3579C47.6248 15.9537 47.885 14.6275 48.405 13.3793ZM53.8853 11.8385C52.7801 12.7617 52.0456 13.9904 51.6815 15.5246H63.8124C63.4743 13.9904 62.7527 12.7617 61.6475 11.8385C60.5423 10.9155 59.2486 10.4539 57.7664 10.4539C56.2842 10.4539 54.9905 10.9155 53.8853 11.8385Z" fill="#11292C"/>
<path d="M75.1625 12.2877C74.3304 13.1978 73.9143 14.4329 73.9143 15.9932V27.305H69.9746V7.41199H73.8752V9.86937C74.3693 9.06325 75.0129 8.42612 75.806 7.95807C76.5991 7.48993 77.5417 7.25586 78.634 7.25586H79.9991V10.9224H78.3609C77.0607 10.9225 75.9946 11.3775 75.1625 12.2877Z" fill="#11292C"/>
</svg>
