<svg width="115" height="27" viewBox="0 0 115 27" fill="none" xmlns="http://www.w3.org/2000/svg">
<path d="M21.823 21.823C19.5194 24.1265 16.2757 25.4685 13.0105 25.4685C9.74534 25.4685 6.50885 24.1265 4.1981 21.823C1.89453 19.5194 0.552571 16.2757 0.552571 13.0105C0.552571 9.74534 1.89453 6.50885 4.1981 4.1981C6.50885 1.89453 9.75252 0.552571 13.0105 0.552571C16.2685 0.552571 19.5122 1.89453 21.823 4.1981C24.1265 6.50168 25.4685 9.74534 25.4685 13.0105C25.4685 16.2757 24.1265 19.5122 21.823 21.823ZM22.2177 3.81059C19.8064 1.39937 16.4192 0 13.0105 0C9.60181 0 6.2218 1.39937 3.81059 3.81059C1.39937 6.2218 0 9.60899 0 13.0105C0 16.4121 1.39937 19.8064 3.81059 22.2105C6.2218 24.6217 9.60181 26.0211 13.0105 26.0211C16.4192 26.0211 19.7993 24.6217 22.2105 22.2105C24.6217 19.7993 26.0211 16.4192 26.0211 13.0105C26.0211 9.60182 24.6217 6.21463 22.2105 3.81059H22.2177Z" fill="#11292C"/>
<path d="M12.3008 12.6018V13.427L13.0112 13.8361L13.7289 13.427V12.6018L13.0112 12.1855L12.3008 12.6018Z" fill="#11292C"/>
<path d="M13.6348 10.6214V8.86325C13.6348 8.6982 13.5702 8.54032 13.4554 8.4255C13.3406 8.31068 13.1755 8.24609 13.0176 8.24609C12.8598 8.24609 12.6947 8.31068 12.5799 8.4255C12.4651 8.54032 12.4005 8.70537 12.4005 8.86325V10.6214L13.0248 10.9802L13.6491 10.6214H13.6348Z" fill="#11292C"/>
<path d="M9.10741 14.5474C8.96388 14.6263 8.86341 14.7698 8.82036 14.9277C8.7773 15.0856 8.79883 15.2578 8.88494 15.4014C8.96388 15.5449 9.10741 15.6453 9.26528 15.6884C9.42316 15.7315 9.59539 15.7099 9.73892 15.6238L11.2603 14.7483V14.0307L10.6359 13.6719L9.11458 14.5474H9.10741Z" fill="#11292C"/>
<path d="M16.9152 14.5474L15.3939 13.6719L14.7695 14.0307V14.7483L16.2909 15.6238C16.4344 15.7028 16.6067 15.7243 16.7645 15.6884C16.9224 15.6453 17.0588 15.5377 17.1449 15.4014C17.2238 15.2578 17.2525 15.0856 17.2095 14.9277C17.1664 14.7698 17.0588 14.6335 16.9224 14.5474H16.9152Z" fill="#11292C"/>
<path d="M22.0003 18.328C22.0003 18.328 21.9213 18.3495 21.8855 18.3424L19.1513 17.8328C19.0867 17.8185 19.0221 17.7826 18.9791 17.7324C18.936 17.6821 18.9073 17.6176 18.9001 17.5458C18.8858 17.352 18.8069 17.1583 18.6849 17.0076C18.5629 16.8569 18.3906 16.742 18.1969 16.6918C18.0103 16.6416 17.8022 16.6488 17.6156 16.7133C17.2855 16.8282 16.9267 16.8712 16.575 16.8425C16.2234 16.8066 15.8789 16.699 15.5775 16.5268L14.7666 16.0603V21.3779H13.6256V15.4001L13.0013 15.0413L12.3769 15.4001V21.3779H11.2359V16.0603L10.425 16.5268C10.1236 16.699 9.77914 16.8138 9.4275 16.8425C9.07587 16.8784 8.71705 16.8282 8.38695 16.7133C8.20036 16.6488 7.99943 16.6416 7.80567 16.6918C7.61909 16.742 7.44686 16.8569 7.31769 17.0076C7.19569 17.1583 7.11675 17.352 7.1024 17.5458C7.1024 17.6104 7.06652 17.6821 7.02346 17.7324C6.9804 17.7826 6.91582 17.8185 6.85123 17.8328L4.11708 18.3424C4.0812 18.3424 4.03814 18.3424 4.00226 18.328C3.96638 18.3136 3.93767 18.2849 3.91615 18.2491C3.89462 18.2132 3.88744 18.1773 3.89462 18.1342C3.89462 18.0984 3.91615 18.0553 3.93767 18.0266L5.74609 15.9168C5.78915 15.8665 5.85373 15.8307 5.91832 15.8163C5.9829 15.802 6.05467 15.8163 6.11925 15.8378C6.29866 15.924 6.49959 15.9527 6.69335 15.9168C6.88711 15.8809 7.06652 15.7948 7.21004 15.6513C7.35357 15.5149 7.44686 15.3355 7.48274 15.1417C7.54733 14.7973 7.69085 14.4672 7.89179 14.1801C8.09272 13.8931 8.35824 13.6491 8.66682 13.4769L9.47774 13.0104L4.87059 10.348L5.43751 9.35769L10.6116 12.343L11.2359 11.9842V11.2666L6.06184 8.28126L6.62877 7.29093L11.2359 9.95332V9.02041C11.2359 8.66877 11.3149 8.31714 11.4584 8.00138C11.6091 7.67845 11.8244 7.3914 12.0899 7.16894C12.2406 7.03977 12.3482 6.86754 12.3985 6.68095C12.4487 6.49437 12.4344 6.28626 12.3698 6.09968C12.298 5.9131 12.176 5.75522 12.011 5.6404C11.9535 5.60452 11.9105 5.54711 11.889 5.48252C11.8674 5.41793 11.8674 5.34617 11.889 5.28159L12.8147 2.66226C12.829 2.62638 12.8506 2.59049 12.8865 2.56897C12.9152 2.54744 12.9582 2.53308 12.9941 2.53308C13.03 2.53308 13.073 2.54744 13.1089 2.56897C13.1376 2.59049 13.1663 2.62638 13.1807 2.66226L14.1064 5.28159C14.1279 5.34617 14.1279 5.41793 14.1064 5.48252C14.0849 5.54711 14.0418 5.60452 13.9844 5.6404C13.8265 5.75522 13.6974 5.9131 13.6256 6.09968C13.5538 6.28626 13.5467 6.4872 13.5969 6.68095C13.6471 6.86754 13.7548 7.04694 13.9055 7.16894C14.171 7.39858 14.3863 7.68563 14.537 8.00138C14.6805 8.32431 14.7595 8.66877 14.7595 9.02041V9.95332L19.3666 7.29093L19.9335 8.28126L14.7595 11.2666V11.9842L15.3838 12.343L20.5579 9.35769L21.1248 10.348L16.5176 13.0104L17.3285 13.4769C17.63 13.6491 17.8955 13.8931 18.1036 14.1801C18.3045 14.4672 18.448 14.7973 18.5126 15.1417C18.5485 15.3355 18.6418 15.5149 18.7853 15.6513C18.9217 15.7876 19.1083 15.8809 19.302 15.9168C19.4958 15.9527 19.6967 15.9168 19.8761 15.8378C19.9407 15.8091 20.0053 15.802 20.0771 15.8163C20.1416 15.8307 20.2062 15.8665 20.2493 15.9168L22.0577 18.0266C22.0577 18.0266 22.1008 18.0912 22.1008 18.1342C22.1008 18.1773 22.1008 18.2132 22.072 18.2491C22.0505 18.2849 22.0218 18.3136 21.9859 18.328H22.0003ZM20.8234 5.19547C18.7782 3.15024 15.9005 1.95898 13.0084 1.95898C10.1164 1.95898 7.23875 3.15024 5.19352 5.19547C3.14829 7.2407 1.95703 10.1184 1.95703 13.0104C1.95703 15.9024 3.14829 18.7801 5.19352 20.8253C7.23875 22.8706 10.1164 24.0618 13.0084 24.0618C15.9005 24.0618 18.7782 22.8706 20.8234 20.8253C22.8686 18.7801 24.0599 15.9024 24.0599 13.0104C24.0599 10.1184 22.8686 7.2407 20.8234 5.19547Z" fill="#11292C"/>
<path d="M87.998 23.8546V2.16797H91.8015V10.4852H95.9565V2.16797H99.8389V23.8546H95.9565V14.3317H91.8015V23.8546H87.998Z" fill="#11292C"/>
<path d="M32.4566 15.4656L28.2441 2.16797H32.0332L34.6238 10.6216L37.4943 2.16797H41.0466L36.6762 15.035V23.8546H32.4566V15.4656Z" fill="#11292C"/>
<path d="M55.0156 23.8546H58.4172V7.5071L61.3235 21.7232H64.4954L67.0717 7.27746V23.8546H71.0545V2.16797H64.8758L63.0602 12.4874L60.9504 2.16797H55.0156V23.8546Z" fill="#11292C"/>
<path d="M106.539 15.1929L108.154 5.49775L109.718 15.1929H106.532H106.539ZM111.419 2.16797H105.549L101.588 23.8546H105.104L105.944 18.8097H110.314L111.132 23.8546H115L111.419 2.16797Z" fill="#11292C"/>
<path d="M77.7485 15.1929L79.3632 5.49775L80.9276 15.1929H77.7414H77.7485ZM82.6284 2.16797H76.7582L72.7969 23.8546H76.3133L77.1529 18.8097H81.5232L82.3413 23.8546H86.2093L82.6284 2.16797Z" fill="#11292C"/>
<path d="M44.7582 15.1929L46.3729 5.49775L47.9445 15.1929H44.7582ZM49.6381 2.16797H43.7679L39.8066 23.8546H43.323L44.1626 18.8097H48.533L49.351 23.8546H53.219L49.6381 2.16797Z" fill="#11292C"/>
</svg>
