<svg width="110" height="37" viewBox="0 0 110 37" fill="none" xmlns="http://www.w3.org/2000/svg">
<path d="M47.0738 19.0562C47.0738 24.2657 42.9983 28.1045 37.9968 28.1045C32.9954 28.1045 28.9199 24.2657 28.9199 19.0562C28.9199 13.8099 32.9954 10.0078 37.9968 10.0078C42.9983 10.0078 47.0738 13.8099 47.0738 19.0562ZM43.1003 19.0562C43.1003 15.8007 40.7383 13.5733 37.9968 13.5733C35.2554 13.5733 32.8934 15.8007 32.8934 19.0562C32.8934 22.279 35.2554 24.539 37.9968 24.539C40.7383 24.539 43.1003 22.2749 43.1003 19.0562Z" fill="#11292C"/>
<path d="M66.6538 19.0562C66.6538 24.2657 62.5784 28.1045 57.5769 28.1045C52.5754 28.1045 48.5 24.2657 48.5 19.0562C48.5 13.814 52.5754 10.0078 57.5769 10.0078C62.5784 10.0078 66.6538 13.8099 66.6538 19.0562ZM62.6804 19.0562C62.6804 15.8007 60.3184 13.5733 57.5769 13.5733C54.8355 13.5733 52.4734 15.8007 52.4734 19.0562C52.4734 22.279 54.8355 24.539 57.5769 24.539C60.3184 24.539 62.6804 22.2749 62.6804 19.0562Z" fill="#11292C"/>
<path d="M85.4203 10.5545V26.7991C85.4203 33.4813 81.4795 36.2105 76.8207 36.2105C72.4352 36.2105 69.7958 33.2774 68.8004 30.8786L72.2598 29.4385C72.8758 30.9112 74.3852 32.6491 76.8166 32.6491C79.7987 32.6491 81.6468 30.8093 81.6468 27.3457V26.0444H81.5081C80.6187 27.1418 78.9053 28.1005 76.7432 28.1005C72.219 28.1005 68.0742 24.1596 68.0742 19.0888C68.0742 13.9813 72.219 10.0078 76.7432 10.0078C78.9012 10.0078 80.6146 10.9665 81.5081 12.0313H81.6468V10.5585H85.4203V10.5545ZM81.9283 19.0888C81.9283 15.9027 79.8028 13.5733 77.0981 13.5733C74.3567 13.5733 72.0599 15.9027 72.0599 19.0888C72.0599 22.2423 74.3567 24.539 77.0981 24.539C79.8028 24.539 81.9283 22.2423 81.9283 19.0888Z" fill="#11292C"/>
<path d="M91.6431 1.03125V27.5481H87.7676V1.03125H91.6431Z" fill="#11292C"/>
<path d="M106.744 22.0344L109.828 24.0905C108.833 25.5632 106.434 28.1006 102.29 28.1006C97.1494 28.1006 93.3105 24.1272 93.3105 19.0523C93.3105 13.6714 97.182 10.0039 101.845 10.0039C106.54 10.0039 108.837 13.7407 109.588 15.7601L110 16.7881L97.9041 21.7978C98.8301 23.6132 100.27 24.5392 102.29 24.5392C104.313 24.5392 105.716 23.5438 106.744 22.0344ZM97.2514 18.7789L105.337 15.4215C104.892 14.2915 103.554 13.5041 101.98 13.5041C99.9602 13.5041 97.1494 15.2869 97.2514 18.7789Z" fill="#11292C"/>
<path d="M14.2497 16.7015V12.8627H27.1859C27.3123 13.5317 27.3776 14.3232 27.3776 15.1799C27.3776 18.06 26.5903 21.6214 24.0528 24.1589C21.5847 26.729 18.4312 28.0997 14.2538 28.0997C6.5109 28.0997 0 21.7928 0 14.0498C0 6.30693 6.5109 0 14.2538 0C18.5373 0 21.5888 1.68076 23.8815 3.87146L21.1727 6.58026C19.5286 5.0382 17.3012 3.83882 14.2497 3.83882C8.59554 3.83882 4.17334 8.39564 4.17334 14.0498C4.17334 19.7041 8.59554 24.2609 14.2497 24.2609C17.9172 24.2609 20.0059 22.7882 21.344 21.4501C22.4292 20.3649 23.1431 18.8147 23.4246 16.6975L14.2497 16.7015Z" fill="#11292C"/>
</svg>
