<svg width="130" height="32" viewBox="0 0 130 32" fill="none" xmlns="http://www.w3.org/2000/svg">
<mask id="mask0_1766_3629" style="mask-type:luminance" maskUnits="userSpaceOnUse" x="0" y="0" width="130" height="32">
<path d="M129.855 0H0.369324V31.0227H129.855V0Z" fill="white"/>
</mask>
<g mask="url(#mask0_1766_3629)">
<path d="M28.9343 30.8465C24.9779 30.8465 19.9335 28.294 15.5419 24.0136C15.3441 24.5633 15.1068 25.0935 14.8694 25.604C13.3462 28.667 11.1702 30.3359 8.73704 30.3359C6.30387 30.3359 4.08831 28.6866 2.5651 25.7022C1.14081 22.9926 0.369324 19.3209 0.369324 15.4136C0.369324 9.03241 2.48598 3.65248 5.90823 1.35523C8.28204 -0.235177 11.2691 -0.431523 14.5331 0.785828C17.3026 1.80682 20.2896 3.84883 23.2371 6.73512C23.4943 6.04791 23.8108 5.3607 24.1867 4.71275C25.7296 2.00317 27.8858 0.510939 30.2399 0.510939C34.9479 0.510939 38.4889 6.91183 38.4889 15.4136C38.4889 19.105 37.8163 22.4821 36.5305 25.2114C35.9766 26.4483 35.2051 27.5675 34.2754 28.5688C33.4643 29.4524 32.4357 30.12 31.2883 30.5127C30.5366 30.7287 29.7453 30.8465 28.9343 30.8465ZM16.1552 22.0501C21.6743 27.7834 27.6089 29.7862 30.7344 28.7652C32.3368 28.235 33.8006 26.7035 34.8688 24.426C36.0359 21.952 36.6492 18.83 36.6492 15.4136C36.6492 11.8009 35.9568 8.44335 34.671 5.94973C33.4643 3.61321 31.9016 2.31732 30.2399 2.31732C27.8463 2.31732 25.7692 4.69312 24.6614 8.20772C29.1123 13.0771 32.0401 19.0264 31.7829 22.8355C31.684 24.21 31.1894 25.2899 30.3388 25.9967L30.2596 26.0556C29.3101 26.6839 28.2023 26.7232 27.1144 26.1341C24.2856 24.6419 21.9908 19.1638 21.9908 13.9607C21.9908 12.1935 22.1886 10.4264 22.6238 8.69862C16.6102 2.49404 10.7548 0.314593 6.93689 2.8671C4.04874 4.79129 2.18925 9.71956 2.18925 15.4136C2.18925 22.7766 5.05762 28.5296 8.71724 28.5296C10.9922 28.5296 12.9703 26.1734 14.0979 22.541C11.1702 19.2817 8.95464 15.6493 7.84684 12.2721C6.77863 8.97346 6.89733 6.30316 8.18314 4.968C9.01395 4.10408 10.2405 3.8881 11.5461 4.41823C14.2364 5.49814 16.9861 9.56253 16.9861 15.237C16.9861 17.5342 16.7091 19.8118 16.1552 22.0501ZM24.1471 10.3675C23.9295 11.5456 23.8306 12.763 23.8306 13.9607C23.8306 18.889 26.0264 23.4835 27.9847 24.5241C28.5782 24.8383 28.954 24.7205 29.2112 24.5438C29.6464 24.1707 29.9036 23.5424 29.9629 22.7177C30.1607 19.6351 27.7671 14.6282 24.1471 10.3675ZM10.1811 5.94973C9.92395 5.94973 9.68656 6.04791 9.50855 6.22462C8.91505 6.8333 8.59855 8.63968 9.58765 11.7027C10.4977 14.5301 12.278 17.5538 14.6518 20.3615C14.9881 18.6534 15.1463 16.9451 15.1265 15.2173C15.1463 9.81773 12.5154 6.77439 10.8537 6.10681C10.6361 6.00864 10.4185 5.96937 10.1811 5.94973Z" fill="#11292C"/>
<path d="M49.9435 20.302V10.5633H52.3767V12.1536C52.7525 11.5646 53.2866 11.113 53.9197 10.8381C54.6714 10.4847 55.4824 10.308 56.2935 10.3276C58.2915 10.3276 59.4982 11.0149 59.9136 12.4089C60.0718 12.9194 60.1509 13.6263 60.1509 14.5491V20.3217H57.6782V15.1185C57.6782 14.3331 57.5793 13.7834 57.4013 13.4691C57.1045 12.8802 56.4319 12.5856 55.423 12.5856C54.8296 12.5856 54.2362 12.723 53.7021 12.998C53.1877 13.2336 52.7525 13.587 52.436 14.0582V20.302H49.9435Z" fill="#11292C"/>
<path d="M71.0504 20.6162C69.824 20.6162 69.0723 20.2039 68.7953 19.3595C68.0436 20.2627 66.8567 20.7143 65.2148 20.7143C63.9685 20.7143 62.9993 20.4395 62.3069 19.8701C61.6343 19.3399 61.2585 18.5349 61.2783 17.6906C61.2783 16.2572 62.0102 15.3345 63.4938 14.9025C64.4235 14.6472 65.5907 14.5098 66.9952 14.5098C67.47 14.5098 67.9645 14.5491 68.4393 14.6276V14.3134C68.4591 13.9011 68.3206 13.4888 68.0436 13.1746C67.6876 12.8016 67.015 12.6248 66.0259 12.6248C64.4631 12.6248 63.1971 13.0176 62.1882 13.7833H62.1091V11.5843C63.3158 10.8184 64.7994 10.4258 66.56 10.4258C67.9843 10.4258 69.0525 10.7007 69.7646 11.2308C70.1603 11.5253 70.457 11.918 70.635 12.3697C70.8131 12.8212 70.912 13.4299 70.912 14.1956C70.912 14.4313 70.912 14.8632 70.8922 15.4523C70.8922 16.0609 70.8724 16.4732 70.8724 16.7285C70.8724 17.455 70.912 17.887 70.9713 18.0244C71.0702 18.2993 71.3472 18.4367 71.7626 18.4367C72.0395 18.4367 72.2967 18.3974 72.5538 18.3189V20.3217C72.178 20.5376 71.6834 20.6162 71.0504 20.6162ZM68.4393 16.4143C67.9645 16.3358 67.4898 16.3162 67.015 16.3162C66.3226 16.2965 65.6302 16.3751 64.9576 16.5125C64.1861 16.6893 63.7905 17.0623 63.7905 17.6513C63.7905 18.4367 64.4433 18.8294 65.7291 18.8294C66.9359 18.8294 67.8458 18.476 68.4591 17.7495C68.4393 17.4942 68.4393 17.0426 68.4393 16.4143Z" fill="#11292C"/>
<path d="M74.0551 21.1066H74.1341C75.282 21.9509 76.7459 22.3632 78.5261 22.3632C79.911 22.3632 80.9 22.0491 81.4732 21.4404C81.8691 21.028 82.0671 20.3605 82.0671 19.3984V18.6719C81.7901 19.1235 81.3151 19.5162 80.623 19.8303C79.8911 20.1641 79.08 20.3212 78.2889 20.3016C76.726 20.3016 75.44 19.9089 74.4311 19.1039C73.4223 18.2989 72.9277 17.1404 72.9079 15.6089C72.8882 14.7843 73.0662 13.9596 73.4025 13.2135C73.6992 12.5656 74.174 11.9961 74.7479 11.5838C75.282 11.2108 75.895 10.9163 76.5081 10.7199C77.1212 10.5235 77.7741 10.445 78.4271 10.445C79.2182 10.4254 79.99 10.5825 80.722 10.8573C81.4141 11.1322 81.8691 11.4856 82.087 11.898V10.7199H84.4603V19.2806C84.4603 20.6746 84.2032 21.7349 83.6891 22.5007C82.7592 23.8555 81.0382 24.5231 78.5061 24.5231C77.6161 24.5231 76.726 24.4249 75.8551 24.2285C75.0641 24.0322 74.451 23.7965 74.0351 23.502L74.0551 21.1066ZM81.988 14.0381C81.731 13.5473 81.3151 13.1545 80.8011 12.9386C80.2072 12.6637 79.555 12.5263 78.902 12.5459C78.0312 12.5263 77.181 12.7815 76.469 13.292C75.7961 13.7829 75.46 14.5486 75.46 15.55C75.46 16.4139 75.7961 17.0619 76.449 17.5135C77.1611 17.9847 78.012 18.2007 78.8621 18.181C79.5151 18.181 80.168 18.0436 80.7612 17.7884C81.276 17.5723 81.7111 17.1993 82.0072 16.7281L81.988 14.0381Z" fill="#11292C"/>
<path d="M95.3625 20.6162C94.1356 20.6162 93.3845 20.2039 93.1075 19.3595C92.3555 20.2627 91.1686 20.7143 89.5465 20.7143C88.3004 20.7143 87.3313 20.4395 86.6385 19.8701C85.9663 19.3399 85.5904 18.5349 85.6103 17.6906C85.6103 16.2572 86.3423 15.3345 87.8255 14.9025C88.7554 14.6472 89.9225 14.5098 91.3274 14.5098C91.8016 14.5098 92.2964 14.5491 92.7714 14.6276V14.3331C92.7906 13.9207 92.6525 13.5084 92.3755 13.1943C92.0195 12.8212 91.3466 12.6445 90.3575 12.6445C88.7946 12.6445 87.5286 13.0372 86.5203 13.803H86.4213V11.5843C87.6275 10.8184 89.1114 10.4258 90.8724 10.4258C92.2964 10.4258 93.3645 10.7007 94.0766 11.2308C94.4725 11.5253 94.7687 11.918 94.9474 12.3697C95.1254 12.8212 95.2237 13.4299 95.2237 14.1956C95.2237 14.4313 95.2237 14.8632 95.2045 15.4523C95.1845 16.0609 95.1845 16.4732 95.1845 16.7285C95.1845 17.455 95.2237 17.887 95.2835 18.0244C95.3825 18.2993 95.6595 18.4367 96.0746 18.4367C96.3516 18.4367 96.6086 18.3974 96.8657 18.3189V20.3217C96.4897 20.5376 95.9955 20.6162 95.3625 20.6162ZM92.7514 16.4143C92.2765 16.3358 91.8016 16.3162 91.3274 16.3162C90.6345 16.2965 89.9424 16.3751 89.2695 16.5125C88.4984 16.6893 88.1025 17.0623 88.1025 17.6513C88.1025 18.4367 88.7355 18.8294 90.0414 18.8294C91.2476 18.8294 92.1576 18.476 92.7714 17.7495C92.7514 17.4942 92.7514 17.0426 92.7514 16.4143Z" fill="#11292C"/>
<path d="M97.9533 20.4603V10.7019H100.386V12.3512C100.565 11.8603 100.94 11.4284 101.514 11.0356C102.127 10.6233 102.859 10.427 103.591 10.4467C104.165 10.4467 104.62 10.5448 104.936 10.7215V13.1758H104.857C104.382 12.9599 103.868 12.8617 103.354 12.8813C102.701 12.8617 102.048 12.9992 101.474 13.2544C101.019 13.4703 100.644 13.8434 100.466 14.295V20.4406L97.9533 20.4603Z" fill="#11292C"/>
<path d="M123.096 19.2612C122.028 20.2234 120.643 20.7142 118.942 20.7142C117.24 20.7142 115.856 20.243 114.807 19.2809C113.759 18.3188 113.225 17.0818 113.225 15.57C113.225 14.0581 113.759 12.8211 114.847 11.8786C115.915 10.9166 117.3 10.4453 119.001 10.4453C120.742 10.4453 122.126 10.9166 123.155 11.859C124.184 12.8015 124.698 14.0384 124.698 15.5895C124.678 17.0622 124.144 18.2992 123.096 19.2612ZM121.315 13.4298C120.722 12.8604 119.97 12.5855 118.961 12.5855C117.972 12.5855 117.201 12.8604 116.588 13.4298C115.974 13.9795 115.638 14.7649 115.658 15.57C115.638 16.3946 115.974 17.18 116.607 17.7101C117.24 18.2599 118.012 18.5151 118.961 18.5151C119.931 18.5151 120.702 18.2402 121.296 17.6709C121.889 17.1211 122.206 16.3553 122.186 15.5503C122.225 14.7649 121.909 13.9992 121.315 13.4298Z" fill="#11292C"/>
<path d="M106.065 20.4603V10.7019H108.498V12.3512C108.676 11.8603 109.052 11.4284 109.625 11.0356C110.239 10.6233 110.971 10.427 111.703 10.4467C112.276 10.4467 112.731 10.5448 113.048 10.7215V13.1758H112.969C112.494 12.9599 111.979 12.8617 111.465 12.8813C110.812 12.8617 110.16 12.9992 109.586 13.2544C109.131 13.4703 108.755 13.8434 108.557 14.295V20.4406L106.065 20.4603Z" fill="#11292C"/>
</g>
</svg>
