<svg width="176" height="50" viewBox="0 0 176 50" fill="none" xmlns="http://www.w3.org/2000/svg">
<path d="M69.1352 35.667C67.2646 35.667 65.5862 35.206 64.1 34.2842C62.6395 33.3623 61.4736 32.1075 60.6024 30.5197C59.7568 28.932 59.334 27.1523 59.334 25.1804C59.334 23.2086 59.7568 21.4288 60.6024 19.8411C61.4736 18.2534 62.6395 16.9986 64.1 16.0767C65.5862 15.1548 67.2646 14.6939 69.1352 14.6939C70.9288 14.6939 72.556 15.0652 74.0165 15.8078C75.5027 16.5249 76.6302 17.5108 77.3989 18.7656L75.208 21.4544C74.7981 20.8655 74.2728 20.3277 73.6322 19.8411C72.9916 19.3546 72.3125 18.9705 71.5951 18.6888C70.8776 18.4071 70.1857 18.2662 69.5195 18.2662C68.2896 18.2662 67.1877 18.5735 66.214 19.1881C65.2659 19.7771 64.51 20.5966 63.9463 21.6465C63.3826 22.6964 63.1007 23.8744 63.1007 25.1804C63.1007 26.4865 63.3954 27.6644 63.9847 28.7144C64.5741 29.7387 65.3556 30.5582 66.3293 31.1728C67.303 31.7874 68.3793 32.0947 69.558 32.0947C70.2498 32.0947 70.916 31.9794 71.5566 31.7489C72.2229 31.5185 72.8635 31.1728 73.4784 30.7118C74.0934 30.2509 74.6699 29.6875 75.208 29.0217L77.3989 31.7105C76.5789 32.8629 75.4002 33.8104 73.8628 34.553C72.351 35.2957 70.7751 35.667 69.1352 35.667Z" fill="#11292C"/>
<path d="M81.7866 35.2829V15.1164H85.7455V35.2829H81.7866ZM83.7084 10.6606C82.8628 10.6606 82.2094 10.4429 81.7482 10.0076C81.2869 9.57224 81.0563 8.95765 81.0563 8.16379C81.0563 7.42115 81.2869 6.81936 81.7482 6.35841C82.235 5.89747 82.8884 5.66699 83.7084 5.66699C84.554 5.66699 85.2074 5.88466 85.6686 6.32C86.1299 6.75534 86.3605 7.36994 86.3605 8.16379C86.3605 8.90643 86.1171 9.50822 85.6302 9.96917C85.169 10.4301 84.5284 10.6606 83.7084 10.6606Z" fill="#11292C"/>
<path d="M101.248 35.667C99.172 35.667 97.3271 35.2317 95.7127 34.361C94.1241 33.4647 92.8685 32.2483 91.946 30.7118C91.0492 29.1753 90.6008 27.4084 90.6008 25.4109C90.6008 23.8232 90.857 22.3763 91.3695 21.0703C91.882 19.7643 92.5866 18.6375 93.4835 17.69C94.4059 16.7169 95.4949 15.9743 96.7505 15.4621C98.0317 14.9244 99.4154 14.6555 100.902 14.6555C102.208 14.6555 103.426 14.9116 104.553 15.4237C105.68 15.9103 106.654 16.5889 107.474 17.4596C108.32 18.3302 108.96 19.3674 109.396 20.571C109.857 21.7489 110.075 23.0422 110.049 24.4506L110.011 26.1407H93.5219L92.6379 22.9909H106.59L106.014 23.6439V22.7221C105.937 21.877 105.655 21.1215 105.168 20.4557C104.681 19.7899 104.066 19.2649 103.323 18.8808C102.58 18.4967 101.773 18.3046 100.902 18.3046C99.5179 18.3046 98.352 18.5735 97.4039 19.1113C96.4558 19.6235 95.7384 20.3917 95.2515 21.416C94.7647 22.4148 94.5212 23.6568 94.5212 25.142C94.5212 26.5505 94.8159 27.7797 95.4053 28.8296C95.9946 29.8539 96.8274 30.6478 97.9036 31.2112C98.9798 31.7745 100.223 32.0562 101.632 32.0562C102.631 32.0562 103.554 31.8898 104.399 31.5569C105.271 31.224 106.206 30.6222 107.205 29.7515L109.204 32.5556C108.589 33.1702 107.833 33.708 106.936 34.1689C106.065 34.6299 105.13 35.0012 104.13 35.2829C103.157 35.539 102.196 35.667 101.248 35.667Z" fill="#11292C"/>
<path d="M114.352 35.2829V15.1164H118.311V19.2649L117.619 19.7259C117.875 18.8296 118.375 18.0101 119.118 17.2675C119.861 16.4993 120.745 15.8847 121.77 15.4237C122.795 14.9372 123.845 14.6939 124.922 14.6939C126.459 14.6939 127.74 15.0012 128.765 15.6158C129.79 16.2048 130.559 17.1139 131.071 18.3431C131.584 19.5722 131.84 21.1215 131.84 22.9909V35.2829H127.881V23.2598C127.881 22.1075 127.728 21.16 127.42 20.4173C127.113 19.6491 126.639 19.0985 125.998 18.7656C125.357 18.4071 124.563 18.2534 123.615 18.3046C122.846 18.3046 122.141 18.4327 121.501 18.6888C120.86 18.9192 120.297 19.2521 119.81 19.6875C119.348 20.1228 118.977 20.635 118.695 21.224C118.439 21.7874 118.311 22.4019 118.311 23.0678V35.2829H116.35C116.017 35.2829 115.684 35.2829 115.351 35.2829C115.018 35.2829 114.685 35.2829 114.352 35.2829Z" fill="#11292C"/>
<path d="M145.782 35.667C143.911 35.667 142.233 35.206 140.747 34.2842C139.286 33.3623 138.12 32.1075 137.249 30.5197C136.404 28.932 135.981 27.1523 135.981 25.1804C135.981 23.2086 136.404 21.4288 137.249 19.8411C138.12 18.2534 139.286 16.9986 140.747 16.0767C142.233 15.1548 143.911 14.6939 145.782 14.6939C147.576 14.6939 149.203 15.0652 150.663 15.8078C152.149 16.5249 153.277 17.5108 154.046 18.7656L151.855 21.4544C151.445 20.8655 150.92 20.3277 150.279 19.8411C149.638 19.3546 148.959 18.9705 148.242 18.6888C147.524 18.4071 146.833 18.2662 146.166 18.2662C144.936 18.2662 143.835 18.5735 142.861 19.1881C141.913 19.7771 141.157 20.5966 140.593 21.6465C140.029 22.6964 139.747 23.8744 139.747 25.1804C139.747 26.4865 140.042 27.6644 140.632 28.7144C141.221 29.7387 142.002 30.5582 142.976 31.1728C143.95 31.7874 145.026 32.0947 146.205 32.0947C146.897 32.0947 147.563 31.9794 148.203 31.7489C148.87 31.5185 149.51 31.1728 150.125 30.7118C150.74 30.2509 151.317 29.6875 151.855 29.0217L154.046 31.7105C153.226 32.8629 152.047 33.8104 150.51 34.553C148.998 35.2957 147.422 35.667 145.782 35.667Z" fill="#11292C"/>
<path d="M167.197 35.667C165.121 35.667 163.276 35.2317 161.662 34.361C160.073 33.4647 158.818 32.2483 157.895 30.7118C156.998 29.1753 156.55 27.4084 156.55 25.4109C156.55 23.8232 156.806 22.3763 157.319 21.0703C157.831 19.7643 158.536 18.6375 159.433 17.69C160.355 16.7169 161.444 15.9743 162.7 15.4621C163.981 14.9244 165.365 14.6555 166.851 14.6555C168.158 14.6555 169.375 14.9116 170.502 15.4237C171.63 15.9103 172.603 16.5889 173.423 17.4596C174.269 18.3302 174.91 19.3674 175.345 20.571C175.806 21.7489 176.024 23.0422 175.999 24.4506L175.96 26.1407H159.471L158.587 22.9909H172.539L171.963 23.6439V22.7221C171.886 21.877 171.604 21.1215 171.117 20.4557C170.63 19.7899 170.015 19.2649 169.272 18.8808C168.529 18.4967 167.722 18.3046 166.851 18.3046C165.467 18.3046 164.301 18.5735 163.353 19.1113C162.405 19.6235 161.688 20.3917 161.201 21.416C160.714 22.4148 160.47 23.6568 160.47 25.142C160.47 26.5505 160.765 27.7797 161.355 28.8296C161.944 29.8539 162.777 30.6478 163.853 31.2112C164.929 31.7745 166.172 32.0562 167.581 32.0562C168.58 32.0562 169.503 31.8898 170.349 31.5569C171.22 31.224 172.155 30.6222 173.154 29.7515L175.153 32.5556C174.538 33.1702 173.782 33.708 172.885 34.1689C172.014 34.6299 171.079 35.0012 170.079 35.2829C169.106 35.539 168.145 35.667 167.197 35.667Z" fill="#11292C"/>
<path d="M42.6644 42.6768L35.3011 35.3135L20.9453 49.6692C22.2622 49.8833 23.6113 50.0003 24.9879 50.0003C31.8908 50.0003 38.1414 47.2024 42.6644 42.6768Z" fill="#60D394"/>
<path d="M20.9449 38.9998C14.8661 37.2424 10.4152 31.6464 10.4152 25C10.4152 16.9471 16.9446 10.4177 24.9975 10.4177C29.0252 10.4177 32.6695 12.0507 35.3082 14.6893L42.674 7.32351C38.151 2.79797 31.9028 0 25 0C11.1919 0 0 11.1919 0 25C0 37.4266 9.06851 47.7298 20.9449 49.6664V38.9998Z" fill="#11292C"/>
</svg>
